InterAlia-Regular.ufo
<glyph name="percent" format="2">
  <advance height="2479" width="1664"/>
  <unicode hex="0025"/>
  <anchor x="1056" y="791" name="dnom"/>
  <anchor x="590" y="698" name="numr"/>
  <outline>
    <contour>
      <point x="913" y="279" type="line" smooth="yes"/>
      <point x="913" y="116"/>
      <point x="1015" y="-20"/>
      <point x="1204" y="-20" type="curve" smooth="yes"/>
      <point x="1391" y="-20"/>
      <point x="1492" y="116"/>
      <point x="1492" y="279" type="curve" smooth="yes"/>
      <point x="1492" y="358" type="line" smooth="yes"/>
      <point x="1492" y="521"/>
      <point x="1393" y="657"/>
      <point x="1204" y="657" type="curve" smooth="yes"/>
      <point x="1018" y="657"/>
      <point x="913" y="521"/>
      <point x="913" y="358" type="curve" smooth="yes"/>
    </contour>
    <contour>
      <point x="1062" y="358" type="line" smooth="yes"/>
      <point x="1062" y="448"/>
      <point x="1103" y="532"/>
      <point x="1204" y="532" type="curve" smooth="yes"/>
      <point x="1309" y="532"/>
      <point x="1344" y="448"/>
      <point x="1344" y="358" type="curve" smooth="yes"/>
      <point x="1344" y="279" type="line" smooth="yes"/>
      <point x="1344" y="189"/>
      <point x="1306" y="105"/>
      <point x="1204" y="105" type="curve" smooth="yes"/>
      <point x="1100" y="105"/>
      <point x="1062" y="189"/>
      <point x="1062" y="279" type="curve" smooth="yes"/>
    </contour>
    <contour>
      <point x="172" y="1132" type="line" smooth="yes"/>
      <point x="172" y="969"/>
      <point x="273" y="832"/>
      <point x="463" y="832" type="curve" smooth="yes"/>
      <point x="649" y="832"/>
      <point x="751" y="969"/>
      <point x="751" y="1132" type="curve" smooth="yes"/>
      <point x="751" y="1210" type="line" smooth="yes"/>
      <point x="751" y="1373"/>
      <point x="652" y="1510"/>
      <point x="463" y="1510" type="curve" smooth="yes"/>
      <point x="276" y="1510"/>
      <point x="172" y="1373"/>
      <point x="172" y="1210" type="curve" smooth="yes"/>
    </contour>
    <contour>
      <point x="320" y="1210" type="line" smooth="yes"/>
      <point x="320" y="1300"/>
      <point x="361" y="1385"/>
      <point x="463" y="1385" type="curve" smooth="yes"/>
      <point x="567" y="1385"/>
      <point x="602" y="1300"/>
      <point x="602" y="1210" type="curve" smooth="yes"/>
      <point x="602" y="1132" type="line" smooth="yes"/>
      <point x="602" y="1041"/>
      <point x="564" y="957"/>
      <point x="463" y="957" type="curve" smooth="yes"/>
      <point x="358" y="957"/>
      <point x="320" y="1041"/>
      <point x="320" y="1132" type="curve" smooth="yes"/>
    </contour>
    <component base="fraction" xOffset="541"/>
  </outline>
</glyph>
<glyph name="ampersand" format="2">
  <advance height="2479" width="1309"/>
  <unicode hex="0026"/>
  <outline>
    <contour>
      <point x="579" y="-20" type="curve"/>
      <point x="721" y="-20"/>
      <point x="881" y="32"/>
      <point x="977" y="140" type="curve"/>
      <point x="989" y="154"/>
      <point x="998" y="169"/>
      <point x="1009" y="183" type="curve"/>
      <point x="1062" y="235"/>
      <point x="1190" y="355"/>
      <point x="1190" y="652" type="curve"/>
      <point x="1024" y="652" type="line"/>
      <point x="1024" y="332"/>
      <point x="797" y="131"/>
      <point x="573" y="131" type="curve" smooth="yes"/>
      <point x="396" y="131"/>
      <point x="279" y="256"/>
      <point x="279" y="396" type="curve"/>
      <point x="279" y="436"/>
      <point x="317" y="541"/>
      <point x="451" y="640" type="curve" smooth="yes"/>
      <point x="748" y="861" type="line" smooth="yes"/>
      <point x="870" y="951"/>
      <point x="945" y="1050"/>
      <point x="945" y="1193" type="curve"/>
      <point x="945" y="1359"/>
      <point x="809" y="1504"/>
      <point x="585" y="1504" type="curve" smooth="yes"/>
      <point x="367" y="1504"/>
      <point x="224" y="1367"/>
      <point x="224" y="1167" type="curve" smooth="yes"/>
      <point x="224" y="992"/>
      <point x="349" y="870"/>
      <point x="506" y="681" type="curve" smooth="yes"/>
      <point x="1071" y="0" type="line"/>
      <point x="1277" y="0" type="line"/>
      <point x="593" y="835" type="line" smooth="yes"/>
      <point x="497" y="951"/>
      <point x="399" y="1059"/>
      <point x="399" y="1164" type="curve" smooth="yes"/>
      <point x="399" y="1257"/>
      <point x="477" y="1356"/>
      <point x="591" y="1356" type="curve" smooth="yes"/>
      <point x="698" y="1356"/>
      <point x="771" y="1268"/>
      <point x="771" y="1193" type="curve"/>
      <point x="771" y="1091"/>
      <point x="716" y="1036"/>
      <point x="631" y="980" type="curve"/>
      <point x="416" y="820" type="line"/>
      <point x="233" y="695"/>
      <point x="105" y="582"/>
      <point x="105" y="396" type="curve"/>
      <point x="105" y="154"/>
      <point x="285" y="-20"/>
    </contour>
  </outline>
</glyph>
<glyph name="quotesingle" format="2">
  <advance height="2479" width="393"/>
  <unicode hex="0027"/>
  <outline>
    <contour>
      <point x="294" y="1489" type="line"/>
      <point x="99" y="1489" type="line"/>
      <point x="134" y="977" type="line"/>
      <point x="259" y="977" type="line"/>
    </contour>
  </outline>
</glyph>
<glyph name="hyphen" format="2">
  <advance height="2479" width="943"/>
  <unicode hex="002D"/>
  <outline>
    <contour>
      <point x="797" y="719" type="line"/>
      <point x="145" y="719" type="line"/>
      <point x="145" y="559" type="line"/>
      <point x="797" y="559" type="line"/>
    </contour>
  </outline>
</glyph>
<glyph name="zero" format="2">
  <advance height="2479" width="1280"/>
  <unicode hex="0030"/>
  <outline>
    <contour>
      <point x="640" y="-20" type="curve" smooth="yes"/>
      <point x="969" y="-20"/>
      <point x="1158" y="258"/>
      <point x="1158" y="745" type="curve" smooth="yes"/>
      <point x="1158" y="1228"/>
      <point x="966" y="1510"/>
      <point x="640" y="1510" type="curve" smooth="yes"/>
      <point x="314" y="1510"/>
      <point x="122" y="1228"/>
      <point x="122" y="745" type="curve" smooth="yes"/>
      <point x="122" y="258"/>
      <point x="311" y="-20"/>
    </contour>
    <contour>
      <point x="640" y="140" type="curve" smooth="yes"/>
      <point x="423" y="140"/>
      <point x="297" y="357"/>
      <point x="297" y="745" type="curve" smooth="yes"/>
      <point x="297" y="1132"/>
      <point x="425" y="1353"/>
      <point x="640" y="1353" type="curve" smooth="yes"/>
      <point x="855" y="1353"/>
      <point x="983" y="1132"/>
      <point x="983" y="745" type="curve" smooth="yes"/>
      <point x="983" y="357"/>
      <point x="857" y="140"/>
    </contour>
  </outline>
</glyph>
<glyph name="two" format="2">
  <advance height="2479" width="1239"/>
  <unicode hex="0032"/>
  <anchor x="839" y="768" name="cross"/>
  <outline>
    <contour>
      <point x="154" y="0" type="line"/>
      <point x="1094" y="0" type="line"/>
      <point x="1094" y="160" type="line"/>
      <point x="401" y="160" type="line"/>
      <point x="401" y="172" type="line"/>
      <point x="736" y="529" type="line" smooth="yes"/>
      <point x="992" y="804"/>
      <point x="1068" y="932"/>
      <point x="1068" y="1097" type="curve" smooth="yes"/>
      <point x="1068" y="1327"/>
      <point x="881" y="1510"/>
      <point x="620" y="1510" type="curve" smooth="yes"/>
      <point x="359" y="1510"/>
      <point x="160" y="1332"/>
      <point x="160" y="1071" type="curve"/>
      <point x="332" y="1071" type="line"/>
      <point x="332" y="1240"/>
      <point x="441" y="1353"/>
      <point x="614" y="1353" type="curve" smooth="yes"/>
      <point x="775" y="1353"/>
      <point x="899" y="1254"/>
      <point x="899" y="1097" type="curve" smooth="yes"/>
      <point x="899" y="959"/>
      <point x="818" y="857"/>
      <point x="646" y="669" type="curve" smooth="yes"/>
      <point x="154" y="131" type="line"/>
    </contour>
  </outline>
</glyph>
<glyph name="four" format="2">
  <advance height="2479" width="1315"/>
  <unicode hex="0034"/>
  <outline>
    <contour>
      <point x="119" y="305" type="line"/>
      <point x="1196" y="305" type="line"/>
      <point x="1196" y="465" type="line"/>
      <point x="314" y="465" type="line"/>
      <point x="314" y="477" type="line"/>
      <point x="809" y="1260" type="line"/>
      <point x="881" y="1260" type="line"/>
      <point x="881" y="1489" type="line"/>
      <point x="774" y="1489" type="line"/>
      <point x="119" y="454" type="line"/>
    </contour>
    <contour>
      <point x="820" y="0" type="line"/>
      <point x="992" y="0" type="line"/>
      <point x="992" y="1489" type="line"/>
      <point x="820" y="1489" type="line"/>
      <point x="820" y="420" type="line"/>
      <point x="820" y="351" type="line"/>
    </contour>
  </outline>
</glyph>
<glyph name="seven" format="2">
  <advance height="2479" width="1169"/>
  <unicode hex="0037"/>
  <outline>
    <contour>
      <point x="201" y="0" type="line"/>
      <point x="390" y="0" type="line"/>
      <point x="1053" y="1321" type="line"/>
      <point x="1053" y="1489" type="line"/>
      <point x="99" y="1489" type="line"/>
      <point x="99" y="1329" type="line"/>
      <point x="867" y="1329" type="line"/>
      <point x="867" y="1318" type="line"/>
    </contour>
  </outline>
</glyph>
<glyph name="less" format="2">
  <advance height="2479" width="1350"/>
  <unicode hex="003C"/>
  <outline>
    <contour>
      <point x="207" y="524" type="line"/>
      <point x="1143" y="47" type="line"/>
      <point x="1143" y="233" type="line"/>
      <point x="425" y="579" type="line"/>
      <point x="431" y="567" type="line"/>
      <point x="431" y="596" type="line"/>
      <point x="425" y="585" type="line"/>
      <point x="1143" y="931" type="line"/>
      <point x="1143" y="1117" type="line"/>
      <point x="207" y="640" type="line"/>
    </contour>
  </outline>
</glyph>
<glyph name="question" format="2">
  <advance height="2479" width="1039"/>
  <unicode hex="003F"/>
  <outline>
    <contour>
      <point x="381" y="419" type="line"/>
      <point x="556" y="419" type="line"/>
      <point x="556" y="428" type="line" smooth="yes"/>
      <point x="559" y="608"/>
      <point x="605" y="687"/>
      <point x="733" y="767" type="curve" smooth="yes"/>
      <point x="861" y="844"/>
      <point x="937" y="956"/>
      <point x="937" y="1117" type="curve" smooth="yes"/>
      <point x="937" y="1344"/>
      <point x="771" y="1510"/>
      <point x="515" y="1510" type="curve" smooth="yes"/>
      <point x="279" y="1510"/>
      <point x="92" y="1364"/>
      <point x="81" y="1117" type="curve"/>
      <point x="265" y="1117" type="line"/>
      <point x="276" y="1289"/>
      <point x="396" y="1359"/>
      <point x="515" y="1359" type="curve" smooth="yes"/>
      <point x="652" y="1359"/>
      <point x="762" y="1268"/>
      <point x="762" y="1126" type="curve" smooth="yes"/>
      <point x="762" y="1010"/>
      <point x="696" y="927"/>
      <point x="611" y="876" type="curve" smooth="yes"/>
      <point x="468" y="789"/>
      <point x="383" y="705"/>
      <point x="381" y="428" type="curve" smooth="yes"/>
    </contour>
    <component base="period" xOffset="192"/>
  </outline>
</glyph>
<glyph name="at" format="2">
  <advance height="2479" width="1917"/>
  <unicode hex="0040"/>
  <outline>
    <contour>
      <point x="1015" y="-393" type="curve" smooth="yes"/>
      <point x="1164" y="-393"/>
      <point x="1353" y="-349"/>
      <point x="1443" y="-311" type="curve"/>
      <point x="1402" y="-177" type="line"/>
      <point x="1350" y="-195"/>
      <point x="1181" y="-253"/>
      <point x="1021" y="-253" type="curve" smooth="yes"/>
      <point x="524" y="-253"/>
      <point x="259" y="26"/>
      <point x="259" y="521" type="curve" smooth="yes"/>
      <point x="259" y="1007"/>
      <point x="529" y="1297"/>
      <point x="986" y="1297" type="curve" smooth="yes"/>
      <point x="1449" y="1297"/>
      <point x="1667" y="972"/>
      <point x="1667" y="646" type="curve" smooth="yes"/>
      <point x="1667" y="314"/>
      <point x="1632" y="166"/>
      <point x="1484" y="166" type="curve" smooth="yes"/>
      <point x="1396" y="166"/>
      <point x="1350" y="239"/>
      <point x="1350" y="320" type="curve" smooth="yes"/>
      <point x="1350" y="977" type="line"/>
      <point x="1196" y="977" type="line"/>
      <point x="1196" y="896" type="line"/>
      <point x="1187" y="896" type="line"/>
      <point x="1167" y="960"/>
      <point x="1053" y="1015"/>
      <point x="908" y="1001" type="curve" smooth="yes"/>
      <point x="689" y="977"/>
      <point x="524" y="797"/>
      <point x="524" y="535" type="curve" smooth="yes"/>
      <point x="524" y="259"/>
      <point x="655" y="47"/>
      <point x="908" y="38" type="curve" smooth="yes"/>
      <point x="1073" y="32"/>
      <point x="1161" y="113"/>
      <point x="1196" y="198" type="curve"/>
      <point x="1204" y="198" type="line"/>
      <point x="1222" y="73"/>
      <point x="1379" y="29"/>
      <point x="1481" y="29" type="curve" smooth="yes"/>
      <point x="1789" y="29"/>
      <point x="1818" y="361"/>
      <point x="1818" y="643" type="curve" smooth="yes"/>
      <point x="1818" y="1041"/>
      <point x="1539" y="1434"/>
      <point x="995" y="1434" type="curve" smooth="yes"/>
      <point x="433" y="1434"/>
      <point x="99" y="1094"/>
      <point x="99" y="527" type="curve" smooth="yes"/>
      <point x="99" y="-61"/>
      <point x="422" y="-393"/>
    </contour>
    <contour>
      <point x="931" y="186" type="curve" smooth="yes"/>
      <point x="742" y="186"/>
      <point x="675" y="358"/>
      <point x="675" y="544" type="curve" smooth="yes"/>
      <point x="675" y="713"/>
      <point x="771" y="858"/>
      <point x="937" y="858" type="curve" smooth="yes"/>
      <point x="1111" y="858"/>
      <point x="1204" y="788"/>
      <point x="1204" y="544" type="curve" smooth="yes"/>
      <point x="1204" y="303"/>
      <point x="1126" y="186"/>
    </contour>
  </outline>
</glyph>
<glyph name="A" format="2">
  <advance height="2479" width="1385"/>
  <unicode hex="0041"/>
  <anchor x="692" y="0" name="bottom"/>
  <anchor x="1332" y="0" name="ogonek"/>
  <anchor x="495" y="1489" name="tonos"/>
  <anchor x="692" y="1676" name="top"/>
  <outline>
    <contour>
      <point x="241" y="0" type="line"/>
      <point x="687" y="1254" type="line"/>
      <point x="698" y="1254" type="line"/>
      <point x="1143" y="0" type="line"/>
      <point x="1332" y="0" type="line"/>
      <point x="785" y="1489" type="line"/>
      <point x="599" y="1489" type="line"/>
      <point x="52" y="0" type="line"/>
    </contour>
    <contour>
      <point x="311" y="582" type="line"/>
      <point x="311" y="422" type="line"/>
      <point x="1073" y="422" type="line"/>
      <point x="1073" y="582" type="line"/>
    </contour>
  </outline>
</glyph>
<glyph name="G" format="2">
  <advance height="2479" width="1521"/>
  <unicode hex="0047"/>
  <anchor x="771" y="0" name="bottom"/>
  <anchor x="774" y="1676" name="top"/>
  <outline>
    <contour>
      <point x="1199" y="1024" type="curve"/>
      <point x="1385" y="1024" type="line"/>
      <point x="1329" y="1312"/>
      <point x="1088" y="1510"/>
      <point x="774" y="1510" type="curve" smooth="yes"/>
      <point x="392" y="1510"/>
      <point x="122" y="1216"/>
      <point x="122" y="745" type="curve" smooth="yes"/>
      <point x="122" y="273"/>
      <point x="390" y="-20"/>
      <point x="785" y="-20" type="curve" smooth="yes"/>
      <point x="1140" y="-20"/>
      <point x="1393" y="216"/>
      <point x="1393" y="585" type="curve" smooth="yes"/>
      <point x="1393" y="745" type="line"/>
      <point x="826" y="745" type="line"/>
      <point x="826" y="585" type="line"/>
      <point x="1274" y="585" type="line"/>
      <point x="1219" y="596" type="line"/>
      <point x="1219" y="322"/>
      <point x="1041" y="148"/>
      <point x="785" y="148" type="curve" smooth="yes"/>
      <point x="509" y="148"/>
      <point x="297" y="358"/>
      <point x="297" y="745" type="curve" smooth="yes"/>
      <point x="297" y="1132"/>
      <point x="509" y="1341"/>
      <point x="774" y="1341" type="curve" smooth="yes"/>
      <point x="989" y="1341"/>
      <point x="1135" y="1220"/>
    </contour>
  </outline>
</glyph>
<glyph name="H" format="2">
  <advance height="2479" width="1516"/>
  <unicode hex="0048"/>
  <anchor x="756" y="0" name="bottom"/>
  <anchor x="294" y="-3" name="cedilla"/>
  <anchor x="1402" y="64" name="cyrtic"/>
  <anchor x="1335" y="0" name="right"/>
  <anchor x="145" y="1489" name="tonos"/>
  <anchor x="765" y="1679" name="top"/>
  <outline>
    <contour>
      <point x="180" y="0" type="line"/>
      <point x="361" y="0" type="line"/>
      <point x="361" y="666" type="line"/>
      <point x="1155" y="666" type="line"/>
      <point x="1155" y="0" type="line"/>
      <point x="1335" y="0" type="line"/>
      <point x="1335" y="1489" type="line"/>
      <point x="1155" y="1489" type="line"/>
      <point x="1155" y="826" type="line"/>
      <point x="361" y="826" type="line"/>
      <point x="361" y="1489" type="line"/>
      <point x="180" y="1489" type="line"/>
    </contour>
  </outline>
</glyph>
<glyph name="K" format="2">
  <advance height="2479" width="1335"/>
  <unicode hex="004B"/>
  <anchor x="669" y="0" name="bottom"/>
  <anchor x="675" y="1676" name="top"/>
  <outline>
    <contour>
      <point x="180" y="0" type="line"/>
      <point x="361" y="0" type="line"/>
      <point x="361" y="483" type="line"/>
      <point x="547" y="692" type="line"/>
      <point x="1065" y="0" type="line"/>
      <point x="1283" y="0" type="line"/>
      <point x="657" y="817" type="line"/>
      <point x="1283" y="1489" type="line"/>
      <point x="1047" y="1489" type="line"/>
      <point x="378" y="751" type="line"/>
      <point x="361" y="751" type="line"/>
      <point x="361" y="1489" type="line"/>
      <point x="180" y="1489" type="line"/>
    </contour>
  </outline>
</glyph>
<glyph name="N" format="2">
  <advance height="2479" width="1542"/>
  <unicode hex="004E"/>
  <anchor x="771" y="0" name="bottom"/>
  <anchor x="1359" y="0" name="right"/>
  <anchor x="771" y="1676" name="top"/>
  <outline>
    <contour>
      <point x="1361" y="1489" type="line"/>
      <point x="1184" y="1489" type="line"/>
      <point x="1184" y="317" type="line"/>
      <point x="1169" y="317" type="line"/>
      <point x="355" y="1489" type="line"/>
      <point x="180" y="1489" type="line"/>
      <point x="180" y="0" type="line"/>
      <point x="361" y="0" type="line"/>
      <point x="361" y="1169" type="line"/>
      <point x="375" y="1169" type="line"/>
      <point x="1187" y="0" type="line"/>
      <point x="1361" y="0" type="line"/>
    </contour>
  </outline>
</glyph>
<glyph name="Q" format="2">
  <advance height="2479" width="1559"/>
  <unicode hex="0051"/>
  <anchor x="780" y="0" name="bottom"/>
  <anchor x="922" y="-6" name="ogonek"/>
  <anchor x="198" y="1489" name="tonos"/>
  <anchor x="780" y="1676" name="top"/>
  <outline>
    <contour>
      <point x="721" y="465" type="line"/>
      <point x="975" y="134" type="line"/>
      <point x="1015" y="79" type="line"/>
      <point x="1178" y="-140" type="line"/>
      <point x="1376" y="-140" type="line"/>
      <point x="1129" y="189" type="line"/>
      <point x="1085" y="247" type="line"/>
      <point x="919" y="465" type="line"/>
    </contour>
    <component base="O"/>
  </outline>
</glyph>
<glyph name="R" format="2">
  <advance height="2479" width="1309"/>
  <unicode hex="0052"/>
  <anchor x="672" y="0" name="bottom"/>
  <anchor x="646" y="1676" name="top"/>
  <outline>
    <contour>
      <point x="180" y="0" type="line"/>
      <point x="361" y="0" type="line"/>
      <point x="361" y="1329" type="line"/>
      <point x="678" y="1329" type="line" smooth="yes"/>
      <point x="919" y="1329"/>
      <point x="1012" y="1212"/>
      <point x="1012" y="1033" type="curve" smooth="yes"/>
      <point x="1012" y="854"/>
      <point x="919" y="745"/>
      <point x="681" y="745" type="curve" smooth="yes"/>
      <point x="279" y="745" type="line"/>
      <point x="279" y="582" type="line"/>
      <point x="687" y="582" type="line" smooth="yes"/>
      <point x="1033" y="582"/>
      <point x="1190" y="769"/>
      <point x="1190" y="1033" type="curve" smooth="yes"/>
      <point x="1190" y="1296"/>
      <point x="1033" y="1489"/>
      <point x="684" y="1489" type="curve" smooth="yes"/>
      <point x="180" y="1489" type="line"/>
    </contour>
    <contour>
      <point x="881" y="669" type="line"/>
      <point x="678" y="669" type="line"/>
      <point x="1039" y="0" type="line"/>
      <point x="1248" y="0" type="line"/>
    </contour>
  </outline>
</glyph>
<glyph name="S" format="2">
  <advance height="2479" width="1306"/>
  <unicode hex="0053"/>
  <anchor x="655" y="-26" name="bottom"/>
  <anchor x="655" y="0" name="cedilla"/>
  <anchor x="652" y="1676" name="top"/>
  <outline>
    <contour>
      <point x="995" y="1117" type="curve"/>
      <point x="1169" y="1117" type="line"/>
      <point x="1161" y="1342"/>
      <point x="954" y="1510"/>
      <point x="666" y="1510" type="curve" smooth="yes"/>
      <point x="381" y="1510"/>
      <point x="157" y="1344"/>
      <point x="157" y="1094" type="curve" smooth="yes"/>
      <point x="157" y="893"/>
      <point x="303" y="774"/>
      <point x="535" y="707" type="curve" smooth="yes"/>
      <point x="719" y="655" type="line" smooth="yes"/>
      <point x="876" y="611"/>
      <point x="1015" y="556"/>
      <point x="1015" y="407" type="curve" smooth="yes"/>
      <point x="1015" y="244"/>
      <point x="858" y="137"/>
      <point x="652" y="137" type="curve" smooth="yes"/>
      <point x="474" y="137"/>
      <point x="317" y="215"/>
      <point x="303" y="384" type="curve"/>
      <point x="116" y="384" type="line"/>
      <point x="134" y="140"/>
      <point x="332" y="-26"/>
      <point x="652" y="-26" type="curve" smooth="yes"/>
      <point x="995" y="-26"/>
      <point x="1190" y="163"/>
      <point x="1190" y="404" type="curve" smooth="yes"/>
      <point x="1190" y="684"/>
      <point x="925" y="774"/>
      <point x="771" y="815" type="curve" smooth="yes"/>
      <point x="620" y="855" type="line" smooth="yes"/>
      <point x="509" y="884"/>
      <point x="332" y="943"/>
      <point x="332" y="1103" type="curve" smooth="yes"/>
      <point x="332" y="1245"/>
      <point x="463" y="1350"/>
      <point x="660" y="1350" type="curve" smooth="yes"/>
      <point x="841" y="1350"/>
      <point x="977" y="1264"/>
    </contour>
  </outline>
</glyph>
<glyph name="T" format="2">
  <advance height="2479" width="1315"/>
  <unicode hex="0054"/>
  <anchor x="657" y="0" name="bottom"/>
  <anchor x="681" y="0" name="cedilla"/>
  <anchor x="657" y="768" name="cross"/>
  <anchor x="829" y="64" name="cyrtic"/>
  <anchor x="698" y="0" name="right"/>
  <anchor x="657" y="1676" name="top"/>
  <outline>
    <contour>
      <point x="99" y="1329" type="line"/>
      <point x="567" y="1329" type="line"/>
      <point x="567" y="0" type="line"/>
      <point x="748" y="0" type="line"/>
      <point x="748" y="1329" type="line"/>
      <point x="1216" y="1329" type="line"/>
      <point x="1216" y="1489" type="line"/>
      <point x="99" y="1489" type="line"/>
    </contour>
  </outline>
</glyph>
<glyph name="U" format="2">
  <advance height="2479" width="1519"/>
  <unicode hex="0055"/>
  <anchor x="759" y="-20" name="bottom"/>
  <anchor x="902" y="0" name="ogonek"/>
  <anchor x="844" y="0" name="right"/>
  <anchor x="759" y="1676" name="top"/>
  <outline>
    <contour>
      <point x="1158" y="1489" type="line"/>
      <point x="1158" y="518" type="line" smooth="yes"/>
      <point x="1158" y="300"/>
      <point x="1008" y="143"/>
      <point x="759" y="143" type="curve" smooth="yes"/>
      <point x="511" y="143"/>
      <point x="361" y="300"/>
      <point x="361" y="518" type="curve" smooth="yes"/>
      <point x="361" y="1489" type="line"/>
      <point x="180" y="1489" type="line"/>
      <point x="180" y="503" type="line" smooth="yes"/>
      <point x="180" y="198"/>
      <point x="409" y="-26"/>
      <point x="759" y="-26" type="curve" smooth="yes"/>
      <point x="1110" y="-26"/>
      <point x="1338" y="198"/>
      <point x="1338" y="503" type="curve" smooth="yes"/>
      <point x="1338" y="1489" type="line"/>
    </contour>
  </outline>
</glyph>
<glyph name="Y" format="2">
  <advance height="2479" width="1361"/>
  <unicode hex="0059"/>
  <anchor x="681" y="0" name="bottom"/>
  <anchor x="681" y="593" name="cross"/>
  <anchor x="771" y="0" name="ogonek"/>
  <anchor x="-3" y="1489" name="tonos"/>
  <anchor x="681" y="1676" name="top"/>
  <outline>
    <contour>
      <point x="52" y="1489" type="line"/>
      <point x="591" y="614" type="line"/>
      <point x="591" y="0" type="line"/>
      <point x="771" y="0" type="line"/>
      <point x="771" y="614" type="line"/>
      <point x="1309" y="1489" type="line"/>
      <point x="1103" y="1489" type="line"/>
      <point x="689" y="794" type="line"/>
      <point x="672" y="794" type="line"/>
      <point x="259" y="1489" type="line"/>
    </contour>
  </outline>
</glyph>
<glyph name="Z" format="2">
  <advance height="2479" width="1280"/>
  <unicode hex="005A"/>
  <anchor x="634" y="0" name="bottom"/>
  <anchor x="655" y="768" name="cross"/>
  <anchor x="640" y="1676" name="top"/>
  <outline>
    <contour>
      <point x="131" y="0" type="line"/>
      <point x="1158" y="0" type="line"/>
      <point x="1158" y="160" type="line"/>
      <point x="346" y="160" type="line"/>
      <point x="1149" y="1359" type="line"/>
      <point x="1149" y="1489" type="line"/>
      <point x="122" y="1489" type="line"/>
      <point x="122" y="1329" type="line"/>
      <point x="934" y="1329" type="line"/>
      <point x="131" y="131" type="line"/>
    </contour>
  </outline>
</glyph>
<glyph name="underscore" format="2">
  <advance height="2479" width="925"/>
  <unicode hex="005F"/>
  <anchor x="460" y="157" name="_bottom"/>
  <outline>
    <contour>
      <point x="928" y="0" type="line"/>
      <point x="-3" y="0" type="line"/>
      <point x="-3" y="-160" type="line"/>
      <point x="928" y="-160" type="line"/>
    </contour>
  </outline>
</glyph>
<glyph name="b" format="2">
  <advance height="2479" width="1271"/>
  <unicode hex="0062"/>
  <anchor x="689" y="0" name="bottom"/>
  <anchor x="268" y="1280" name="cross"/>
  <anchor x="687" y="1303" name="top"/>
  <outline>
    <contour>
      <point x="180" y="0" type="line"/>
      <point x="346" y="0" type="line"/>
      <point x="346" y="172" type="line"/>
      <point x="367" y="172" type="line"/>
      <point x="404" y="111"/>
      <point x="477" y="-23"/>
      <point x="692" y="-23" type="curve" smooth="yes"/>
      <point x="972" y="-23"/>
      <point x="1167" y="201"/>
      <point x="1167" y="556" type="curve" smooth="yes"/>
      <point x="1167" y="908"/>
      <point x="972" y="1132"/>
      <point x="689" y="1132" type="curve" smooth="yes"/>
      <point x="471" y="1132"/>
      <point x="404" y="998"/>
      <point x="367" y="940" type="curve"/>
      <point x="352" y="940" type="line"/>
      <point x="352" y="1489" type="line"/>
      <point x="180" y="1489" type="line"/>
    </contour>
    <contour>
      <point x="349" y="559" type="curve" smooth="yes"/>
      <point x="349" y="809"/>
      <point x="460" y="977"/>
      <point x="669" y="977" type="curve" smooth="yes"/>
      <point x="887" y="977"/>
      <point x="995" y="794"/>
      <point x="995" y="559" type="curve" smooth="yes"/>
      <point x="995" y="320"/>
      <point x="884" y="131"/>
      <point x="669" y="131" type="curve" smooth="yes"/>
      <point x="463" y="131"/>
      <point x="349" y="305"/>
    </contour>
  </outline>
</glyph>
<glyph name="g" format="2">
  <advance height="2479" width="1248"/>
  <unicode hex="0067"/>
  <anchor x="623" y="-442" name="bottom"/>
  <anchor x="1009" y="564" name="cross"/>
  <anchor x="625" y="1303" name="top"/>
  <outline>
    <contour>
      <point x="608" y="-442" type="curve" smooth="yes"/>
      <point x="876" y="-442"/>
      <point x="1091" y="-320"/>
      <point x="1091" y="-32" type="curve" smooth="yes"/>
      <point x="1091" y="1117" type="line"/>
      <point x="925" y="1117" type="line"/>
      <point x="925" y="940" type="line"/>
      <point x="908" y="940" type="line"/>
      <point x="870" y="998"/>
      <point x="800" y="1132"/>
      <point x="582" y="1132" type="curve" smooth="yes"/>
      <point x="300" y="1132"/>
      <point x="105" y="908"/>
      <point x="105" y="564" type="curve" smooth="yes"/>
      <point x="105" y="215"/>
      <point x="308" y="17"/>
      <point x="579" y="17" type="curve" smooth="yes"/>
      <point x="797" y="17"/>
      <point x="867" y="145"/>
      <point x="905" y="207" type="curve"/>
      <point x="919" y="207" type="line"/>
      <point x="919" y="-20" type="line" smooth="yes"/>
      <point x="919" y="-207"/>
      <point x="788" y="-291"/>
      <point x="608" y="-291" type="curve" smooth="yes"/>
      <point x="405" y="-291"/>
      <point x="334" y="-184"/>
      <point x="288" y="-122" type="curve"/>
      <point x="151" y="-218" type="line"/>
      <point x="221" y="-335"/>
      <point x="359" y="-442"/>
    </contour>
    <contour>
      <point x="602" y="172" type="curve" smooth="yes"/>
      <point x="387" y="172"/>
      <point x="276" y="335"/>
      <point x="276" y="567" type="curve" smooth="yes"/>
      <point x="276" y="794"/>
      <point x="384" y="977"/>
      <point x="602" y="977" type="curve" smooth="yes"/>
      <point x="812" y="977"/>
      <point x="922" y="809"/>
      <point x="922" y="567" type="curve" smooth="yes"/>
      <point x="922" y="320"/>
      <point x="809" y="172"/>
    </contour>
  </outline>
</glyph>
<glyph name="k" format="2">
  <advance height="2479" width="1114"/>
  <unicode hex="006B"/>
  <anchor x="576" y="0" name="bottom"/>
  <anchor x="244" y="1676" name="top"/>
  <outline>
    <contour>
      <point x="317" y="407" type="line"/>
      <point x="515" y="591" type="line"/>
      <point x="529" y="591" type="line"/>
      <point x="1050" y="1117" type="line"/>
      <point x="838" y="1117" type="line"/>
      <point x="349" y="620" type="line"/>
      <point x="314" y="620" type="line"/>
    </contour>
    <contour>
      <point x="157" y="0" type="line"/>
      <point x="329" y="0" type="line"/>
      <point x="329" y="1489" type="line"/>
      <point x="157" y="1489" type="line"/>
    </contour>
    <contour>
      <point x="867" y="0" type="line"/>
      <point x="1085" y="0" type="line"/>
      <point x="553" y="672" type="line"/>
      <point x="431" y="553" type="line"/>
    </contour>
  </outline>
</glyph>
<glyph name="n" format="2">
  <advance height="2479" width="1199"/>
  <unicode hex="006E"/>
  <anchor x="599" y="0" name="bottom"/>
  <anchor x="599" y="1303" name="top"/>
  <outline>
    <contour>
      <point x="329" y="672" type="line" smooth="yes"/>
      <point x="329" y="867"/>
      <point x="449" y="977"/>
      <point x="614" y="977" type="curve" smooth="yes"/>
      <point x="773" y="977"/>
      <point x="870" y="873"/>
      <point x="870" y="698" type="curve" smooth="yes"/>
      <point x="870" y="0" type="line"/>
      <point x="1041" y="0" type="line"/>
      <point x="1041" y="710" type="line" smooth="yes"/>
      <point x="1041" y="995"/>
      <point x="889" y="1132"/>
      <point x="663" y="1132" type="curve" smooth="yes"/>
      <point x="495" y="1132"/>
      <point x="390" y="1056"/>
      <point x="337" y="943" type="curve"/>
      <point x="323" y="943" type="line"/>
      <point x="323" y="1117" type="line"/>
      <point x="157" y="1117" type="line"/>
      <point x="157" y="0" type="line"/>
      <point x="329" y="0" type="line"/>
    </contour>
  </outline>
</glyph>
<glyph name="p" format="2">
  <advance height="2479" width="1248"/>
  <unicode hex="0070"/>
  <anchor x="241" y="-419" name="bottom"/>
  <anchor x="1236" y="-495" name="bottom0315"/>
  <anchor x="244" y="-163" name="cross"/>
  <anchor x="657" y="1303" name="top"/>
  <outline>
    <contour>
      <point x="157" y="-419" type="line"/>
      <point x="329" y="-419" type="line"/>
      <point x="329" y="172" type="line"/>
      <point x="343" y="172" type="line"/>
      <point x="381" y="111"/>
      <point x="454" y="-23"/>
      <point x="669" y="-23" type="curve" smooth="yes"/>
      <point x="948" y="-23"/>
      <point x="1143" y="201"/>
      <point x="1143" y="556" type="curve" smooth="yes"/>
      <point x="1143" y="908"/>
      <point x="948" y="1132"/>
      <point x="666" y="1132" type="curve" smooth="yes"/>
      <point x="448" y="1132"/>
      <point x="381" y="998"/>
      <point x="343" y="940" type="curve"/>
      <point x="323" y="940" type="line"/>
      <point x="323" y="1117" type="line"/>
      <point x="157" y="1117" type="line"/>
    </contour>
    <contour>
      <point x="326" y="559" type="curve" smooth="yes"/>
      <point x="326" y="809"/>
      <point x="436" y="977"/>
      <point x="646" y="977" type="curve" smooth="yes"/>
      <point x="864" y="977"/>
      <point x="972" y="794"/>
      <point x="972" y="559" type="curve" smooth="yes"/>
      <point x="972" y="320"/>
      <point x="861" y="131"/>
      <point x="646" y="131" type="curve" smooth="yes"/>
      <point x="439" y="131"/>
      <point x="326" y="305"/>
    </contour>
  </outline>
</glyph>
<glyph name="q" format="2">
  <advance height="2479" width="1248"/>
  <unicode hex="0071"/>
  <anchor x="1007" y="-419" name="bottom"/>
  <anchor x="1004" y="-163" name="cross"/>
  <anchor x="591" y="1303" name="top"/>
  <outline>
    <contour>
      <point x="919" y="-419" type="line"/>
      <point x="1091" y="-419" type="line"/>
      <point x="1091" y="1117" type="line"/>
      <point x="925" y="1117" type="line"/>
      <point x="925" y="940" type="line"/>
      <point x="905" y="940" type="line"/>
      <point x="867" y="998"/>
      <point x="800" y="1132"/>
      <point x="582" y="1132" type="curve" smooth="yes"/>
      <point x="300" y="1132"/>
      <point x="105" y="908"/>
      <point x="105" y="556" type="curve" smooth="yes"/>
      <point x="105" y="201"/>
      <point x="300" y="-23"/>
      <point x="579" y="-23" type="curve" smooth="yes"/>
      <point x="794" y="-23"/>
      <point x="867" y="111"/>
      <point x="905" y="172" type="curve"/>
      <point x="919" y="172" type="line"/>
    </contour>
    <contour>
      <point x="602" y="131" type="curve" smooth="yes"/>
      <point x="387" y="131"/>
      <point x="276" y="320"/>
      <point x="276" y="559" type="curve" smooth="yes"/>
      <point x="276" y="794"/>
      <point x="384" y="977"/>
      <point x="602" y="977" type="curve" smooth="yes"/>
      <point x="812" y="977"/>
      <point x="922" y="809"/>
      <point x="922" y="559" type="curve" smooth="yes"/>
      <point x="922" y="305"/>
      <point x="809" y="131"/>
    </contour>
  </outline>
</glyph>
<glyph name="s" format="2">
  <advance height="2479" width="1071"/>
  <unicode hex="0073"/>
  <anchor x="547" y="0" name="bottom"/>
  <anchor x="544" y="0" name="cedilla"/>
  <anchor x="553" y="1303" name="top"/>
  <outline>
    <contour>
      <point x="948" y="867" type="line"/>
      <point x="895" y="1025"/>
      <point x="774" y="1132"/>
      <point x="553" y="1132" type="curve" smooth="yes"/>
      <point x="317" y="1132"/>
      <point x="143" y="998"/>
      <point x="143" y="809" type="curve" smooth="yes"/>
      <point x="143" y="655"/>
      <point x="234" y="551"/>
      <point x="439" y="503" type="curve" smooth="yes"/>
      <point x="625" y="460" type="line" smooth="yes"/>
      <point x="738" y="433"/>
      <point x="791" y="380"/>
      <point x="791" y="303" type="curve" smooth="yes"/>
      <point x="791" y="207"/>
      <point x="689" y="128"/>
      <point x="529" y="128" type="curve" smooth="yes"/>
      <point x="389" y="128"/>
      <point x="301" y="188"/>
      <point x="271" y="308" type="curve"/>
      <point x="108" y="268" type="line"/>
      <point x="148" y="78"/>
      <point x="304" y="-23"/>
      <point x="532" y="-23" type="curve" smooth="yes"/>
      <point x="792" y="-23"/>
      <point x="969" y="119"/>
      <point x="969" y="311" type="curve" smooth="yes"/>
      <point x="969" y="467"/>
      <point x="871" y="565"/>
      <point x="672" y="614" type="curve" smooth="yes"/>
      <point x="506" y="655" type="line" smooth="yes"/>
      <point x="374" y="687"/>
      <point x="314" y="732"/>
      <point x="314" y="817" type="curve" smooth="yes"/>
      <point x="314" y="913"/>
      <point x="416" y="983"/>
      <point x="553" y="983" type="curve" smooth="yes"/>
      <point x="703" y="983"/>
      <point x="764" y="900"/>
      <point x="794" y="823" type="curve"/>
    </contour>
  </outline>
</glyph>
<glyph name="t" format="2">
  <advance height="2479" width="745"/>
  <unicode hex="0074"/>
  <anchor x="528" y="1562" name="raccent"/>
  <anchor x="416" y="0" name="bottom"/>
  <anchor x="500" y="0" name="cedilla"/>
  <anchor x="320" y="1489" name="top"/>
  <outline>
    <contour>
      <point x="643" y="1117" type="line"/>
      <point x="64" y="1117" type="line"/>
      <point x="64" y="972" type="line"/>
      <point x="643" y="972" type="line"/>
    </contour>
    <component base="_part.t_base"/>
  </outline>
</glyph>
<glyph name="v" format="2">
  <advance height="2479" width="1140"/>
  <unicode hex="0076"/>
  <anchor x="570" y="0" name="bottom"/>
  <anchor x="570" y="1303" name="top"/>
  <outline>
    <contour>
      <point x="1071" y="1117" type="line"/>
      <point x="884" y="1117" type="line"/>
      <point x="576" y="227" type="line"/>
      <point x="564" y="227" type="line"/>
      <point x="256" y="1117" type="line"/>
      <point x="70" y="1117" type="line"/>
      <point x="483" y="0" type="line"/>
      <point x="657" y="0" type="line"/>
    </contour>
  </outline>
</glyph>
<glyph name="x" format="2">
  <advance height="2479" width="1105"/>
  <unicode hex="0078"/>
  <anchor x="553" y="0" name="bottom"/>
  <anchor x="553" y="559" name="cross"/>
  <anchor x="989" y="64" name="cyrtic"/>
  <anchor x="861" y="0" name="right"/>
  <anchor x="553" y="1303" name="top"/>
  <outline>
    <contour>
      <point x="285" y="1117" type="line"/>
      <point x="87" y="1117" type="line"/>
      <point x="442" y="559" type="line"/>
      <point x="87" y="0" type="line"/>
      <point x="285" y="0" type="line"/>
      <point x="553" y="433" type="line"/>
      <point x="820" y="0" type="line"/>
      <point x="1018" y="0" type="line"/>
      <point x="657" y="559" type="line"/>
      <point x="1018" y="1117" type="line"/>
      <point x="820" y="1117" type="line"/>
      <point x="553" y="660" type="line"/>
    </contour>
  </outline>
</glyph>
<glyph name="z" format="2">
  <advance height="2479" width="1108"/>
  <unicode hex="007A"/>
  <anchor x="547" y="0" name="bottom"/>
  <anchor x="553" y="559" name="cross"/>
  <anchor x="553" y="1303" name="top"/>
  <outline>
    <contour>
      <point x="125" y="0" type="line"/>
      <point x="1001" y="0" type="line"/>
      <point x="1001" y="160" type="line"/>
      <point x="364" y="160" type="line"/>
      <point x="364" y="172" type="line"/>
      <point x="980" y="980" type="line"/>
      <point x="980" y="1117" type="line"/>
      <point x="145" y="1117" type="line"/>
      <point x="145" y="957" type="line"/>
      <point x="759" y="957" type="line"/>
      <point x="759" y="945" type="line"/>
      <point x="125" y="131" type="line"/>
    </contour>
  </outline>
</glyph>
<glyph name="braceleft" format="2">
  <advance height="2479" width="742"/>
  <unicode hex="007B"/>
  <outline>
    <contour>
      <point x="76" y="625" type="line"/>
      <point x="390" y="625"/>
      <point x="451" y="727"/>
      <point x="451" y="879" type="curve" smooth="yes"/>
      <point x="451" y="1169" type="line" smooth="yes"/>
      <point x="451" y="1340"/>
      <point x="503" y="1417"/>
      <point x="672" y="1417" type="curve"/>
      <point x="672" y="1559" type="line"/>
      <point x="387" y="1559"/>
      <point x="294" y="1437"/>
      <point x="294" y="1169" type="curve" smooth="yes"/>
      <point x="294" y="937" type="line" smooth="yes"/>
      <point x="294" y="777"/>
      <point x="238" y="716"/>
      <point x="76" y="716" type="curve"/>
    </contour>
    <contour>
      <point x="672" y="-303" type="curve"/>
      <point x="672" y="-160" type="line"/>
      <point x="503" y="-160"/>
      <point x="451" y="-83"/>
      <point x="451" y="87" type="curve" smooth="yes"/>
      <point x="451" y="378" type="line" smooth="yes"/>
      <point x="451" y="529"/>
      <point x="390" y="631"/>
      <point x="76" y="631" type="curve"/>
      <point x="76" y="541" type="line"/>
      <point x="238" y="541"/>
      <point x="294" y="479"/>
      <point x="294" y="320" type="curve" smooth="yes"/>
      <point x="294" y="87" type="line" smooth="yes"/>
      <point x="294" y="-180"/>
      <point x="387" y="-303"/>
    </contour>
    <contour>
      <point x="76" y="541" type="line"/>
      <point x="247" y="541" type="line"/>
      <point x="247" y="716" type="line"/>
      <point x="76" y="716" type="line"/>
    </contour>
  </outline>
</glyph>
<glyph name="bar" format="2">
  <advance height="2479" width="669"/>
  <unicode hex="007C"/>
  <outline>
    <contour>
      <point x="407" y="1969" type="line"/>
      <point x="262" y="1969" type="line"/>
      <point x="262" y="-480" type="line"/>
      <point x="407" y="-480" type="line"/>
    </contour>
  </outline>
</glyph>
<glyph name="cent" format="2">
  <advance height="2479" width="1143"/>
  <unicode hex="00A2"/>
  <anchor x="605" y="191" name="cedilla"/>
  <anchor x="605" y="1494" name="top"/>
  <outline>
    <contour>
      <point x="541" y="0" type="line"/>
      <point x="660" y="0" type="line"/>
      <point x="660" y="1489" type="line"/>
      <point x="541" y="1489" type="line"/>
    </contour>
    <component base="c" yOffset="191"/>
  </outline>
</glyph>
<glyph name="currency" format="2">
  <advance height="2479" width="1481"/>
  <unicode hex="00A4"/>
  <outline>
    <contour>
      <point x="736" y="-20" type="curve" smooth="yes"/>
      <point x="1065" y="-20"/>
      <point x="1332" y="253"/>
      <point x="1332" y="608" type="curve" smooth="yes"/>
      <point x="1332" y="963"/>
      <point x="1065" y="1233"/>
      <point x="736" y="1233" type="curve" smooth="yes"/>
      <point x="407" y="1233"/>
      <point x="143" y="963"/>
      <point x="143" y="608" type="curve"/>
      <point x="143" y="253"/>
      <point x="407" y="-20"/>
    </contour>
    <contour>
      <point x="736" y="140" type="curve" smooth="yes"/>
      <point x="497" y="140"/>
      <point x="303" y="352"/>
      <point x="303" y="608" type="curve"/>
      <point x="303" y="867"/>
      <point x="497" y="1076"/>
      <point x="736" y="1076" type="curve" smooth="yes"/>
      <point x="975" y="1076"/>
      <point x="1167" y="867"/>
      <point x="1167" y="608" type="curve" smooth="yes"/>
      <point x="1167" y="352"/>
      <point x="975" y="140"/>
    </contour>
    <contour>
      <point x="1158" y="925" type="line"/>
      <point x="1361" y="1132" type="line"/>
      <point x="1242" y="1254" type="line"/>
      <point x="1041" y="1047" type="line"/>
    </contour>
    <contour>
      <point x="1242" y="-15" type="line"/>
      <point x="1361" y="108" type="line"/>
      <point x="1158" y="311" type="line"/>
      <point x="1041" y="192" type="line"/>
    </contour>
    <contour>
      <point x="236" y="-15" type="line"/>
      <point x="439" y="192" type="line"/>
      <point x="320" y="311" type="line"/>
      <point x="119" y="108" type="line"/>
    </contour>
    <contour>
      <point x="320" y="925" type="line"/>
      <point x="439" y="1047" type="line"/>
      <point x="236" y="1254" type="line"/>
      <point x="119" y="1132" type="line"/>
    </contour>
  </outline>
</glyph>
<glyph name="brokenbar" format="2">
  <advance height="2479" width="544"/>
  <unicode hex="00A6"/>
  <outline>
    <contour>
      <point x="192" y="401" type="line"/>
      <point x="192" y="-279" type="line"/>
      <point x="352" y="-279" type="line"/>
      <point x="352" y="401" type="line"/>
    </contour>
    <contour>
      <point x="352" y="1489" type="line"/>
      <point x="192" y="1489" type="line"/>
      <point x="192" y="812" type="line"/>
      <point x="352" y="812" type="line"/>
    </contour>
  </outline>
</glyph>
<glyph name="section" format="2">
  <advance height="2479" width="1129"/>
  <unicode hex="00A7"/>
  <outline>
    <contour>
      <point x="925" y="1137" type="line"/>
      <point x="925" y="1356"/>
      <point x="785" y="1510"/>
      <point x="561" y="1510" type="curve" smooth="yes"/>
      <point x="355" y="1510"/>
      <point x="207" y="1379"/>
      <point x="207" y="1199" type="curve" smooth="yes"/>
      <point x="207" y="1105"/>
      <point x="247" y="1030"/>
      <point x="308" y="969" type="curve"/>
      <point x="308" y="963" type="line"/>
      <point x="189" y="928"/>
      <point x="105" y="803"/>
      <point x="105" y="698" type="curve" smooth="yes"/>
      <point x="105" y="518"/>
      <point x="241" y="419"/>
      <point x="317" y="375" type="curve" smooth="yes"/>
      <point x="599" y="212" type="line" smooth="yes"/>
      <point x="669" y="172"/>
      <point x="756" y="122"/>
      <point x="756" y="12" type="curve" smooth="yes"/>
      <point x="756" y="-96"/>
      <point x="660" y="-148"/>
      <point x="553" y="-148" type="curve" smooth="yes"/>
      <point x="422" y="-148"/>
      <point x="326" y="-70"/>
      <point x="326" y="73" type="curve"/>
      <point x="157" y="73" type="line"/>
      <point x="157" y="-160"/>
      <point x="323" y="-303"/>
      <point x="553" y="-303" type="curve" smooth="yes"/>
      <point x="745" y="-303"/>
      <point x="922" y="-204"/>
      <point x="922" y="12" type="curve" smooth="yes"/>
      <point x="922" y="105"/>
      <point x="890" y="186"/>
      <point x="820" y="247" type="curve"/>
      <point x="820" y="250" type="line"/>
      <point x="931" y="285"/>
      <point x="1024" y="404"/>
      <point x="1024" y="512" type="curve" smooth="yes"/>
      <point x="1024" y="692"/>
      <point x="887" y="788"/>
      <point x="812" y="832" type="curve" smooth="yes"/>
      <point x="529" y="998" type="line" smooth="yes"/>
      <point x="460" y="1039"/>
      <point x="372" y="1111"/>
      <point x="372" y="1199" type="curve" smooth="yes"/>
      <point x="372" y="1271"/>
      <point x="431" y="1356"/>
      <point x="561" y="1356" type="curve" smooth="yes"/>
      <point x="698" y="1356"/>
      <point x="759" y="1263"/>
      <point x="759" y="1137" type="curve"/>
    </contour>
    <contour>
      <point x="864" y="512" type="curve"/>
      <point x="864" y="393"/>
      <point x="736" y="314"/>
      <point x="675" y="349" type="curve" smooth="yes"/>
      <point x="404" y="506" type="line" smooth="yes"/>
      <point x="332" y="550"/>
      <point x="265" y="605"/>
      <point x="265" y="698" type="curve" smooth="yes"/>
      <point x="265" y="820"/>
      <point x="378" y="905"/>
      <point x="442" y="867" type="curve" smooth="yes"/>
      <point x="727" y="701" type="line" smooth="yes"/>
      <point x="797" y="660"/>
      <point x="864" y="596"/>
    </contour>
  </outline>
</glyph>
<glyph name="copyright" format="2">
  <advance height="2479" width="1873"/>
  <unicode hex="00A9"/>
  <outline>
    <contour>
      <point x="512" y="745" type="curve" smooth="yes"/>
      <point x="512" y="506"/>
      <point x="705" y="313"/>
      <point x="944" y="313" type="curve" smooth="yes"/>
      <point x="1151" y="313"/>
      <point x="1309" y="458"/>
      <point x="1337" y="652" type="curve"/>
      <point x="1161" y="652" type="line"/>
      <point x="1140" y="552"/>
      <point x="1056" y="481"/>
      <point x="944" y="481" type="curve" smooth="yes"/>
      <point x="799" y="481"/>
      <point x="681" y="599"/>
      <point x="681" y="745" type="curve" smooth="yes"/>
      <point x="681" y="890"/>
      <point x="799" y="1008"/>
      <point x="944" y="1008" type="curve" smooth="yes"/>
      <point x="1056" y="1008"/>
      <point x="1156" y="937"/>
      <point x="1175" y="838" type="curve"/>
      <point x="1351" y="838" type="line"/>
      <point x="1324" y="1031"/>
      <point x="1151" y="1177"/>
      <point x="944" y="1177" type="curve" smooth="yes"/>
      <point x="705" y="1177"/>
      <point x="512" y="983"/>
    </contour>
    <component base="whiteCircle"/>
  </outline>
</glyph>
<glyph name="twosuperior" format="2">
  <advance height="2479" width="861"/>
  <unicode hex="00B2"/>
  <anchor x="579" y="1219" name="cross"/>
  <outline>
    <contour>
      <point x="102" y="745" type="line"/>
      <point x="774" y="745" type="line"/>
      <point x="774" y="873" type="line"/>
      <point x="329" y="873" type="line"/>
      <point x="329" y="879" type="line"/>
      <point x="518" y="1044" type="line" smooth="yes"/>
      <point x="678" y="1184"/>
      <point x="748" y="1265"/>
      <point x="748" y="1385" type="curve" smooth="yes"/>
      <point x="748" y="1536"/>
      <point x="617" y="1649"/>
      <point x="425" y="1649" type="curve" smooth="yes"/>
      <point x="233" y="1649"/>
      <point x="96" y="1539"/>
      <point x="96" y="1373" type="curve"/>
      <point x="247" y="1373" type="line"/>
      <point x="247" y="1463"/>
      <point x="317" y="1524"/>
      <point x="422" y="1524" type="curve" smooth="yes"/>
      <point x="521" y="1524"/>
      <point x="596" y="1469"/>
      <point x="596" y="1382" type="curve" smooth="yes"/>
      <point x="596" y="1306"/>
      <point x="544" y="1251"/>
      <point x="442" y="1161" type="curve" smooth="yes"/>
      <point x="102" y="858" type="line"/>
    </contour>
  </outline>
</glyph>
<glyph name="cedilla" format="2">
  <advance height="2479" width="547"/>
  <unicode hex="00B8"/>
  <anchor x="279" y="0" name="_cedilla"/>
  <outline>
    <contour>
      <point x="204" y="6" type="line"/>
      <point x="175" y="-137" type="line"/>
      <point x="285" y="-145"/>
      <point x="332" y="-163"/>
      <point x="332" y="-230" type="curve" smooth="yes"/>
      <point x="332" y="-297"/>
      <point x="265" y="-323"/>
      <point x="175" y="-323" type="curve"/>
      <point x="180" y="-436" type="line"/>
      <point x="381" y="-436"/>
      <point x="486" y="-349"/>
      <point x="486" y="-224" type="curve" smooth="yes"/>
      <point x="486" y="-111"/>
      <point x="410" y="-64"/>
      <point x="335" y="-52" type="curve"/>
      <point x="346" y="6" type="line"/>
    </contour>
  </outline>
</glyph>
<glyph name="onesuperior" format="2">
  <advance height="2479" width="641"/>
  <unicode hex="00B9"/>
  <outline>
    <contour>
      <point x="319" y="745" type="line"/>
      <point x="470" y="745" type="line"/>
      <point x="470" y="1638" type="line"/>
      <point x="319" y="1638" type="line"/>
      <point x="81" y="1481" type="line"/>
      <point x="81" y="1327" type="line"/>
      <point x="311" y="1479" type="line"/>
      <point x="319" y="1479" type="line"/>
    </contour>
  </outline>
</glyph>
<glyph name="ordmasculine" format="2">
  <advance height="2479" width="919"/>
  <unicode hex="00BA"/>
  <outline>
    <contour>
      <point x="113" y="1044" type="line"/>
      <point x="113" y="838"/>
      <point x="247" y="692"/>
      <point x="463" y="692" type="curve" smooth="yes"/>
      <point x="675" y="692"/>
      <point x="806" y="838"/>
      <point x="806" y="1044" type="curve"/>
      <point x="806" y="1123" type="line"/>
      <point x="806" y="1329"/>
      <point x="675" y="1478"/>
      <point x="460" y="1478" type="curve" smooth="yes"/>
      <point x="247" y="1478"/>
      <point x="113" y="1329"/>
      <point x="113" y="1123" type="curve"/>
    </contour>
    <contour>
      <point x="288" y="1123" type="line"/>
      <point x="288" y="1239"/>
      <point x="346" y="1329"/>
      <point x="460" y="1329" type="curve" smooth="yes"/>
      <point x="576" y="1329"/>
      <point x="631" y="1239"/>
      <point x="631" y="1123" type="curve"/>
      <point x="631" y="1044" type="line"/>
      <point x="631" y="925"/>
      <point x="576" y="838"/>
      <point x="463" y="838" type="curve" smooth="yes"/>
      <point x="346" y="838"/>
      <point x="288" y="925"/>
      <point x="288" y="1044" type="curve"/>
    </contour>
  </outline>
</glyph>
<glyph name="multiply" format="2">
  <advance height="2479" width="1350"/>
  <unicode hex="00D7"/>
  <outline>
    <contour>
      <point x="1030" y="116" type="line"/>
      <point x="1140" y="227" type="line"/>
      <point x="320" y="1047" type="line"/>
      <point x="209" y="937" type="line"/>
    </contour>
    <contour>
      <point x="320" y="116" type="line"/>
      <point x="1140" y="937" type="line"/>
      <point x="1030" y="1047" type="line"/>
      <point x="209" y="227" type="line"/>
    </contour>
  </outline>
</glyph>
<glyph name="germandbls" format="2">
  <advance height="2479" width="1248"/>
  <unicode hex="00DF"/>
  <outline>
    <contour>
      <point x="180" y="0" type="line"/>
      <point x="352" y="0" type="line"/>
      <point x="352" y="1108" type="line" smooth="yes"/>
      <point x="352" y="1251"/>
      <point x="463" y="1350"/>
      <point x="614" y="1350" type="curve" smooth="yes"/>
      <point x="774" y="1350"/>
      <point x="873" y="1239"/>
      <point x="873" y="1100" type="curve" smooth="yes"/>
      <point x="873" y="965"/>
      <point x="781" y="838"/>
      <point x="634" y="838" type="curve" smooth="yes"/>
      <point x="541" y="838" type="line"/>
      <point x="541" y="675" type="line"/>
      <point x="672" y="675" type="line" smooth="yes"/>
      <point x="849" y="675"/>
      <point x="960" y="564"/>
      <point x="960" y="410" type="curve" smooth="yes"/>
      <point x="960" y="264"/>
      <point x="859" y="160"/>
      <point x="701" y="160" type="curve" smooth="yes"/>
      <point x="535" y="160" type="line"/>
      <point x="535" y="0" type="line"/>
      <point x="698" y="0" type="line" smooth="yes"/>
      <point x="960" y="0"/>
      <point x="1132" y="175"/>
      <point x="1132" y="410" type="curve" smooth="yes"/>
      <point x="1132" y="617"/>
      <point x="998" y="755"/>
      <point x="809" y="774" type="curve"/>
      <point x="809" y="788" type="line"/>
      <point x="948" y="837"/>
      <point x="1044" y="956"/>
      <point x="1044" y="1126" type="curve" smooth="yes"/>
      <point x="1044" y="1364"/>
      <point x="858" y="1510"/>
      <point x="611" y="1510" type="curve" smooth="yes"/>
      <point x="358" y="1510"/>
      <point x="180" y="1357"/>
      <point x="180" y="1108" type="curve" smooth="yes"/>
    </contour>
  </outline>
</glyph>
<glyph name="eth" format="2">
  <advance height="2479" width="1187"/>
  <unicode hex="00F0"/>
  <outline>
    <contour>
      <point x="966" y="1417" type="line"/>
      <point x="916" y="1524" type="line"/>
      <point x="320" y="1236" type="line"/>
      <point x="369" y="1129" type="line"/>
    </contour>
    <contour>
      <point x="593" y="-23" type="curve" smooth="yes"/>
      <point x="887" y="-23"/>
      <point x="1082" y="186"/>
      <point x="1082" y="547" type="curve" smooth="yes"/>
      <point x="1082" y="1056"/>
      <point x="733" y="1414"/>
      <point x="407" y="1583" type="curve"/>
      <point x="332" y="1460" type="line"/>
      <point x="678" y="1283"/>
      <point x="823" y="1039"/>
      <point x="887" y="858" type="curve"/>
      <point x="873" y="858" type="line"/>
      <point x="823" y="945"/>
      <point x="719" y="1047"/>
      <point x="550" y="1047" type="curve" smooth="yes"/>
      <point x="303" y="1047"/>
      <point x="105" y="829"/>
      <point x="105" y="512" type="curve" smooth="yes"/>
      <point x="105" y="201"/>
      <point x="294" y="-23"/>
    </contour>
    <contour>
      <point x="593" y="131" type="curve" smooth="yes"/>
      <point x="369" y="131"/>
      <point x="276" y="314"/>
      <point x="276" y="512" type="curve" smooth="yes"/>
      <point x="276" y="721"/>
      <point x="381" y="905"/>
      <point x="593" y="905" type="curve" smooth="yes"/>
      <point x="823" y="905"/>
      <point x="916" y="689"/>
      <point x="916" y="500" type="curve" smooth="yes"/>
      <point x="916" y="294"/>
      <point x="806" y="131"/>
    </contour>
  </outline>
</glyph>
<glyph name="divide" format="2">
  <advance height="2479" width="1350"/>
  <unicode hex="00F7"/>
  <outline>
    <contour>
      <point x="1140" y="663" type="line"/>
      <point x="209" y="663" type="line"/>
      <point x="209" y="500" type="line"/>
      <point x="1140" y="500" type="line"/>
    </contour>
    <contour>
      <point x="675" y="76" type="curve" smooth="yes"/>
      <point x="745" y="76"/>
      <point x="803" y="134"/>
      <point x="803" y="207" type="curve" smooth="yes"/>
      <point x="803" y="276"/>
      <point x="745" y="335"/>
      <point x="675" y="335" type="curve" smooth="yes"/>
      <point x="602" y="335"/>
      <point x="544" y="276"/>
      <point x="544" y="207" type="curve" smooth="yes"/>
      <point x="544" y="134"/>
      <point x="602" y="76"/>
    </contour>
    <contour>
      <point x="675" y="829" type="curve" smooth="yes"/>
      <point x="745" y="829"/>
      <point x="803" y="887"/>
      <point x="803" y="960" type="curve" smooth="yes"/>
      <point x="803" y="1030"/>
      <point x="745" y="1088"/>
      <point x="675" y="1088" type="curve" smooth="yes"/>
      <point x="602" y="1088"/>
      <point x="544" y="1030"/>
      <point x="544" y="960" type="curve" smooth="yes"/>
      <point x="544" y="887"/>
      <point x="602" y="829"/>
    </contour>
  </outline>
</glyph>
<glyph name="idotless" format="2">
  <advance height="2479" width="486"/>
  <unicode hex="0131"/>
  <anchor x="244" y="0" name="bottom"/>
  <anchor x="244" y="593" name="cross"/>
  <anchor x="329" y="0" name="ogonek"/>
  <anchor x="244" y="1303" name="top"/>
  <outline>
    <contour>
      <point x="157" y="0" type="line"/>
      <point x="329" y="0" type="line"/>
      <point x="329" y="1117" type="line"/>
      <point x="157" y="1117" type="line"/>
    </contour>
  </outline>
</glyph>
<glyph name="eng" format="2">
  <advance height="2479" width="1198"/>
  <unicode hex="014B"/>
  <anchor x="599" y="0" name="bottom"/>
  <anchor x="599" y="1303" name="top"/>
  <outline>
    <contour>
      <point x="870" y="0" type="line"/>
      <point x="870" y="-119" type="line" smooth="yes"/>
      <point x="870" y="-236"/>
      <point x="800" y="-271"/>
      <point x="707" y="-271" type="curve" smooth="yes"/>
      <point x="687" y="-271"/>
      <point x="666" y="-268"/>
      <point x="652" y="-265" type="curve"/>
      <point x="652" y="-410" type="line"/>
      <point x="678" y="-419"/>
      <point x="716" y="-419"/>
      <point x="751" y="-419" type="curve" smooth="yes"/>
      <point x="913" y="-419"/>
      <point x="1041" y="-311"/>
      <point x="1041" y="-119" type="curve" smooth="yes"/>
      <point x="1041" y="0" type="line"/>
    </contour>
    <component base="n"/>
  </outline>
</glyph>
<glyph name="btopbar" format="2">
  <advance height="2479" width="1271"/>
  <unicode hex="0183"/>
  <anchor x="689" y="0" name="bottom"/>
  <anchor x="268" y="1280" name="cross"/>
  <anchor x="687" y="1303" name="top"/>
  <outline>
    <contour>
      <point x="1018" y="1489" type="line"/>
      <point x="329" y="1489" type="line"/>
      <point x="329" y="1329" type="line"/>
      <point x="1018" y="1329" type="line"/>
    </contour>
    <component base="b"/>
  </outline>
</glyph>
<glyph name="Tonesix" format="2">
  <advance height="2479" width="1463"/>
  <unicode hex="0184"/>
  <outline>
    <contour>
      <point x="550" y="1489" type="line"/>
      <point x="20" y="1489" type="line"/>
      <point x="20" y="1329" type="line"/>
      <point x="550" y="1329" type="line"/>
    </contour>
    <contour>
      <point x="503" y="864" type="line"/>
      <point x="503" y="704" type="line"/>
      <point x="928" y="704" type="line"/>
      <point x="1132" y="704"/>
      <point x="1245" y="585"/>
      <point x="1245" y="442" type="curve"/>
      <point x="1245" y="297"/>
      <point x="1132" y="157"/>
      <point x="928" y="157" type="curve"/>
      <point x="550" y="157" type="line"/>
      <point x="550" y="1489" type="line"/>
      <point x="369" y="1489" type="line"/>
      <point x="369" y="0" type="line"/>
      <point x="928" y="0" type="line"/>
      <point x="1248" y="0"/>
      <point x="1423" y="180"/>
      <point x="1423" y="439" type="curve"/>
      <point x="1423" y="698"/>
      <point x="1248" y="864"/>
      <point x="928" y="864" type="curve"/>
    </contour>
  </outline>
</glyph>
<glyph name="Dhook" format="2">
  <advance height="2479" width="1795"/>
  <unicode hex="018A"/>
  <anchor x="946" y="0" name="bottom"/>
  <anchor x="594" y="768" name="cross"/>
  <anchor x="940" y="1676" name="top"/>
  <outline>
    <contour>
      <point x="99" y="1094" type="line"/>
      <point x="268" y="1094" type="line"/>
      <point x="268" y="1149" type="line" smooth="yes"/>
      <point x="268" y="1242"/>
      <point x="282" y="1329"/>
      <point x="399" y="1329" type="curve" smooth="yes"/>
      <point x="541" y="1329" type="line"/>
      <point x="541" y="1489" type="line"/>
      <point x="396" y="1489" type="line" smooth="yes"/>
      <point x="204" y="1489"/>
      <point x="99" y="1356"/>
      <point x="99" y="1193" type="curve" smooth="yes"/>
    </contour>
    <component base="D" xOffset="323"/>
  </outline>
</glyph>
<glyph name="Dtopbar" format="2">
  <advance height="2479" width="1349"/>
  <unicode hex="018B"/>
  <outline>
    <contour>
      <point x="611" y="0" type="curve" smooth="yes"/>
      <point x="1169" y="0" type="line"/>
      <point x="1169" y="1489" type="line"/>
      <point x="271" y="1489" type="line"/>
      <point x="271" y="1329" type="line"/>
      <point x="989" y="1329" type="line"/>
      <point x="989" y="864" type="line"/>
      <point x="611" y="864" type="line" smooth="yes"/>
      <point x="291" y="864"/>
      <point x="116" y="698"/>
      <point x="116" y="439" type="curve" smooth="yes"/>
      <point x="116" y="180"/>
      <point x="291" y="0"/>
    </contour>
    <contour>
      <point x="611" y="157" type="line" smooth="yes"/>
      <point x="407" y="157"/>
      <point x="294" y="297"/>
      <point x="294" y="442" type="curve" smooth="yes"/>
      <point x="294" y="585"/>
      <point x="407" y="704"/>
      <point x="611" y="704" type="curve" smooth="yes"/>
      <point x="989" y="704" type="line"/>
      <point x="989" y="157" type="line"/>
    </contour>
  </outline>
</glyph>
<glyph name="dtopbar" format="2">
  <advance height="2479" width="1272"/>
  <unicode hex="018C"/>
  <anchor x="582" y="0" name="bottom"/>
  <anchor x="1004" y="1280" name="cross"/>
  <anchor x="585" y="1303" name="top"/>
  <outline>
    <contour>
      <point x="253" y="1489" type="line"/>
      <point x="253" y="1329" type="line"/>
      <point x="943" y="1329" type="line"/>
      <point x="943" y="1489" type="line"/>
    </contour>
    <contour>
      <point x="1091" y="0" type="line"/>
      <point x="1091" y="1489" type="line"/>
      <point x="919" y="1489" type="line"/>
      <point x="919" y="940" type="line"/>
      <point x="905" y="940" type="line"/>
      <point x="867" y="998"/>
      <point x="800" y="1132"/>
      <point x="582" y="1132" type="curve" smooth="yes"/>
      <point x="300" y="1132"/>
      <point x="105" y="908"/>
      <point x="105" y="556" type="curve" smooth="yes"/>
      <point x="105" y="201"/>
      <point x="300" y="-23"/>
      <point x="579" y="-23" type="curve" smooth="yes"/>
      <point x="794" y="-23"/>
      <point x="867" y="111"/>
      <point x="905" y="172" type="curve"/>
      <point x="925" y="172" type="line"/>
      <point x="925" y="0" type="line"/>
    </contour>
    <contour>
      <point x="922" y="559" type="curve" smooth="yes"/>
      <point x="922" y="305"/>
      <point x="809" y="131"/>
      <point x="602" y="131" type="curve" smooth="yes"/>
      <point x="387" y="131"/>
      <point x="276" y="320"/>
      <point x="276" y="559" type="curve" smooth="yes"/>
      <point x="276" y="794"/>
      <point x="384" y="977"/>
      <point x="602" y="977" type="curve" smooth="yes"/>
      <point x="812" y="977"/>
      <point x="922" y="809"/>
    </contour>
  </outline>
</glyph>
<glyph name="deltaturned" format="2">
  <advance height="2479" width="1178"/>
  <unicode hex="018D"/>
  <outline>
    <contour>
      <point x="582" y="-451" type="curve" smooth="yes"/>
      <point x="800" y="-451"/>
      <point x="951" y="-337"/>
      <point x="951" y="-170" type="curve" smooth="yes"/>
      <point x="951" y="-49"/>
      <point x="871" y="60"/>
      <point x="748" y="109" type="curve"/>
      <point x="748" y="115" type="line"/>
      <point x="944" y="163"/>
      <point x="1073" y="351"/>
      <point x="1073" y="604" type="curve" smooth="yes"/>
      <point x="1073" y="913"/>
      <point x="881" y="1130"/>
      <point x="589" y="1130" type="curve" smooth="yes"/>
      <point x="297" y="1130"/>
      <point x="105" y="913"/>
      <point x="105" y="623" type="curve" smooth="yes"/>
      <point x="105" y="351"/>
      <point x="272" y="136"/>
      <point x="534" y="42" type="curve" smooth="yes"/>
      <point x="679" y="-11"/>
      <point x="780" y="-95"/>
      <point x="780" y="-173" type="curve" smooth="yes"/>
      <point x="780" y="-245"/>
      <point x="695" y="-297"/>
      <point x="589" y="-297" type="curve" smooth="yes"/>
      <point x="511" y="-297"/>
      <point x="405" y="-269"/>
      <point x="300" y="-227" type="curve"/>
      <point x="300" y="-399" type="line"/>
      <point x="381" y="-430"/>
      <point x="489" y="-451"/>
    </contour>
    <contour>
      <point x="588" y="202" type="curve"/>
      <point x="400" y="241"/>
      <point x="276" y="393"/>
      <point x="276" y="607" type="curve" smooth="yes"/>
      <point x="276" y="820"/>
      <point x="400" y="976"/>
      <point x="588" y="976" type="curve" smooth="yes"/>
      <point x="777" y="976"/>
      <point x="902" y="820"/>
      <point x="902" y="588" type="curve" smooth="yes"/>
      <point x="902" y="355"/>
      <point x="777" y="202"/>
    </contour>
  </outline>
</glyph>
<glyph name="Schwa" format="2">
  <advance height="2479" width="1521"/>
  <unicode hex="018F"/>
  <outline>
    <contour>
      <point x="736" y="-20" type="curve" smooth="yes"/>
      <point x="1132" y="-20"/>
      <point x="1399" y="273"/>
      <point x="1399" y="745" type="curve" smooth="yes"/>
      <point x="1399" y="1216"/>
      <point x="1129" y="1510"/>
      <point x="748" y="1510" type="curve" smooth="yes"/>
      <point x="433" y="1510"/>
      <point x="192" y="1312"/>
      <point x="137" y="1024" type="curve"/>
      <point x="323" y="1024" type="line"/>
      <point x="386" y="1220"/>
      <point x="532" y="1341"/>
      <point x="748" y="1341" type="curve" smooth="yes"/>
      <point x="1012" y="1341"/>
      <point x="1225" y="1132"/>
      <point x="1225" y="745" type="curve" smooth="yes"/>
      <point x="1225" y="358"/>
      <point x="1012" y="148"/>
      <point x="736" y="148" type="curve" smooth="yes"/>
      <point x="480" y="148"/>
      <point x="303" y="322"/>
      <point x="303" y="596" type="curve"/>
      <point x="247" y="585" type="line"/>
      <point x="1321" y="585" type="line"/>
      <point x="1321" y="745" type="line"/>
      <point x="128" y="745" type="line"/>
      <point x="128" y="585" type="line" smooth="yes"/>
      <point x="128" y="216"/>
      <point x="381" y="-20"/>
    </contour>
  </outline>
</glyph>
<glyph name="Fhook" format="2">
  <advance height="2479" width="1201"/>
  <unicode hex="0191"/>
  <anchor x="559" y="12" name="bottom"/>
  <anchor x="271" y="349" name="cross"/>
  <anchor x="646" y="1676" name="top"/>
  <outline>
    <contour>
      <point x="180" y="0" type="line"/>
      <point x="180" y="-116" type="line" smooth="yes"/>
      <point x="180" y="-233"/>
      <point x="113" y="-268"/>
      <point x="20" y="-268" type="curve" smooth="yes"/>
      <point x="0" y="-268"/>
      <point x="-20" y="-265"/>
      <point x="-35" y="-262" type="curve"/>
      <point x="-35" y="-410" type="line"/>
      <point x="9" y="-419"/>
      <point x="9" y="-419"/>
      <point x="20" y="-419" type="curve" smooth="yes"/>
      <point x="244" y="-419"/>
      <point x="361" y="-311"/>
      <point x="361" y="-119" type="curve" smooth="yes"/>
      <point x="361" y="0" type="line"/>
    </contour>
    <component base="F"/>
  </outline>
</glyph>
<glyph name="Ghook" format="2">
  <advance height="2479" width="1583"/>
  <unicode hex="0193"/>
  <anchor x="771" y="0" name="bottom"/>
  <anchor x="774" y="1676" name="top"/>
  <outline>
    <contour>
      <point x="1382" y="1024" type="line"/>
      <point x="1382" y="1181" type="line" smooth="yes"/>
      <point x="1382" y="1297"/>
      <point x="1452" y="1332"/>
      <point x="1545" y="1332" type="curve" smooth="yes"/>
      <point x="1565" y="1332"/>
      <point x="1585" y="1329"/>
      <point x="1600" y="1327" type="curve"/>
      <point x="1600" y="1472" type="line"/>
      <point x="1574" y="1481"/>
      <point x="1536" y="1481"/>
      <point x="1501" y="1481" type="curve" smooth="yes"/>
      <point x="1315" y="1481"/>
      <point x="1219" y="1373"/>
      <point x="1207" y="1181" type="curve" smooth="yes"/>
      <point x="1199" y="1024" type="line"/>
    </contour>
    <component base="G"/>
  </outline>
</glyph>
<glyph name="Gamma-latin" format="2">
  <advance height="2479" width="1292"/>
  <unicode hex="0194"/>
  <outline>
    <contour>
      <point x="20" y="1489" type="line"/>
      <point x="617" y="113" type="line" smooth="yes"/>
      <point x="692" y="-61"/>
      <point x="733" y="-140"/>
      <point x="733" y="-198" type="curve" smooth="yes"/>
      <point x="733" y="-241"/>
      <point x="698" y="-279"/>
      <point x="646" y="-279" type="curve" smooth="yes"/>
      <point x="593" y="-279"/>
      <point x="559" y="-244"/>
      <point x="559" y="-198" type="curve" smooth="yes"/>
      <point x="559" y="-140"/>
      <point x="605" y="-55"/>
      <point x="678" y="113" type="curve" smooth="yes"/>
      <point x="1271" y="1489" type="line"/>
      <point x="1076" y="1489" type="line"/>
      <point x="561" y="282" type="line" smooth="yes"/>
      <point x="448" y="15"/>
      <point x="375" y="-99"/>
      <point x="375" y="-198" type="curve" smooth="yes"/>
      <point x="375" y="-355"/>
      <point x="477" y="-442"/>
      <point x="646" y="-442" type="curve" smooth="yes"/>
      <point x="815" y="-442"/>
      <point x="916" y="-355"/>
      <point x="916" y="-198" type="curve" smooth="yes"/>
      <point x="916" y="-105"/>
      <point x="838" y="15"/>
      <point x="724" y="282" type="curve" smooth="yes"/>
      <point x="215" y="1489" type="line"/>
    </contour>
  </outline>
</glyph>
<glyph name="hv" format="2">
  <advance height="2479" width="1937"/>
  <unicode hex="0195"/>
  <outline>
    <contour>
      <point x="157" y="0" type="line"/>
      <point x="329" y="0" type="line"/>
      <point x="329" y="672" type="line" smooth="yes"/>
      <point x="329" y="867"/>
      <point x="453" y="977"/>
      <point x="623" y="977" type="curve" smooth="yes"/>
      <point x="784" y="977"/>
      <point x="881" y="876"/>
      <point x="881" y="698" type="curve" smooth="yes"/>
      <point x="881" y="559" type="line"/>
      <point x="1053" y="559" type="line"/>
      <point x="1053" y="710" type="line" smooth="yes"/>
      <point x="1053" y="997"/>
      <point x="900" y="1132"/>
      <point x="672" y="1132" type="curve" smooth="yes"/>
      <point x="496" y="1132"/>
      <point x="396" y="1058"/>
      <point x="343" y="943" type="curve"/>
      <point x="329" y="943" type="line"/>
      <point x="329" y="1489" type="line"/>
      <point x="157" y="1489" type="line"/>
    </contour>
    <contour>
      <point x="1254" y="-20" type="curve" smooth="yes"/>
      <point x="1551" y="-20"/>
      <point x="1780" y="267"/>
      <point x="1780" y="966" type="curve" smooth="yes"/>
      <point x="1780" y="1117" type="line"/>
      <point x="1609" y="1117" type="line"/>
      <point x="1609" y="966" type="line" smooth="yes"/>
      <point x="1609" y="348"/>
      <point x="1447" y="131"/>
      <point x="1265" y="131" type="curve" smooth="yes"/>
      <point x="1179" y="131"/>
      <point x="1053" y="180"/>
      <point x="1053" y="442" type="curve" smooth="yes"/>
      <point x="1053" y="559" type="line"/>
      <point x="881" y="559" type="line"/>
      <point x="881" y="442" type="line" smooth="yes"/>
      <point x="881" y="120"/>
      <point x="1047" y="-20"/>
    </contour>
  </outline>
</glyph>
<glyph name="Khook" format="2">
  <advance height="2479" width="1376"/>
  <unicode hex="0198"/>
  <outline>
    <contour>
      <point x="180" y="0" type="line"/>
      <point x="361" y="0" type="line"/>
      <point x="361" y="483" type="line"/>
      <point x="547" y="692" type="line"/>
      <point x="1065" y="0" type="line"/>
      <point x="1283" y="0" type="line"/>
      <point x="657" y="817" type="line"/>
      <point x="1082" y="1274" type="line" smooth="yes"/>
      <point x="1156" y="1354"/>
      <point x="1222" y="1359"/>
      <point x="1286" y="1318" type="curve"/>
      <point x="1359" y="1452" type="line"/>
      <point x="1239" y="1536"/>
      <point x="1085" y="1530"/>
      <point x="969" y="1402" type="curve" smooth="yes"/>
      <point x="378" y="751" type="line"/>
      <point x="361" y="751" type="line"/>
      <point x="361" y="1489" type="line"/>
      <point x="180" y="1489" type="line"/>
    </contour>
  </outline>
</glyph>
<glyph name="Mturned" format="2">
  <advance height="2479" width="1862"/>
  <unicode hex="019C"/>
  <outline>
    <contour>
      <point x="535" y="-23" type="curve" smooth="yes"/>
      <point x="832" y="-23"/>
      <point x="951" y="204"/>
      <point x="951" y="506" type="curve"/>
      <point x="858" y="503" type="line"/>
      <point x="858" y="303"/>
      <point x="783" y="145"/>
      <point x="591" y="145" type="curve" smooth="yes"/>
      <point x="474" y="145"/>
      <point x="361" y="204"/>
      <point x="361" y="442" type="curve" smooth="yes"/>
      <point x="361" y="1489" type="line"/>
      <point x="180" y="1489" type="line"/>
      <point x="180" y="442" type="line" smooth="yes"/>
      <point x="180" y="96"/>
      <point x="320" y="-23"/>
    </contour>
    <contour>
      <point x="1196" y="-23" type="curve" smooth="yes"/>
      <point x="1492" y="-23"/>
      <point x="1609" y="204"/>
      <point x="1609" y="506" type="curve"/>
      <point x="1516" y="503" type="line"/>
      <point x="1516" y="303"/>
      <point x="1443" y="145"/>
      <point x="1251" y="145" type="curve" smooth="yes"/>
      <point x="1135" y="145"/>
      <point x="1021" y="204"/>
      <point x="1021" y="442" type="curve"/>
      <point x="1021" y="1489" type="line"/>
      <point x="841" y="1489" type="line"/>
      <point x="841" y="442" type="line"/>
      <point x="841" y="93"/>
      <point x="983" y="-23"/>
    </contour>
    <contour>
      <point x="1501" y="0" type="line"/>
      <point x="1681" y="0" type="line"/>
      <point x="1681" y="1489" type="line"/>
      <point x="1501" y="1489" type="line"/>
    </contour>
  </outline>
</glyph>
<glyph name="ohorn" format="2">
  <advance height="2479" width="1225"/>
  <unicode hex="01A1"/>
  <anchor x="611" y="0" name="bottom"/>
  <anchor x="739" y="0" name="ogonek"/>
  <anchor x="611" y="1303" name="top"/>
  <outline>
    <contour>
      <point x="1065" y="1201" type="line"/>
      <point x="1065" y="1059"/>
      <point x="1044" y="963"/>
      <point x="899" y="963" type="curve"/>
      <point x="899" y="841" type="line"/>
      <point x="1140" y="841"/>
      <point x="1225" y="980"/>
      <point x="1225" y="1201" type="curve"/>
    </contour>
    <component base="o"/>
  </outline>
</glyph>
<glyph name="phook" format="2">
  <advance height="2479" width="1248"/>
  <unicode hex="01A5"/>
  <anchor x="241" y="-419" name="bottom"/>
  <anchor x="1236" y="-495" name="bottom0315"/>
  <anchor x="244" y="-163" name="cross"/>
  <anchor x="657" y="1303" name="top"/>
  <outline>
    <contour>
      <point x="323" y="1117" type="line"/>
      <point x="323" y="1193"/>
      <point x="383" y="1233"/>
      <point x="486" y="1233" type="curve" smooth="yes"/>
      <point x="502" y="1233"/>
      <point x="523" y="1231"/>
      <point x="541" y="1228" type="curve"/>
      <point x="541" y="1373" type="line"/>
      <point x="525" y="1378"/>
      <point x="487" y="1382"/>
      <point x="442" y="1382" type="curve" smooth="yes"/>
      <point x="265" y="1382"/>
      <point x="157" y="1287"/>
      <point x="157" y="1117" type="curve"/>
    </contour>
    <component base="p"/>
  </outline>
</glyph>
<glyph name="Yr" format="2">
  <advance height="2479" width="1390"/>
  <unicode hex="01A6"/>
  <outline>
    <contour>
      <point x="266" y="326" type="line"/>
      <point x="650" y="326" type="line" smooth="yes"/>
      <point x="967" y="326"/>
      <point x="1142" y="518"/>
      <point x="1142" y="753" type="curve" smooth="yes"/>
      <point x="1142" y="989"/>
      <point x="967" y="1181"/>
      <point x="650" y="1181" type="curve" smooth="yes"/>
      <point x="266" y="1181" type="line"/>
      <point x="266" y="1021" type="line"/>
      <point x="650" y="1021" type="line" smooth="yes"/>
      <point x="857" y="1021"/>
      <point x="970" y="919"/>
      <point x="970" y="751" type="curve" smooth="yes"/>
      <point x="970" y="582"/>
      <point x="857" y="486"/>
      <point x="650" y="486" type="curve" smooth="yes"/>
      <point x="266" y="486" type="line"/>
    </contour>
    <contour>
      <point x="1097" y="-419" type="line"/>
      <point x="1306" y="-419" type="line"/>
      <point x="852" y="410" type="line"/>
      <point x="649" y="410" type="line"/>
    </contour>
    <contour>
      <point x="180" y="0" type="line"/>
      <point x="361" y="0" type="line"/>
      <point x="361" y="1489" type="line"/>
      <point x="180" y="1489" type="line"/>
    </contour>
  </outline>
</glyph>
<glyph name="thook" format="2">
  <advance height="2479" width="745"/>
  <unicode hex="01AD"/>
  <outline>
    <contour>
      <point x="535" y="-15" type="curve" smooth="yes"/>
      <point x="599" y="-15"/>
      <point x="640" y="-3"/>
      <point x="663" y="6" type="curve"/>
      <point x="628" y="160" type="line"/>
      <point x="614" y="157"/>
      <point x="591" y="151"/>
      <point x="553" y="151" type="curve" smooth="yes"/>
      <point x="477" y="151"/>
      <point x="404" y="175"/>
      <point x="404" y="320" type="curve" smooth="yes"/>
      <point x="404" y="1164" type="line"/>
      <point x="233" y="1164" type="line"/>
      <point x="233" y="273" type="line" smooth="yes"/>
      <point x="233" y="79"/>
      <point x="390" y="-15"/>
    </contour>
    <contour>
      <point x="64" y="972" type="line"/>
      <point x="643" y="972" type="line"/>
      <point x="643" y="1117" type="line"/>
      <point x="64" y="1117" type="line"/>
    </contour>
    <contour>
      <point x="233" y="1065" type="line"/>
      <point x="404" y="1065" type="line"/>
      <point x="404" y="1210" type="line" smooth="yes"/>
      <point x="404" y="1327"/>
      <point x="474" y="1361"/>
      <point x="567" y="1361" type="curve" smooth="yes"/>
      <point x="588" y="1361"/>
      <point x="608" y="1359"/>
      <point x="623" y="1356" type="curve"/>
      <point x="623" y="1501" type="line"/>
      <point x="596" y="1510"/>
      <point x="559" y="1510"/>
      <point x="524" y="1510" type="curve" smooth="yes"/>
      <point x="361" y="1510"/>
      <point x="233" y="1402"/>
      <point x="233" y="1210" type="curve" smooth="yes"/>
    </contour>
  </outline>
</glyph>
<glyph name="Tretroflexhook" format="2">
  <advance height="2479" width="1315"/>
  <unicode hex="01AE"/>
  <anchor x="657" y="0" name="bottom"/>
  <anchor x="681" y="0" name="cedilla"/>
  <anchor x="657" y="768" name="cross"/>
  <anchor x="829" y="64" name="cyrtic"/>
  <anchor x="698" y="0" name="right"/>
  <anchor x="657" y="1676" name="top"/>
  <outline>
    <contour>
      <point x="748" y="0" type="line"/>
      <point x="567" y="0" type="line"/>
      <point x="567" y="-122" type="line" smooth="yes"/>
      <point x="567" y="-314"/>
      <point x="716" y="-419"/>
      <point x="879" y="-419" type="curve"/>
      <point x="977" y="-419" type="line"/>
      <point x="977" y="-259" type="line"/>
      <point x="922" y="-259" type="line"/>
      <point x="829" y="-259"/>
      <point x="748" y="-236"/>
      <point x="748" y="-119" type="curve" smooth="yes"/>
    </contour>
    <component base="T"/>
  </outline>
</glyph>
<glyph name="Uhorn" format="2">
  <advance height="2479" width="1772"/>
  <unicode hex="01AF"/>
  <anchor x="759" y="-20" name="bottom"/>
  <anchor x="902" y="0" name="ogonek"/>
  <anchor x="844" y="0" name="right"/>
  <anchor x="759" y="1676" name="top"/>
  <outline>
    <contour>
      <point x="1504" y="1580" type="line"/>
      <point x="1504" y="1388"/>
      <point x="1449" y="1286"/>
      <point x="1245" y="1286" type="curve"/>
      <point x="1245" y="1143" type="line"/>
      <point x="1553" y="1143"/>
      <point x="1673" y="1295"/>
      <point x="1673" y="1580" type="curve"/>
    </contour>
    <component base="U"/>
  </outline>
</glyph>
<glyph name="Upsilon-latin" format="2">
  <advance height="2479" width="1559"/>
  <unicode hex="01B1"/>
  <outline>
    <contour>
      <point x="122" y="704" type="curve" smooth="yes"/>
      <point x="122" y="279"/>
      <point x="396" y="-20"/>
      <point x="780" y="-20" type="curve" smooth="yes"/>
      <point x="1164" y="-20"/>
      <point x="1437" y="279"/>
      <point x="1437" y="704" type="curve" smooth="yes"/>
      <point x="1437" y="986"/>
      <point x="1318" y="1196"/>
      <point x="1126" y="1318" type="curve"/>
      <point x="1126" y="1329" type="line"/>
      <point x="1437" y="1329" type="line"/>
      <point x="1437" y="1489" type="line"/>
      <point x="908" y="1489" type="line"/>
      <point x="908" y="1286" type="line"/>
      <point x="1100" y="1204"/>
      <point x="1263" y="983"/>
      <point x="1263" y="704" type="curve" smooth="yes"/>
      <point x="1263" y="393"/>
      <point x="1062" y="148"/>
      <point x="780" y="148" type="curve" smooth="yes"/>
      <point x="497" y="148"/>
      <point x="297" y="393"/>
      <point x="297" y="704" type="curve" smooth="yes"/>
      <point x="297" y="983"/>
      <point x="460" y="1204"/>
      <point x="652" y="1286" type="curve"/>
      <point x="652" y="1489" type="line"/>
      <point x="122" y="1489" type="line"/>
      <point x="122" y="1329" type="line"/>
      <point x="433" y="1329" type="line"/>
      <point x="433" y="1318" type="line"/>
      <point x="241" y="1193"/>
      <point x="122" y="986"/>
    </contour>
  </outline>
</glyph>
<glyph name="Vhook" format="2">
  <advance height="2479" width="1582"/>
  <unicode hex="01B2"/>
  <outline>
    <contour>
      <point x="759" y="-23" type="curve"/>
      <point x="1146" y="-24"/>
      <point x="1400" y="294"/>
      <point x="1401" y="801" type="curve" smooth="yes"/>
      <point x="1401" y="1219"/>
      <point x="1230" y="1504"/>
      <point x="970" y="1504" type="curve" smooth="yes"/>
      <point x="900" y="1504"/>
      <point x="817" y="1483"/>
      <point x="759" y="1452" type="curve"/>
      <point x="790" y="1302" type="line"/>
      <point x="845" y="1337"/>
      <point x="915" y="1344"/>
      <point x="945" y="1344" type="curve" smooth="yes"/>
      <point x="1104" y="1344"/>
      <point x="1226" y="1140"/>
      <point x="1229" y="816" type="curve" smooth="yes"/>
      <point x="1232" y="413"/>
      <point x="1046" y="147"/>
      <point x="743" y="145" type="curve" smooth="yes"/>
      <point x="519" y="145"/>
      <point x="361" y="292"/>
      <point x="361" y="518" type="curve" smooth="yes"/>
      <point x="361" y="1489" type="line"/>
      <point x="180" y="1489" type="line"/>
      <point x="180" y="503" type="line" smooth="yes"/>
      <point x="180" y="184"/>
      <point x="410" y="-23"/>
    </contour>
  </outline>
</glyph>
<glyph name="yhook" format="2">
  <advance height="2479" width="1287"/>
  <unicode hex="01B4"/>
  <outline>
    <contour>
      <point x="268" y="-419" type="curve" smooth="yes"/>
      <point x="423" y="-419"/>
      <point x="532" y="-337"/>
      <point x="596" y="-163" type="curve" smooth="yes"/>
      <point x="1023" y="989" type="line" smooth="yes"/>
      <point x="1081" y="1152"/>
      <point x="1121" y="1228"/>
      <point x="1212" y="1228" type="curve" smooth="yes"/>
      <point x="1252" y="1228"/>
      <point x="1296" y="1210"/>
      <point x="1334" y="1190" type="curve"/>
      <point x="1380" y="1309" type="line"/>
      <point x="1331" y="1350"/>
      <point x="1263" y="1379"/>
      <point x="1187" y="1379" type="curve" smooth="yes"/>
      <point x="1007" y="1379"/>
      <point x="918" y="1213"/>
      <point x="861" y="1050" type="curve" smooth="yes"/>
      <point x="576" y="227" type="line"/>
      <point x="564" y="227" type="line"/>
      <point x="256" y="1117" type="line"/>
      <point x="70" y="1117" type="line"/>
      <point x="483" y="-6" type="line"/>
      <point x="451" y="-93" type="line" smooth="yes"/>
      <point x="388" y="-263"/>
      <point x="311" y="-279"/>
      <point x="186" y="-247" type="curve"/>
      <point x="143" y="-399" type="line"/>
      <point x="160" y="-407"/>
      <point x="209" y="-419"/>
    </contour>
  </outline>
</glyph>
<glyph name="Ezhreversed" format="2">
  <advance height="2479" width="1396"/>
  <unicode hex="01B8"/>
  <anchor x="698" y="1676" name="top"/>
  <outline>
    <contour>
      <point x="1297" y="64" type="curve"/>
      <point x="1114" y="64" type="line"/>
      <point x="1100" y="-139"/>
      <point x="921" y="-278"/>
      <point x="707" y="-278" type="curve" smooth="yes"/>
      <point x="454" y="-278"/>
      <point x="294" y="-80"/>
      <point x="294" y="177" type="curve" smooth="yes"/>
      <point x="294" y="468"/>
      <point x="500" y="652"/>
      <point x="791" y="652" type="curve" smooth="yes"/>
      <point x="902" y="652" type="line"/>
      <point x="902" y="803" type="line"/>
      <point x="404" y="1315" type="line"/>
      <point x="404" y="1327" type="line"/>
      <point x="1213" y="1327" type="line"/>
      <point x="1213" y="1489" type="line"/>
      <point x="154" y="1489" type="line"/>
      <point x="154" y="1359" type="line"/>
      <point x="681" y="809" type="line"/>
      <point x="681" y="794" type="line"/>
      <point x="350" y="780"/>
      <point x="116" y="531"/>
      <point x="116" y="180" type="curve" smooth="yes"/>
      <point x="116" y="-180"/>
      <point x="354" y="-441"/>
      <point x="710" y="-441" type="curve" smooth="yes"/>
      <point x="1029" y="-441"/>
      <point x="1281" y="-235"/>
    </contour>
  </outline>
</glyph>
<glyph name="Tonefive" format="2">
  <advance height="2479" width="1222"/>
  <unicode hex="01BC"/>
  <outline>
    <contour>
      <point x="390" y="1489" type="line" name="hr00"/>
      <point x="67" y="1489" type="line"/>
      <point x="67" y="1329" type="line"/>
      <point x="390" y="1329" type="line"/>
    </contour>
    <component base="five"/>
  </outline>
</glyph>
<glyph name="Hwair" format="2">
  <advance height="2479" width="2281"/>
  <unicode hex="01F6"/>
  <outline>
    <contour>
      <point x="1644" y="-20" type="curve" smooth="yes"/>
      <point x="1926" y="-20"/>
      <point x="2124" y="143"/>
      <point x="2124" y="471" type="curve" smooth="yes"/>
      <point x="2124" y="1117" type="line"/>
      <point x="1943" y="1117" type="line"/>
      <point x="1943" y="471" type="line" smooth="yes"/>
      <point x="1943" y="247"/>
      <point x="1839" y="145"/>
      <point x="1644" y="145" type="curve" smooth="yes"/>
      <point x="1449" y="145"/>
      <point x="1335" y="247"/>
      <point x="1335" y="471" type="curve" smooth="yes"/>
      <point x="1335" y="1489" type="line"/>
      <point x="1155" y="1489" type="line"/>
      <point x="1155" y="826" type="line"/>
      <point x="361" y="826" type="line"/>
      <point x="361" y="1489" type="line"/>
      <point x="180" y="1489" type="line"/>
      <point x="180" y="0" type="line"/>
      <point x="361" y="0" type="line"/>
      <point x="361" y="666" type="line"/>
      <point x="1155" y="666" type="line"/>
      <point x="1155" y="471" type="line" smooth="yes"/>
      <point x="1155" y="148"/>
      <point x="1353" y="-20"/>
    </contour>
  </outline>
</glyph>
<glyph name="Wynn" format="2">
  <advance height="2479" width="1312"/>
  <unicode hex="01F7"/>
  <outline>
    <contour>
      <point x="250" y="-169" type="line"/>
      <point x="817" y="-102"/>
      <point x="1190" y="301"/>
      <point x="1190" y="841" type="curve" smooth="yes"/>
      <point x="1190" y="1247"/>
      <point x="980" y="1510"/>
      <point x="681" y="1510" type="curve" smooth="yes"/>
      <point x="539" y="1510"/>
      <point x="393" y="1451"/>
      <point x="291" y="1361" type="curve"/>
      <point x="291" y="1193" type="line"/>
      <point x="391" y="1282"/>
      <point x="532" y="1341"/>
      <point x="652" y="1341" type="curve" smooth="yes"/>
      <point x="868" y="1341"/>
      <point x="1015" y="1148"/>
      <point x="1015" y="847" type="curve" smooth="yes"/>
      <point x="1015" y="412"/>
      <point x="711" y="72"/>
      <point x="250" y="0" type="curve"/>
    </contour>
    <contour>
      <point x="180" y="-419" type="line"/>
      <point x="361" y="-419" type="line"/>
      <point x="361" y="1489" type="line"/>
      <point x="180" y="1489" type="line"/>
    </contour>
  </outline>
</glyph>
<glyph name="Yogh" format="2">
  <advance height="2479" width="1443"/>
  <unicode hex="021C"/>
  <anchor x="698" y="1676" name="top"/>
  <outline>
    <contour>
      <point x="693" y="-441" type="curve" smooth="yes"/>
      <point x="1072" y="-441"/>
      <point x="1327" y="-198"/>
      <point x="1327" y="172" type="curve" smooth="yes"/>
      <point x="1327" y="473"/>
      <point x="1158" y="672"/>
      <point x="902" y="672" type="curve"/>
      <point x="746" y="557" type="line"/>
      <point x="989" y="559"/>
      <point x="1149" y="406"/>
      <point x="1149" y="161" type="curve" smooth="yes"/>
      <point x="1149" y="-100"/>
      <point x="966" y="-278"/>
      <point x="695" y="-278" type="curve" smooth="yes"/>
      <point x="457" y="-278"/>
      <point x="296" y="-142"/>
      <point x="282" y="64" type="curve"/>
      <point x="99" y="64" type="line"/>
      <point x="116" y="-240"/>
      <point x="349" y="-441"/>
    </contour>
    <contour>
      <point x="368" y="407" type="line"/>
      <point x="894" y="521"/>
      <point x="1241" y="743"/>
      <point x="1241" y="1068" type="curve" smooth="yes"/>
      <point x="1241" y="1327"/>
      <point x="1020" y="1510"/>
      <point x="677" y="1510" type="curve" smooth="yes"/>
      <point x="356" y="1510"/>
      <point x="138" y="1349"/>
      <point x="138" y="1105" type="curve"/>
      <point x="313" y="1105" type="line"/>
      <point x="313" y="1253"/>
      <point x="460" y="1350"/>
      <point x="674" y="1350" type="curve" smooth="yes"/>
      <point x="913" y="1350"/>
      <point x="1066" y="1230"/>
      <point x="1066" y="1066" type="curve" smooth="yes"/>
      <point x="1066" y="845"/>
      <point x="789" y="684"/>
      <point x="368" y="559" type="curve"/>
    </contour>
  </outline>
</glyph>
<glyph name="yogh" format="2">
  <advance height="2479" width="1196"/>
  <unicode hex="021D"/>
  <outline>
    <contour>
      <point x="310" y="207" type="line"/>
      <point x="753" y="289"/>
      <point x="1046" y="525"/>
      <point x="1046" y="787" type="curve" smooth="yes"/>
      <point x="1046" y="1000"/>
      <point x="853" y="1132"/>
      <point x="596" y="1132" type="curve" smooth="yes"/>
      <point x="331" y="1132"/>
      <point x="121" y="992"/>
      <point x="121" y="780" type="curve"/>
      <point x="292" y="780" type="line"/>
      <point x="292" y="899"/>
      <point x="433" y="977"/>
      <point x="592" y="977" type="curve" smooth="yes"/>
      <point x="748" y="977"/>
      <point x="874" y="901"/>
      <point x="874" y="774" type="curve" smooth="yes"/>
      <point x="874" y="604"/>
      <point x="650" y="435"/>
      <point x="310" y="361" type="curve"/>
    </contour>
    <contour>
      <point x="561" y="-442" type="curve" smooth="yes"/>
      <point x="867" y="-442"/>
      <point x="1092" y="-241"/>
      <point x="1092" y="39" type="curve" smooth="yes"/>
      <point x="1092" y="248"/>
      <point x="969" y="403"/>
      <point x="769" y="464" type="curve"/>
      <point x="575" y="349" type="line"/>
      <point x="785" y="327"/>
      <point x="921" y="206"/>
      <point x="921" y="32" type="curve" smooth="yes"/>
      <point x="921" y="-153"/>
      <point x="769" y="-282"/>
      <point x="559" y="-282" type="curve" smooth="yes"/>
      <point x="356" y="-282"/>
      <point x="298" y="-176"/>
      <point x="252" y="-113" type="curve"/>
      <point x="105" y="-218" type="line"/>
      <point x="175" y="-335"/>
      <point x="312" y="-442"/>
    </contour>
  </outline>
</glyph>
<glyph name="Nlongrightleg" format="2">
  <advance height="2479" width="1420"/>
  <unicode hex="0220"/>
  <outline>
    <contour>
      <point x="1058" y="-419" type="line"/>
      <point x="1239" y="-419" type="line"/>
      <point x="1239" y="947" type="line" smooth="yes"/>
      <point x="1239" y="1305"/>
      <point x="1073" y="1510"/>
      <point x="786" y="1510" type="curve" smooth="yes"/>
      <point x="590" y="1510"/>
      <point x="419" y="1409"/>
      <point x="356" y="1257" type="curve"/>
      <point x="351" y="1257" type="line"/>
      <point x="351" y="1490" type="line"/>
      <point x="180" y="1490" type="line"/>
      <point x="180" y="0" type="line"/>
      <point x="356" y="0" type="line"/>
      <point x="356" y="897" type="line" smooth="yes"/>
      <point x="356" y="1155"/>
      <point x="516" y="1350"/>
      <point x="727" y="1350" type="curve" smooth="yes"/>
      <point x="943" y="1350"/>
      <point x="1058" y="1198"/>
      <point x="1058" y="932" type="curve" smooth="yes"/>
    </contour>
  </outline>
</glyph>
<glyph name="OU" format="2">
  <advance height="2479" width="1292"/>
  <unicode hex="0222"/>
  <outline>
    <contour>
      <point x="634" y="881" type="line" name="hr00"/>
      <point x="323" y="881"/>
      <point x="81" y="730"/>
      <point x="81" y="433" type="curve" smooth="yes"/>
      <point x="81" y="128"/>
      <point x="323" y="-20"/>
      <point x="634" y="-20" type="curve" smooth="yes"/>
      <point x="657" y="-20" type="line" smooth="yes"/>
      <point x="969" y="-20"/>
      <point x="1210" y="128"/>
      <point x="1210" y="436" type="curve" smooth="yes"/>
      <point x="1210" y="730"/>
      <point x="969" y="881"/>
      <point x="657" y="881" type="curve" smooth="yes"/>
    </contour>
    <contour>
      <point x="657" y="724" type="line"/>
      <point x="867" y="724"/>
      <point x="1004" y="631"/>
      <point x="1004" y="436" type="curve" smooth="yes"/>
      <point x="1004" y="236"/>
      <point x="867" y="151"/>
      <point x="657" y="151" type="curve" smooth="yes"/>
      <point x="634" y="151" type="line" smooth="yes"/>
      <point x="425" y="151"/>
      <point x="288" y="236"/>
      <point x="288" y="433" type="curve" smooth="yes"/>
      <point x="288" y="631"/>
      <point x="425" y="724"/>
      <point x="634" y="724" type="curve" smooth="yes"/>
    </contour>
    <contour>
      <point x="625" y="896" type="line"/>
      <point x="445" y="896"/>
      <point x="288" y="925"/>
      <point x="288" y="1129" type="curve" smooth="yes"/>
      <point x="288" y="1257"/>
      <point x="352" y="1321"/>
      <point x="477" y="1353" type="curve"/>
      <point x="477" y="1510" type="line"/>
      <point x="259" y="1498"/>
      <point x="81" y="1379"/>
      <point x="81" y="1129" type="curve" smooth="yes"/>
      <point x="81" y="826"/>
      <point x="337" y="739"/>
      <point x="625" y="739" type="curve" smooth="yes"/>
      <point x="666" y="739" type="line" smooth="yes"/>
      <point x="954" y="739"/>
      <point x="1210" y="826"/>
      <point x="1210" y="1129" type="curve" smooth="yes"/>
      <point x="1210" y="1379"/>
      <point x="1036" y="1498"/>
      <point x="815" y="1510" type="curve"/>
      <point x="815" y="1353" type="line"/>
      <point x="940" y="1321"/>
      <point x="1004" y="1257"/>
      <point x="1004" y="1129" type="curve" smooth="yes"/>
      <point x="1004" y="925"/>
      <point x="849" y="896"/>
      <point x="666" y="896" type="curve" smooth="yes"/>
    </contour>
  </outline>
</glyph>
<glyph name="Zhook" format="2">
  <advance height="2479" width="1280"/>
  <unicode hex="0224"/>
  <outline>
    <contour>
      <point x="122" y="1329" type="line"/>
      <point x="934" y="1329" type="line"/>
      <point x="131" y="131" type="line"/>
      <point x="131" y="0" type="line"/>
      <point x="873" y="0" type="line" smooth="yes"/>
      <point x="975" y="0"/>
      <point x="1007" y="-81"/>
      <point x="1007" y="-166" type="curve" smooth="yes"/>
      <point x="1007" y="-221" type="line"/>
      <point x="1169" y="-221" type="line"/>
      <point x="1169" y="-134" type="line" smooth="yes"/>
      <point x="1169" y="41"/>
      <point x="1056" y="160"/>
      <point x="873" y="160" type="curve" smooth="yes"/>
      <point x="346" y="160" type="line"/>
      <point x="1149" y="1359" type="line"/>
      <point x="1149" y="1489" type="line"/>
      <point x="122" y="1489" type="line"/>
    </contour>
  </outline>
</glyph>
<glyph name="zhook" format="2">
  <advance height="2479" width="1105"/>
  <unicode hex="0225"/>
  <outline>
    <contour>
      <point x="867" y="-233" type="line"/>
      <point x="1021" y="-233" type="line"/>
      <point x="1021" y="-134" type="line" smooth="yes"/>
      <point x="1021" y="32"/>
      <point x="913" y="160"/>
      <point x="724" y="160" type="curve" smooth="yes"/>
      <point x="352" y="160" type="line"/>
      <point x="977" y="980" type="line"/>
      <point x="977" y="1117" type="line"/>
      <point x="116" y="1117" type="line"/>
      <point x="116" y="957" type="line"/>
      <point x="756" y="957" type="line"/>
      <point x="128" y="145" type="line"/>
      <point x="128" y="0" type="line"/>
      <point x="724" y="0" type="line" smooth="yes"/>
      <point x="841" y="0"/>
      <point x="867" y="-84"/>
      <point x="867" y="-177" type="curve" smooth="yes"/>
    </contour>
  </outline>
</glyph>
<glyph name="ncurl" format="2">
  <advance height="2479" width="1554"/>
  <unicode hex="0235"/>
  <anchor x="599" y="0" name="bottom"/>
  <anchor x="599" y="1303" name="top"/>
  <outline>
    <contour>
      <point x="870" y="108" type="line"/>
      <point x="870" y="64" type="line"/>
      <point x="870" y="-84"/>
      <point x="954" y="-250"/>
      <point x="1178" y="-250" type="curve" smooth="yes"/>
      <point x="1359" y="-250"/>
      <point x="1472" y="-143"/>
      <point x="1472" y="15" type="curve" smooth="yes"/>
      <point x="1472" y="175"/>
      <point x="1353" y="279"/>
      <point x="1193" y="279" type="curve" smooth="yes"/>
      <point x="1082" y="279"/>
      <point x="963" y="230"/>
      <point x="870" y="134" type="curve" smooth="yes"/>
      <point x="643" y="-99" type="line"/>
      <point x="753" y="-212" type="line"/>
      <point x="957" y="0" type="line" smooth="yes"/>
      <point x="1018" y="64"/>
      <point x="1076" y="125"/>
      <point x="1169" y="125" type="curve" smooth="yes"/>
      <point x="1245" y="125"/>
      <point x="1295" y="84"/>
      <point x="1295" y="15" type="curve" smooth="yes"/>
      <point x="1295" y="-52"/>
      <point x="1248" y="-102"/>
      <point x="1178" y="-102" type="curve" smooth="yes"/>
      <point x="1105" y="-102"/>
      <point x="1041" y="-47"/>
      <point x="1041" y="20" type="curve"/>
      <point x="1041" y="108" type="line"/>
    </contour>
    <component base="n"/>
  </outline>
</glyph>
<glyph name="tcurl" format="2">
  <advance height="2479" width="981"/>
  <unicode hex="0236"/>
  <outline>
    <contour>
      <point x="291" y="1385" type="line"/>
      <point x="291" y="291" type="line" smooth="yes"/>
      <point x="291" y="143"/>
      <point x="375" y="-23"/>
      <point x="599" y="-23" type="curve" smooth="yes"/>
      <point x="784" y="-23"/>
      <point x="899" y="89"/>
      <point x="899" y="250" type="curve" smooth="yes"/>
      <point x="899" y="396"/>
      <point x="801" y="506"/>
      <point x="614" y="506" type="curve" smooth="yes"/>
      <point x="427" y="506"/>
      <point x="314" y="396"/>
      <point x="64" y="128" type="curve"/>
      <point x="175" y="15" type="line"/>
      <point x="410" y="265"/>
      <point x="514" y="352"/>
      <point x="591" y="352" type="curve" smooth="yes"/>
      <point x="691" y="352"/>
      <point x="721" y="300"/>
      <point x="721" y="241" type="curve" smooth="yes"/>
      <point x="721" y="164"/>
      <point x="664" y="125"/>
      <point x="599" y="125" type="curve" smooth="yes"/>
      <point x="521" y="125"/>
      <point x="463" y="180"/>
      <point x="463" y="247" type="curve" smooth="yes"/>
      <point x="463" y="1385" type="line"/>
    </contour>
    <contour>
      <point x="701" y="1117" type="line"/>
      <point x="122" y="1117" type="line"/>
      <point x="122" y="972" type="line"/>
      <point x="701" y="972" type="line"/>
    </contour>
  </outline>
</glyph>
<glyph name="jdotless" format="2">
  <advance height="2479" width="486"/>
  <unicode hex="0237"/>
  <anchor x="474" y="0" name="_right"/>
  <anchor x="186" y="-460" name="bottom"/>
  <anchor x="241" y="649" name="cross"/>
  <anchor x="241" y="1303" name="top"/>
  <outline>
    <contour>
      <point x="157" y="1117" type="line"/>
      <point x="157" y="-81" type="line"/>
      <point x="157" y="-195"/>
      <point x="111" y="-259"/>
      <point x="6" y="-259" type="curve" smooth="yes"/>
      <point x="-6" y="-259"/>
      <point x="-15" y="-259"/>
      <point x="-26" y="-259" type="curve"/>
      <point x="-26" y="-419" type="line"/>
      <point x="-15" y="-419"/>
      <point x="-3" y="-419"/>
      <point x="9" y="-419" type="curve" smooth="yes"/>
      <point x="224" y="-419"/>
      <point x="329" y="-288"/>
      <point x="329" y="-81" type="curve"/>
      <point x="329" y="1117" type="line"/>
    </contour>
  </outline>
</glyph>
<glyph name="Cstroke" format="2">
  <advance height="2479" width="1489"/>
  <unicode hex="023B"/>
  <anchor x="780" y="-12" name="cedilla"/>
  <anchor x="780" y="1676" name="top"/>
  <outline>
    <contour>
      <point x="337" y="-189" type="line"/>
      <point x="503" y="-189" type="line"/>
      <point x="1167" y="1679" type="line"/>
      <point x="1001" y="1679" type="line"/>
    </contour>
    <component base="C"/>
  </outline>
</glyph>
<glyph name="zswashtail" format="2">
  <advance height="2479" width="1111"/>
  <unicode hex="0240"/>
  <outline>
    <contour>
      <point x="346" y="160" type="line"/>
      <point x="346" y="0" type="line"/>
      <point x="384" y="0" type="line" smooth="yes"/>
      <point x="704" y="0"/>
      <point x="704" y="-419"/>
      <point x="966" y="-419" type="curve" smooth="yes"/>
      <point x="1062" y="-419"/>
      <point x="1135" y="-364"/>
      <point x="1178" y="-320" type="curve"/>
      <point x="1111" y="-204" type="line"/>
      <point x="1076" y="-236"/>
      <point x="1033" y="-259"/>
      <point x="977" y="-259" type="curve" smooth="yes"/>
      <point x="820" y="-259"/>
      <point x="771" y="160"/>
      <point x="404" y="160" type="curve" smooth="yes"/>
    </contour>
    <contour>
      <point x="361" y="160" type="line"/>
      <point x="986" y="980" type="line"/>
      <point x="986" y="1117" type="line"/>
      <point x="125" y="1117" type="line"/>
      <point x="125" y="957" type="line"/>
      <point x="765" y="957" type="line"/>
      <point x="137" y="145" type="line"/>
      <point x="137" y="0" type="line"/>
      <point x="361" y="0" type="line"/>
    </contour>
  </outline>
</glyph>
<glyph name="Glottalstop" format="2">
  <advance height="2479" width="1183"/>
  <unicode hex="0241"/>
  <outline>
    <contour>
      <point x="567" y="399" type="line"/>
      <point x="873" y="399"/>
      <point x="1073" y="627"/>
      <point x="1073" y="964" type="curve" smooth="yes"/>
      <point x="1073" y="1302"/>
      <point x="874" y="1524"/>
      <point x="572" y="1524" type="curve" smooth="yes"/>
      <point x="333" y="1524"/>
      <point x="157" y="1386"/>
      <point x="128" y="1175" type="curve"/>
      <point x="303" y="1175" type="line"/>
      <point x="333" y="1293"/>
      <point x="436" y="1364"/>
      <point x="572" y="1364" type="curve" smooth="yes"/>
      <point x="769" y="1364"/>
      <point x="899" y="1212"/>
      <point x="899" y="966" type="curve" smooth="yes"/>
      <point x="899" y="721"/>
      <point x="769" y="559"/>
      <point x="567" y="559" type="curve"/>
    </contour>
    <contour>
      <point x="477" y="0" type="line"/>
      <point x="657" y="0" type="line"/>
      <point x="657" y="559" type="line"/>
      <point x="477" y="559" type="line"/>
    </contour>
  </outline>
</glyph>
<glyph name="Ubar" format="2">
  <advance height="2479" width="1519"/>
  <unicode hex="0244"/>
  <anchor x="759" y="-20" name="bottom"/>
  <anchor x="902" y="0" name="ogonek"/>
  <anchor x="844" y="0" name="right"/>
  <anchor x="759" y="1676" name="top"/>
  <outline>
    <contour>
      <point x="1524" y="864" type="line"/>
      <point x="-6" y="864" type="line"/>
      <point x="-6" y="745" type="line"/>
      <point x="1524" y="745" type="line"/>
    </contour>
    <component base="U"/>
  </outline>
</glyph>
<glyph name="Vturned" format="2">
  <advance height="2479" width="1385"/>
  <unicode hex="0245"/>
  <outline>
    <contour>
      <point x="52" y="0" type="line"/>
      <point x="241" y="0" type="line"/>
      <point x="684" y="1254" type="line"/>
      <point x="701" y="1254" type="line"/>
      <point x="1143" y="0" type="line"/>
      <point x="1332" y="0" type="line"/>
      <point x="785" y="1489" type="line"/>
      <point x="599" y="1489" type="line"/>
    </contour>
  </outline>
</glyph>
<glyph name="estroke" format="2">
  <advance height="2479" width="1193"/>
  <unicode hex="0247"/>
  <anchor x="599" y="0" name="bottom"/>
  <anchor x="602" y="0" name="cedilla"/>
  <anchor x="768" y="0" name="ogonek"/>
  <anchor x="599" y="1303" name="top"/>
  <outline>
    <contour>
      <point x="1036" y="1489" type="line"/>
      <point x="899" y="1489" type="line"/>
      <point x="134" y="-419" type="line"/>
      <point x="273" y="-419" type="line"/>
    </contour>
    <component base="e"/>
  </outline>
</glyph>
<glyph name="Qhooktail" format="2">
  <advance height="2479" width="1597"/>
  <unicode hex="024A"/>
  <outline>
    <contour>
      <point x="1379" y="1489" type="line"/>
      <point x="1213" y="1489" type="line"/>
      <point x="1213" y="1260" type="line"/>
      <point x="1196" y="1260" type="line"/>
      <point x="1123" y="1417"/>
      <point x="957" y="1510"/>
      <point x="753" y="1510" type="curve" smooth="yes"/>
      <point x="378" y="1510"/>
      <point x="122" y="1193"/>
      <point x="122" y="751" type="curve" smooth="yes"/>
      <point x="122" y="294"/>
      <point x="381" y="-23"/>
      <point x="753" y="-23" type="curve" smooth="yes"/>
      <point x="954" y="-23"/>
      <point x="1120" y="70"/>
      <point x="1196" y="236" type="curve"/>
      <point x="1207" y="236" type="line"/>
      <point x="1207" y="-119" type="line" smooth="yes"/>
      <point x="1207" y="-311"/>
      <point x="1335" y="-419"/>
      <point x="1498" y="-419" type="curve" smooth="yes"/>
      <point x="1533" y="-419"/>
      <point x="1571" y="-419"/>
      <point x="1597" y="-410" type="curve"/>
      <point x="1597" y="-265" type="line"/>
      <point x="1583" y="-268"/>
      <point x="1562" y="-271"/>
      <point x="1542" y="-271" type="curve" smooth="yes"/>
      <point x="1449" y="-271"/>
      <point x="1379" y="-236"/>
      <point x="1379" y="-119" type="curve" smooth="yes"/>
    </contour>
    <contour>
      <point x="753" y="148" type="curve" smooth="yes"/>
      <point x="489" y="148"/>
      <point x="300" y="378"/>
      <point x="300" y="748" type="curve" smooth="yes"/>
      <point x="300" y="1094"/>
      <point x="480" y="1347"/>
      <point x="756" y="1347" type="curve" smooth="yes"/>
      <point x="1066" y="1347"/>
      <point x="1210" y="1076"/>
      <point x="1210" y="748" type="curve" smooth="yes"/>
      <point x="1210" y="412"/>
      <point x="1081" y="148"/>
    </contour>
  </outline>
</glyph>
<glyph name="ystroke" format="2">
  <advance height="2479" width="1140"/>
  <unicode hex="024F"/>
  <anchor x="847" y="-49" name="bottom"/>
  <anchor x="723" y="-419" name="ogonek"/>
  <anchor x="570" y="1303" name="top"/>
  <outline>
    <contour>
      <point x="1056" y="797" type="line"/>
      <point x="79" y="797" type="line"/>
      <point x="79" y="663" type="line"/>
      <point x="1056" y="663" type="line"/>
    </contour>
    <component base="y"/>
  </outline>
</glyph>
<glyph name="alphaturned-latin" format="2">
  <advance height="2479" width="1273"/>
  <unicode hex="0252"/>
  <anchor x="656" y="0" name="bottom"/>
  <anchor x="181" y="0" name="ogonek"/>
  <anchor x="658" y="1303" name="rhalfring"/>
  <anchor x="647" y="1303" name="top"/>
  <outline>
    <contour>
      <point x="693" y="-23" type="curve" smooth="yes"/>
      <point x="973" y="-23"/>
      <point x="1168" y="201"/>
      <point x="1168" y="556" type="curve" smooth="yes"/>
      <point x="1168" y="908"/>
      <point x="973" y="1132"/>
      <point x="690" y="1132" type="curve" smooth="yes"/>
      <point x="472" y="1132"/>
      <point x="405" y="998"/>
      <point x="368" y="940" type="curve"/>
      <point x="353" y="940" type="line"/>
      <point x="353" y="1117" type="line"/>
      <point x="181" y="1117" type="line"/>
      <point x="181" y="0" type="line"/>
      <point x="347" y="0" type="line"/>
      <point x="347" y="172" type="line"/>
      <point x="368" y="172" type="line"/>
      <point x="405" y="111"/>
      <point x="478" y="-23"/>
    </contour>
    <contour>
      <point x="670" y="131" type="curve" smooth="yes"/>
      <point x="464" y="131"/>
      <point x="350" y="305"/>
      <point x="350" y="559" type="curve" smooth="yes"/>
      <point x="350" y="809"/>
      <point x="461" y="977"/>
      <point x="670" y="977" type="curve" smooth="yes"/>
      <point x="888" y="977"/>
      <point x="996" y="794"/>
      <point x="996" y="559" type="curve" smooth="yes"/>
      <point x="996" y="320"/>
      <point x="885" y="131"/>
    </contour>
  </outline>
</glyph>
<glyph name="bhook" format="2">
  <advance height="2479" width="1271"/>
  <unicode hex="0253"/>
  <outline>
    <contour>
      <point x="692" y="-23" type="curve" smooth="yes"/>
      <point x="972" y="-23"/>
      <point x="1167" y="201"/>
      <point x="1167" y="556" type="curve" smooth="yes"/>
      <point x="1167" y="908"/>
      <point x="972" y="1132"/>
      <point x="689" y="1132" type="curve" smooth="yes"/>
      <point x="471" y="1132"/>
      <point x="404" y="998"/>
      <point x="367" y="940" type="curve"/>
      <point x="352" y="940" type="line"/>
      <point x="352" y="1210" type="line" smooth="yes"/>
      <point x="352" y="1327"/>
      <point x="422" y="1361"/>
      <point x="515" y="1361" type="curve" smooth="yes"/>
      <point x="535" y="1361"/>
      <point x="556" y="1359"/>
      <point x="570" y="1356" type="curve"/>
      <point x="570" y="1501" type="line"/>
      <point x="544" y="1510"/>
      <point x="506" y="1510"/>
      <point x="471" y="1510" type="curve" smooth="yes"/>
      <point x="308" y="1510"/>
      <point x="180" y="1402"/>
      <point x="180" y="1210" type="curve" smooth="yes"/>
      <point x="180" y="0" type="line"/>
      <point x="346" y="0" type="line"/>
      <point x="346" y="172" type="line"/>
      <point x="367" y="172" type="line"/>
      <point x="404" y="111"/>
      <point x="477" y="-23"/>
    </contour>
    <contour>
      <point x="669" y="131" type="curve" smooth="yes"/>
      <point x="463" y="131"/>
      <point x="349" y="305"/>
      <point x="349" y="559" type="curve" smooth="yes"/>
      <point x="349" y="809"/>
      <point x="460" y="977"/>
      <point x="669" y="977" type="curve" smooth="yes"/>
      <point x="887" y="977"/>
      <point x="995" y="794"/>
      <point x="995" y="559" type="curve" smooth="yes"/>
      <point x="995" y="320"/>
      <point x="884" y="131"/>
    </contour>
  </outline>
</glyph>
<glyph name="oopen" format="2">
  <advance height="2479" width="1144"/>
  <unicode hex="0254"/>
  <outline>
    <contour>
      <point x="532" y="-23" type="curve" smooth="yes"/>
      <point x="847" y="-23"/>
      <point x="1039" y="218"/>
      <point x="1039" y="553" type="curve" smooth="yes"/>
      <point x="1039" y="893"/>
      <point x="838" y="1132"/>
      <point x="535" y="1132" type="curve" smooth="yes"/>
      <point x="300" y="1132"/>
      <point x="122" y="992"/>
      <point x="93" y="783" type="curve"/>
      <point x="265" y="783" type="line"/>
      <point x="291" y="884"/>
      <point x="381" y="977"/>
      <point x="532" y="977" type="curve" smooth="yes"/>
      <point x="733" y="977"/>
      <point x="867" y="812"/>
      <point x="867" y="559" type="curve" smooth="yes"/>
      <point x="867" y="300"/>
      <point x="736" y="131"/>
      <point x="532" y="131" type="curve" smooth="yes"/>
      <point x="399" y="131"/>
      <point x="297" y="204"/>
      <point x="265" y="326" type="curve"/>
      <point x="93" y="326" type="line"/>
      <point x="122" y="128"/>
      <point x="285" y="-23"/>
    </contour>
  </outline>
</glyph>
<glyph name="ccurl" format="2">
  <advance height="2479" width="1143"/>
  <unicode hex="0255"/>
  <outline>
    <contour>
      <point x="611" y="-23" type="curve"/>
      <point x="611" y="131" type="line"/>
      <point x="407" y="131"/>
      <point x="276" y="300"/>
      <point x="276" y="559" type="curve" smooth="yes"/>
      <point x="276" y="812"/>
      <point x="410" y="977"/>
      <point x="611" y="977" type="curve" smooth="yes"/>
      <point x="762" y="977"/>
      <point x="852" y="884"/>
      <point x="879" y="783" type="curve"/>
      <point x="1050" y="783" type="line"/>
      <point x="1021" y="992"/>
      <point x="844" y="1132"/>
      <point x="608" y="1132" type="curve" smooth="yes"/>
      <point x="305" y="1132"/>
      <point x="105" y="893"/>
      <point x="105" y="559" type="curve" smooth="yes"/>
      <point x="105" y="215"/>
      <point x="300" y="-23"/>
    </contour>
    <contour>
      <point x="105" y="-38" type="line"/>
      <point x="195" y="52"/>
      <point x="503" y="401"/>
      <point x="733" y="401" type="curve" smooth="yes"/>
      <point x="783" y="401"/>
      <point x="849" y="369"/>
      <point x="849" y="297" type="curve" smooth="yes"/>
      <point x="849" y="201"/>
      <point x="745" y="131"/>
      <point x="611" y="131" type="curve"/>
      <point x="611" y="-23" type="line"/>
      <point x="841" y="-23"/>
      <point x="1024" y="102"/>
      <point x="1024" y="303" type="curve" smooth="yes"/>
      <point x="1024" y="448"/>
      <point x="931" y="553"/>
      <point x="736" y="553" type="curve" smooth="yes"/>
      <point x="372" y="553"/>
      <point x="99" y="183"/>
      <point x="-15" y="67" type="curve"/>
    </contour>
  </outline>
</glyph>
<glyph name="dhook" format="2">
  <advance height="2479" width="1260"/>
  <unicode hex="0257"/>
  <outline>
    <contour>
      <point x="579" y="-23" type="curve" smooth="yes"/>
      <point x="794" y="-23"/>
      <point x="867" y="111"/>
      <point x="905" y="172" type="curve"/>
      <point x="989" y="172" type="line"/>
      <point x="989" y="940" type="line"/>
      <point x="905" y="940" type="line"/>
      <point x="867" y="998"/>
      <point x="800" y="1132"/>
      <point x="582" y="1132" type="curve" smooth="yes"/>
      <point x="300" y="1132"/>
      <point x="105" y="908"/>
      <point x="105" y="556" type="curve" smooth="yes"/>
      <point x="105" y="201"/>
      <point x="300" y="-23"/>
    </contour>
    <contour>
      <point x="919" y="1216" type="curve"/>
      <point x="919" y="852" type="line"/>
      <point x="977" y="570" type="line"/>
      <point x="925" y="209" type="line"/>
      <point x="925" y="0" type="line"/>
      <point x="1091" y="0" type="line"/>
      <point x="1091" y="1216" type="line" smooth="yes"/>
      <point x="1091" y="1332"/>
      <point x="1164" y="1359"/>
      <point x="1257" y="1359" type="curve" smooth="yes"/>
      <point x="1271" y="1359"/>
      <point x="1297" y="1359"/>
      <point x="1312" y="1353" type="curve"/>
      <point x="1312" y="1501" type="line"/>
      <point x="1286" y="1510"/>
      <point x="1245" y="1513"/>
      <point x="1213" y="1513" type="curve" smooth="yes"/>
      <point x="1047" y="1513"/>
      <point x="919" y="1408"/>
    </contour>
    <contour>
      <point x="602" y="131" type="curve" smooth="yes"/>
      <point x="387" y="131"/>
      <point x="276" y="320"/>
      <point x="276" y="559" type="curve" smooth="yes"/>
      <point x="276" y="794"/>
      <point x="384" y="977"/>
      <point x="602" y="977" type="curve" smooth="yes"/>
      <point x="812" y="977"/>
      <point x="922" y="809"/>
      <point x="922" y="559" type="curve" smooth="yes"/>
      <point x="922" y="305"/>
      <point x="809" y="131"/>
    </contour>
  </outline>
</glyph>
<glyph name="schwahook" format="2">
  <advance height="2479" width="1550"/>
  <unicode hex="025A"/>
  <outline>
    <contour>
      <point x="585" y="-15" type="curve" smooth="yes"/>
      <point x="887" y="-15"/>
      <point x="1088" y="224"/>
      <point x="1088" y="567" type="curve" smooth="yes"/>
      <point x="1088" y="911"/>
      <point x="890" y="1140"/>
      <point x="567" y="1140" type="curve" smooth="yes"/>
      <point x="340" y="1140"/>
      <point x="175" y="1027"/>
      <point x="122" y="858" type="curve"/>
      <point x="288" y="812" type="line"/>
      <point x="332" y="928"/>
      <point x="433" y="986"/>
      <point x="567" y="986" type="curve" smooth="yes"/>
      <point x="735" y="986"/>
      <point x="849" y="894"/>
      <point x="894" y="727" type="curve"/>
      <point x="105" y="559" type="line"/>
      <point x="105" y="544" type="line" smooth="yes"/>
      <point x="105" y="127"/>
      <point x="352" y="-15"/>
    </contour>
    <contour>
      <point x="585" y="140" type="curve" smooth="yes"/>
      <point x="407" y="140"/>
      <point x="290" y="267"/>
      <point x="280" y="444" type="curve"/>
      <point x="915" y="579" type="line"/>
      <point x="916" y="567"/>
      <point x="916" y="556"/>
      <point x="916" y="544" type="curve" smooth="yes"/>
      <point x="916" y="287"/>
      <point x="796" y="140"/>
    </contour>
    <contour>
      <point x="1379" y="388" type="curve" smooth="yes"/>
      <point x="1423" y="388"/>
      <point x="1466" y="394"/>
      <point x="1504" y="411" type="curve"/>
      <point x="1472" y="566" type="line"/>
      <point x="1457" y="563"/>
      <point x="1431" y="554"/>
      <point x="1417" y="554" type="curve" smooth="yes"/>
      <point x="1306" y="554"/>
      <point x="1303" y="635"/>
      <point x="1277" y="798" type="curve"/>
      <point x="913" y="729" type="line"/>
      <point x="916" y="580" type="line"/>
      <point x="1152" y="624" type="line"/>
      <point x="1184" y="507"/>
      <point x="1233" y="388"/>
    </contour>
  </outline>
</glyph>
<glyph name="ghook" format="2">
  <advance height="2479" width="1257"/>
  <unicode hex="0260"/>
  <anchor x="623" y="-442" name="bottom"/>
  <anchor x="1009" y="564" name="cross"/>
  <anchor x="625" y="1303" name="top"/>
  <outline>
    <contour>
      <point x="1091" y="1065" type="line"/>
      <point x="1091" y="1210" type="line" smooth="yes"/>
      <point x="1091" y="1327"/>
      <point x="1161" y="1361"/>
      <point x="1254" y="1361" type="curve" smooth="yes"/>
      <point x="1274" y="1361"/>
      <point x="1295" y="1359"/>
      <point x="1309" y="1356" type="curve"/>
      <point x="1309" y="1501" type="line"/>
      <point x="1283" y="1510"/>
      <point x="1245" y="1510"/>
      <point x="1210" y="1510" type="curve" smooth="yes"/>
      <point x="1047" y="1510"/>
      <point x="925" y="1402"/>
      <point x="925" y="1210" type="curve" smooth="yes"/>
      <point x="925" y="1065" type="line"/>
    </contour>
    <component base="g"/>
  </outline>
</glyph>
<glyph name="gamma-latin" format="2">
  <advance height="2479" width="1219"/>
  <unicode hex="0263"/>
  <outline>
    <contour>
      <point x="608" y="-442" type="curve" smooth="yes"/>
      <point x="777" y="-442"/>
      <point x="876" y="-355"/>
      <point x="876" y="-199" type="curve" smooth="yes"/>
      <point x="876" y="-163"/>
      <point x="870" y="-102"/>
      <point x="835" y="-32" type="curve" smooth="yes"/>
      <point x="259" y="1117" type="line"/>
      <point x="70" y="1117" type="line"/>
      <point x="570" y="102" type="line" smooth="yes"/>
      <point x="655" y="-70"/>
      <point x="695" y="-140"/>
      <point x="695" y="-199" type="curve" smooth="yes"/>
      <point x="695" y="-241"/>
      <point x="660" y="-276"/>
      <point x="608" y="-276" type="curve" smooth="yes"/>
      <point x="556" y="-276"/>
      <point x="521" y="-244"/>
      <point x="521" y="-199" type="curve" smooth="yes"/>
      <point x="521" y="-137"/>
      <point x="573" y="-64"/>
      <point x="649" y="93" type="curve" smooth="yes"/>
      <point x="1149" y="1117" type="line"/>
      <point x="960" y="1117" type="line"/>
      <point x="387" y="-32" type="line" smooth="yes"/>
      <point x="358" y="-90"/>
      <point x="335" y="-154"/>
      <point x="335" y="-199" type="curve" smooth="yes"/>
      <point x="335" y="-355"/>
      <point x="439" y="-442"/>
    </contour>
  </outline>
</glyph>
<glyph name="hhook" format="2">
  <advance height="2479" width="1199"/>
  <unicode hex="0266"/>
  <anchor x="599" y="0" name="bottom"/>
  <anchor x="599" y="1303" name="top"/>
  <outline>
    <contour>
      <point x="323" y="1117" type="line"/>
      <point x="323" y="1210" type="line" smooth="yes"/>
      <point x="323" y="1327"/>
      <point x="399" y="1361"/>
      <point x="492" y="1361" type="curve" smooth="yes"/>
      <point x="512" y="1361"/>
      <point x="532" y="1359"/>
      <point x="547" y="1356" type="curve"/>
      <point x="547" y="1501" type="line"/>
      <point x="521" y="1510"/>
      <point x="483" y="1510"/>
      <point x="448" y="1510" type="curve" smooth="yes"/>
      <point x="285" y="1510"/>
      <point x="157" y="1402"/>
      <point x="157" y="1210" type="curve" smooth="yes"/>
      <point x="157" y="1117" type="line"/>
    </contour>
    <component base="n"/>
  </outline>
</glyph>
<glyph name="Ismall" format="2">
  <advance height="2479" width="701"/>
  <unicode hex="026A"/>
  <outline>
    <contour>
      <point x="582" y="1117" type="line"/>
      <point x="119" y="1117" type="line"/>
      <point x="119" y="957" type="line"/>
      <point x="582" y="957" type="line"/>
    </contour>
    <contour>
      <point x="433" y="1117" type="line"/>
      <point x="262" y="1117" type="line"/>
      <point x="262" y="0" type="line"/>
      <point x="433" y="0" type="line"/>
    </contour>
    <contour>
      <point x="582" y="160" type="line"/>
      <point x="119" y="160" type="line"/>
      <point x="119" y="0" type="line"/>
      <point x="582" y="0" type="line"/>
    </contour>
  </outline>
</glyph>
<glyph name="lezh" format="2">
  <advance height="2479" width="1469"/>
  <unicode hex="026E"/>
  <anchor x="266" y="0" name="bottom"/>
  <anchor x="266" y="768" name="cross"/>
  <anchor x="494" y="1489" name="raccent"/>
  <anchor x="264" y="1676" name="top"/>
  <outline>
    <contour>
      <point x="822" y="-442" type="curve" smooth="yes"/>
      <point x="1128" y="-442"/>
      <point x="1353" y="-241"/>
      <point x="1353" y="39" type="curve" smooth="yes"/>
      <point x="1353" y="301"/>
      <point x="1159" y="479"/>
      <point x="864" y="492" type="curve"/>
      <point x="864" y="503" type="line"/>
      <point x="1263" y="986" type="line"/>
      <point x="1263" y="1117" type="line"/>
      <point x="353.1875" y="1117.0" type="line"/>
      <point x="353.1875" y="957.0" type="line"/>
      <point x="1016" y="957" type="line"/>
      <point x="1016" y="945" type="line"/>
      <point x="643" y="497" type="line"/>
      <point x="643" y="352" type="line"/>
      <point x="766" y="352" type="line" smooth="yes"/>
      <point x="1016" y="352"/>
      <point x="1182" y="224"/>
      <point x="1182" y="32" type="curve" smooth="yes"/>
      <point x="1182" y="-153"/>
      <point x="1029" y="-282"/>
      <point x="818" y="-282" type="curve" smooth="yes"/>
      <point x="687" y="-282"/>
      <point x="606" y="-237"/>
      <point x="514" y="-113" type="curve"/>
      <point x="366" y="-218" type="line"/>
      <point x="435" y="-335"/>
      <point x="573" y="-442"/>
    </contour>
    <component base="l" xOffset="23"/>
  </outline>
</glyph>
<glyph name="mlonglegturned" format="2">
  <advance height="2479" width="1780"/>
  <unicode hex="0270"/>
  <anchor x="890" y="0" name="bottom"/>
  <anchor x="890" y="1303" name="top"/>
  <outline>
    <contour>
      <point x="1457" y="-419" type="line"/>
      <point x="1623" y="-419" type="line"/>
      <point x="1623" y="0" type="line"/>
      <point x="1457" y="0" type="line"/>
    </contour>
    <component base="mturned"/>
  </outline>
</glyph>
<glyph name="mhook" format="2">
  <advance height="2479" width="1780"/>
  <unicode hex="0271"/>
  <anchor x="890" y="0" name="bottom"/>
  <anchor x="890" y="1303" name="top"/>
  <outline>
    <contour>
      <point x="1452" y="0" type="line"/>
      <point x="1452" y="-119" type="line" smooth="yes"/>
      <point x="1452" y="-236"/>
      <point x="1382" y="-271"/>
      <point x="1289" y="-271" type="curve" smooth="yes"/>
      <point x="1268" y="-271"/>
      <point x="1248" y="-268"/>
      <point x="1233" y="-265" type="curve"/>
      <point x="1233" y="-410" type="line"/>
      <point x="1260" y="-419"/>
      <point x="1297" y="-419"/>
      <point x="1332" y="-419" type="curve" smooth="yes"/>
      <point x="1495" y="-419"/>
      <point x="1623" y="-311"/>
      <point x="1623" y="-119" type="curve" smooth="yes"/>
      <point x="1623" y="0" type="line"/>
    </contour>
    <component base="m"/>
  </outline>
</glyph>
<glyph name="nhookleft" format="2">
  <advance height="2479" width="1234"/>
  <unicode hex="0272"/>
  <anchor x="634" y="0" name="bottom"/>
  <anchor x="634" y="1303" name="top"/>
  <outline>
    <contour>
      <point x="192" y="0" type="line"/>
      <point x="192" y="-119" type="line" smooth="yes"/>
      <point x="192" y="-236"/>
      <point x="122" y="-271"/>
      <point x="29" y="-271" type="curve" smooth="yes"/>
      <point x="9" y="-271"/>
      <point x="-12" y="-268"/>
      <point x="-26" y="-265" type="curve"/>
      <point x="-26" y="-410" type="line"/>
      <point x="0" y="-419"/>
      <point x="38" y="-419"/>
      <point x="73" y="-419" type="curve" smooth="yes"/>
      <point x="236" y="-419"/>
      <point x="364" y="-311"/>
      <point x="364" y="-119" type="curve" smooth="yes"/>
      <point x="364" y="0" type="line"/>
    </contour>
    <component base="n" xOffset="35"/>
  </outline>
</glyph>
<glyph name="OEsmall" format="2">
  <advance height="2479" width="1548"/>
  <unicode hex="0276"/>
  <outline>
    <contour>
      <point x="735" y="0" type="line"/>
      <point x="1455" y="0" type="line"/>
      <point x="1455" y="154" type="line"/>
      <point x="906" y="154" type="line"/>
      <point x="906" y="483" type="line"/>
      <point x="1411" y="483" type="line"/>
      <point x="1411" y="637" type="line"/>
      <point x="906" y="637" type="line"/>
      <point x="906" y="963" type="line"/>
      <point x="1446" y="963" type="line"/>
      <point x="1446" y="1117" type="line"/>
      <point x="735" y="1117" type="line"/>
    </contour>
    <contour>
      <point x="639" y="0" type="curve" smooth="yes"/>
      <point x="790" y="0" type="line"/>
      <point x="790" y="154" type="line"/>
      <point x="639" y="153" type="line" smooth="yes"/>
      <point x="420" y="154"/>
      <point x="276" y="316"/>
      <point x="276" y="559" type="curve" smooth="yes"/>
      <point x="276" y="803"/>
      <point x="420" y="963"/>
      <point x="639" y="961" type="curve" smooth="yes"/>
      <point x="790" y="963" type="line"/>
      <point x="790" y="1117" type="line"/>
      <point x="639" y="1117" type="line" smooth="yes"/>
      <point x="317" y="1117"/>
      <point x="105" y="895"/>
      <point x="105" y="559" type="curve" smooth="yes"/>
      <point x="105" y="222"/>
      <point x="317" y="0"/>
    </contour>
  </outline>
</glyph>
<glyph name="omegaclosed-latin" format="2">
  <advance height="2479" width="1664"/>
  <unicode hex="0277"/>
  <outline>
    <contour>
      <point x="832" y="1132" type="line"/>
      <point x="305" y="1132"/>
      <point x="111" y="815"/>
      <point x="111" y="497" type="curve" smooth="yes"/>
      <point x="111" y="259"/>
      <point x="215" y="-20"/>
      <point x="509" y="-20" type="curve" smooth="yes"/>
      <point x="742" y="-20"/>
      <point x="870" y="157"/>
      <point x="870" y="471" type="curve" smooth="yes"/>
      <point x="870" y="660" type="line"/>
      <point x="733" y="660" type="line"/>
      <point x="733" y="471" type="line" smooth="yes"/>
      <point x="733" y="230"/>
      <point x="636" y="140"/>
      <point x="525" y="140" type="curve" smooth="yes"/>
      <point x="362" y="140"/>
      <point x="311" y="329"/>
      <point x="311" y="502" type="curve" smooth="yes"/>
      <point x="311" y="768"/>
      <point x="436" y="972"/>
      <point x="832" y="972" type="curve"/>
    </contour>
    <contour>
      <point x="832" y="972" type="line"/>
      <point x="1228" y="972"/>
      <point x="1353" y="768"/>
      <point x="1353" y="502" type="curve" smooth="yes"/>
      <point x="1353" y="329"/>
      <point x="1302" y="140"/>
      <point x="1139" y="140" type="curve" smooth="yes"/>
      <point x="1028" y="140"/>
      <point x="931" y="230"/>
      <point x="931" y="471" type="curve" smooth="yes"/>
      <point x="931" y="660" type="line"/>
      <point x="794" y="660" type="line"/>
      <point x="794" y="471" type="line" smooth="yes"/>
      <point x="794" y="157"/>
      <point x="922" y="-20"/>
      <point x="1155" y="-20" type="curve" smooth="yes"/>
      <point x="1449" y="-20"/>
      <point x="1553" y="259"/>
      <point x="1553" y="497" type="curve" smooth="yes"/>
      <point x="1553" y="815"/>
      <point x="1359" y="1132"/>
      <point x="832" y="1132" type="curve"/>
    </contour>
  </outline>
</glyph>
<glyph name="rhookturned" format="2">
  <advance height="2479" width="800"/>
  <unicode hex="027B"/>
  <anchor x="380" y="0" name="bottom"/>
  <anchor x="518.0" y="582.0" name="cross"/>
  <anchor x="518" y="1303" name="top"/>
  <outline>
    <contour>
      <point x="724" y="-436" type="curve" smooth="yes"/>
      <point x="756" y="-436"/>
      <point x="797" y="-433"/>
      <point x="823" y="-425" type="curve"/>
      <point x="823" y="-291" type="line"/>
      <point x="809" y="-297"/>
      <point x="783" y="-297"/>
      <point x="768" y="-297" type="curve" smooth="yes"/>
      <point x="661" y="-297"/>
      <point x="605" y="-243"/>
      <point x="605" y="-140" type="curve" smooth="yes"/>
      <point x="605" y="0" type="line"/>
      <point x="439" y="0" type="line"/>
      <point x="439" y="-140" type="line" smooth="yes"/>
      <point x="439" y="-332"/>
      <point x="561" y="-436"/>
    </contour>
    <component base="rturned"/>
  </outline>
</glyph>
<glyph name="rtail" format="2">
  <advance height="2479" width="762"/>
  <unicode hex="027D"/>
  <anchor x="241" y="0" name="bottom"/>
  <anchor x="244" y="535" name="cross"/>
  <anchor x="422" y="1303" name="top"/>
  <outline>
    <contour>
      <point x="448" y="-419" type="curve" smooth="yes"/>
      <point x="483" y="-419"/>
      <point x="521" y="-419"/>
      <point x="547" y="-410" type="curve"/>
      <point x="547" y="-265" type="line"/>
      <point x="532" y="-268"/>
      <point x="512" y="-271"/>
      <point x="492" y="-271" type="curve" smooth="yes"/>
      <point x="399" y="-271"/>
      <point x="329" y="-236"/>
      <point x="329" y="-119" type="curve" smooth="yes"/>
      <point x="329" y="0" type="line"/>
      <point x="157" y="0" type="line"/>
      <point x="157" y="-119" type="line" smooth="yes"/>
      <point x="157" y="-311"/>
      <point x="285" y="-419"/>
    </contour>
    <component base="r"/>
  </outline>
</glyph>
<glyph name="rfishhookreversed" format="2">
  <advance height="2479" width="614"/>
  <unicode hex="027F"/>
  <outline>
    <contour>
      <point x="457" y="-419" type="line"/>
      <point x="457" y="835" type="line" smooth="yes"/>
      <point x="457" y="1027"/>
      <point x="314" y="1132"/>
      <point x="151" y="1132" type="curve" smooth="yes"/>
      <point x="122" y="1132"/>
      <point x="79" y="1126"/>
      <point x="52" y="1117" type="curve"/>
      <point x="52" y="966" type="line"/>
      <point x="70" y="969"/>
      <point x="90" y="972"/>
      <point x="108" y="972" type="curve" smooth="yes"/>
      <point x="201" y="972"/>
      <point x="285" y="937"/>
      <point x="285" y="823" type="curve" smooth="yes"/>
      <point x="285" y="-419" type="line"/>
    </contour>
  </outline>
</glyph>
<glyph name="Rsmallinverted" format="2">
  <advance height="2479" width="1149"/>
  <unicode hex="0281"/>
  <outline>
    <contour>
      <point x="157" y="0" type="line"/>
      <point x="617" y="0" type="line"/>
      <point x="857" y="0"/>
      <point x="1004" y="126"/>
      <point x="1004" y="332" type="curve"/>
      <point x="1004" y="537"/>
      <point x="865" y="663"/>
      <point x="637" y="663" type="curve"/>
      <point x="276" y="663" type="line"/>
      <point x="276" y="503" type="line"/>
      <point x="637" y="503" type="line"/>
      <point x="759" y="503"/>
      <point x="832" y="439"/>
      <point x="832" y="332" type="curve"/>
      <point x="832" y="223"/>
      <point x="751" y="157"/>
      <point x="617" y="157" type="curve"/>
      <point x="320" y="157" type="line"/>
      <point x="320" y="1117" type="line"/>
      <point x="157" y="1117" type="line"/>
    </contour>
    <contour>
      <point x="561" y="561" type="line"/>
      <point x="748" y="561" type="line"/>
      <point x="1065" y="1117" type="line"/>
      <point x="879" y="1117" type="line"/>
    </contour>
  </outline>
</glyph>
<glyph name="esh" format="2">
  <advance height="2479" width="785"/>
  <unicode hex="0283"/>
  <outline>
    <contour>
      <point x="137" y="-442" type="curve" smooth="yes"/>
      <point x="297" y="-442"/>
      <point x="451" y="-346"/>
      <point x="451" y="-154" type="curve" smooth="yes"/>
      <point x="451" y="1231" type="line" smooth="yes"/>
      <point x="451" y="1341"/>
      <point x="497" y="1399"/>
      <point x="611" y="1399" type="curve" smooth="yes"/>
      <point x="660" y="1399"/>
      <point x="689" y="1388"/>
      <point x="707" y="1382" type="curve"/>
      <point x="756" y="1530" type="line"/>
      <point x="730" y="1542"/>
      <point x="678" y="1559"/>
      <point x="593" y="1559" type="curve" smooth="yes"/>
      <point x="433" y="1559"/>
      <point x="279" y="1463"/>
      <point x="279" y="1271" type="curve" smooth="yes"/>
      <point x="279" y="-113" type="line" smooth="yes"/>
      <point x="279" y="-224"/>
      <point x="233" y="-282"/>
      <point x="119" y="-282" type="curve" smooth="yes"/>
      <point x="70" y="-282"/>
      <point x="41" y="-271"/>
      <point x="23" y="-265" type="curve"/>
      <point x="-26" y="-413" type="line"/>
      <point x="0" y="-425"/>
      <point x="52" y="-442"/>
    </contour>
  </outline>
</glyph>
<glyph name="eshcurl" format="2">
  <advance height="2479" width="1105"/>
  <unicode hex="0286"/>
  <outline>
    <contour>
      <point x="704" y="227" type="line"/>
      <point x="532" y="227" type="line"/>
      <point x="532" y="227"/>
      <point x="532" y="-87"/>
      <point x="532" y="-148" type="curve" smooth="yes"/>
      <point x="532" y="-212"/>
      <point x="480" y="-259"/>
      <point x="399" y="-259" type="curve" smooth="yes"/>
      <point x="337" y="-259"/>
      <point x="297" y="-215"/>
      <point x="297" y="-154" type="curve" smooth="yes"/>
      <point x="297" y="-96"/>
      <point x="340" y="-47"/>
      <point x="410" y="-47" type="curve" smooth="yes"/>
      <point x="492" y="-47"/>
      <point x="573" y="-113"/>
      <point x="678" y="-218" type="curve"/>
      <point x="829" y="-378" type="line"/>
      <point x="945" y="-259" type="line"/>
      <point x="704" y="-23" type="line"/>
      <point x="602" y="61"/>
      <point x="503" y="113"/>
      <point x="384" y="113" type="curve" smooth="yes"/>
      <point x="224" y="113"/>
      <point x="99" y="17"/>
      <point x="99" y="-154" type="curve" smooth="yes"/>
      <point x="99" y="-308"/>
      <point x="221" y="-419"/>
      <point x="401" y="-419" type="curve" smooth="yes"/>
      <point x="637" y="-419"/>
      <point x="704" y="-265"/>
      <point x="704" y="-105" type="curve"/>
    </contour>
    <contour>
      <point x="704" y="17" type="line"/>
      <point x="704" y="1193" type="line" smooth="yes"/>
      <point x="704" y="1321"/>
      <point x="785" y="1391"/>
      <point x="899" y="1391" type="curve" smooth="yes"/>
      <point x="934" y="1391"/>
      <point x="972" y="1388"/>
      <point x="998" y="1382" type="curve"/>
      <point x="1009" y="1542" type="line"/>
      <point x="966" y="1551"/>
      <point x="922" y="1556"/>
      <point x="881" y="1556" type="curve" smooth="yes"/>
      <point x="655" y="1556"/>
      <point x="532" y="1428"/>
      <point x="532" y="1193" type="curve" smooth="yes"/>
      <point x="532" y="17" type="line"/>
    </contour>
  </outline>
</glyph>
<glyph name="ubar" format="2">
  <advance height="2479" width="1260"/>
  <unicode hex="0289"/>
  <anchor x="631" y="0" name="bottom"/>
  <anchor x="1068" y="0" name="ogonek"/>
  <anchor x="631" y="1303" name="top"/>
  <outline>
    <contour>
      <point x="1260" y="713" type="line"/>
      <point x="0" y="713" type="line"/>
      <point x="0" y="579" type="line"/>
      <point x="1260" y="579" type="line"/>
    </contour>
    <component base="u" xOffset="35"/>
  </outline>
</glyph>
<glyph name="upsilon-latin" format="2">
  <advance height="2479" width="1203"/>
  <unicode hex="028A"/>
  <outline>
    <contour>
      <point x="602" y="-23" type="curve" smooth="yes"/>
      <point x="885" y="-23"/>
      <point x="1098" y="212"/>
      <point x="1098" y="505" type="curve" smooth="yes"/>
      <point x="1098" y="692"/>
      <point x="1012" y="849"/>
      <point x="863" y="945" type="curve"/>
      <point x="863" y="957" type="line"/>
      <point x="1097" y="957" type="line"/>
      <point x="1097" y="1117" type="line"/>
      <point x="698" y="1117" type="line"/>
      <point x="698" y="924" type="line"/>
      <point x="835" y="866"/>
      <point x="925" y="705"/>
      <point x="925" y="513" type="curve" smooth="yes"/>
      <point x="925" y="284"/>
      <point x="796" y="131"/>
      <point x="601" y="131" type="curve" smooth="yes"/>
      <point x="405" y="131"/>
      <point x="277" y="284"/>
      <point x="278" y="513" type="curve" smooth="yes"/>
      <point x="277" y="705"/>
      <point x="367" y="866"/>
      <point x="505" y="924" type="curve"/>
      <point x="505" y="1117" type="line"/>
      <point x="105" y="1117" type="line"/>
      <point x="105" y="957" type="line"/>
      <point x="339" y="957" type="line"/>
      <point x="339" y="945" type="line"/>
      <point x="190" y="849"/>
      <point x="105" y="692"/>
      <point x="105" y="506" type="curve" smooth="yes"/>
      <point x="105" y="212"/>
      <point x="319" y="-23"/>
    </contour>
  </outline>
</glyph>
<glyph name="Ysmall" format="2">
  <advance height="2479" width="1060"/>
  <unicode hex="028F"/>
  <outline>
    <contour>
      <point x="445" y="0" type="line"/>
      <point x="617" y="0" type="line"/>
      <point x="617" y="461" type="line"/>
      <point x="1020" y="1117" type="line"/>
      <point x="819" y="1117" type="line"/>
      <point x="534" y="636" type="line"/>
      <point x="528" y="636" type="line"/>
      <point x="243" y="1117" type="line"/>
      <point x="41" y="1117" type="line"/>
      <point x="445" y="461" type="line"/>
    </contour>
  </outline>
</glyph>
<glyph name="zcurl" format="2">
  <advance height="2479" width="1260"/>
  <unicode hex="0291"/>
  <outline>
    <contour>
      <point x="678" y="0" type="line"/>
      <point x="783" y="0" type="line" smooth="yes"/>
      <point x="1105" y="0"/>
      <point x="1216" y="204"/>
      <point x="1216" y="337" type="curve" smooth="yes"/>
      <point x="1216" y="474"/>
      <point x="1100" y="573"/>
      <point x="960" y="573" type="curve" smooth="yes"/>
      <point x="759" y="573"/>
      <point x="631" y="367"/>
      <point x="384" y="20" type="curve" smooth="yes"/>
      <point x="297" y="-102" type="line"/>
      <point x="431" y="-192" type="line"/>
      <point x="582" y="20" type="line" smooth="yes"/>
      <point x="756" y="268"/>
      <point x="832" y="407"/>
      <point x="948" y="407" type="curve" smooth="yes"/>
      <point x="998" y="407"/>
      <point x="1047" y="381"/>
      <point x="1047" y="323" type="curve" smooth="yes"/>
      <point x="1047" y="244"/>
      <point x="960" y="160"/>
      <point x="785" y="160" type="curve" smooth="yes"/>
      <point x="678" y="160" type="line"/>
    </contour>
    <contour>
      <point x="768" y="160" type="line"/>
      <point x="361" y="160" type="line"/>
      <point x="986" y="980" type="line"/>
      <point x="986" y="1117" type="line"/>
      <point x="125" y="1117" type="line"/>
      <point x="125" y="957" type="line"/>
      <point x="765" y="957" type="line"/>
      <point x="137" y="145" type="line"/>
      <point x="137" y="0" type="line"/>
      <point x="768" y="0" type="line"/>
    </contour>
  </outline>
</glyph>
<glyph name="ezhcurl" format="2">
  <advance height="2479" width="1314"/>
  <unicode hex="0293"/>
  <outline>
    <contour>
      <point x="212" y="1117" type="line"/>
      <point x="212" y="957" type="line"/>
      <point x="849" y="957" type="line"/>
      <point x="849" y="945" type="line"/>
      <point x="477" y="497" type="line"/>
      <point x="477" y="352" type="line"/>
      <point x="617" y="352" type="line" smooth="yes"/>
      <point x="806" y="352"/>
      <point x="940" y="230"/>
      <point x="940" y="68" type="curve" smooth="yes"/>
      <point x="940" y="-73"/>
      <point x="835" y="-259"/>
      <point x="570" y="-259" type="curve" smooth="yes"/>
      <point x="433" y="-259"/>
      <point x="303" y="-207"/>
      <point x="303" y="-111" type="curve" smooth="yes"/>
      <point x="303" y="-47"/>
      <point x="364" y="-3"/>
      <point x="468" y="-3" type="curve" smooth="yes"/>
      <point x="608" y="-3"/>
      <point x="718" y="-82"/>
      <point x="791" y="-143" type="curve" smooth="yes"/>
      <point x="1073" y="-375" type="line"/>
      <point x="1172" y="-259" type="line"/>
      <point x="890" y="-26" type="line" smooth="yes"/>
      <point x="799" y="49"/>
      <point x="655" y="157"/>
      <point x="463" y="157" type="curve" smooth="yes"/>
      <point x="268" y="157"/>
      <point x="151" y="49"/>
      <point x="151" y="-108" type="curve" smooth="yes"/>
      <point x="151" y="-305"/>
      <point x="337" y="-419"/>
      <point x="561" y="-419" type="curve" smooth="yes"/>
      <point x="911" y="-419"/>
      <point x="1117" y="-160"/>
      <point x="1117" y="79" type="curve" smooth="yes"/>
      <point x="1117" y="300"/>
      <point x="943" y="465"/>
      <point x="687" y="492" type="curve"/>
      <point x="687" y="503" type="line"/>
      <point x="1088" y="986" type="line"/>
      <point x="1088" y="1117" type="line"/>
    </contour>
  </outline>
</glyph>
<glyph name="cstretched" format="2">
  <advance height="2479" width="1143"/>
  <unicode hex="0297"/>
  <outline>
    <contour>
      <point x="611" y="-442" type="curve" smooth="yes"/>
      <point x="841" y="-442"/>
      <point x="1030" y="-292"/>
      <point x="1050" y="-93" type="curve"/>
      <point x="879" y="-93" type="line"/>
      <point x="858" y="-204"/>
      <point x="743" y="-288"/>
      <point x="611" y="-288" type="curve" smooth="yes"/>
      <point x="410" y="-288"/>
      <point x="276" y="-33"/>
      <point x="276" y="351" type="curve" smooth="yes"/>
      <point x="276" y="729"/>
      <point x="410" y="977"/>
      <point x="611" y="977" type="curve" smooth="yes"/>
      <point x="743" y="977"/>
      <point x="858" y="893"/>
      <point x="879" y="783" type="curve"/>
      <point x="1050" y="783" type="line"/>
      <point x="1030" y="982"/>
      <point x="839" y="1132"/>
      <point x="608" y="1132" type="curve" smooth="yes"/>
      <point x="305" y="1132"/>
      <point x="105" y="819"/>
      <point x="105" y="343" type="curve" smooth="yes"/>
      <point x="105" y="-131"/>
      <point x="305" y="-442"/>
    </contour>
  </outline>
</glyph>
<glyph name="eopenclosed" format="2">
  <advance height="2479" width="1152"/>
  <unicode hex="029A"/>
  <outline>
    <contour>
      <point x="556" y="-20" type="curve" smooth="yes"/>
      <point x="887" y="-20"/>
      <point x="1059" y="205"/>
      <point x="1059" y="576" type="curve"/>
      <point x="887" y="576" type="line"/>
      <point x="887" y="303"/>
      <point x="780" y="137"/>
      <point x="556" y="137" type="curve" smooth="yes"/>
      <point x="393" y="137"/>
      <point x="285" y="207"/>
      <point x="285" y="311" type="curve" smooth="yes"/>
      <point x="285" y="417"/>
      <point x="384" y="500"/>
      <point x="541" y="500" type="curve" smooth="yes"/>
      <point x="675" y="500" type="line"/>
      <point x="675" y="582" type="line"/>
      <point x="524" y="582" type="line"/>
      <point x="176" y="582"/>
      <point x="105" y="421"/>
      <point x="105" y="303" type="curve" smooth="yes"/>
      <point x="105" y="109"/>
      <point x="296" y="-20"/>
    </contour>
    <contour>
      <point x="524" y="535" type="curve"/>
      <point x="675" y="535" type="line"/>
      <point x="675" y="649" type="line"/>
      <point x="541" y="649" type="line" smooth="yes"/>
      <point x="379" y="649"/>
      <point x="300" y="710"/>
      <point x="300" y="803" type="curve" smooth="yes"/>
      <point x="300" y="906"/>
      <point x="397" y="977"/>
      <point x="544" y="977" type="curve" smooth="yes"/>
      <point x="775" y="977"/>
      <point x="887" y="825"/>
      <point x="887" y="576" type="curve"/>
      <point x="1059" y="576" type="line"/>
      <point x="1059" y="921"/>
      <point x="885" y="1132"/>
      <point x="553" y="1132" type="curve" smooth="yes"/>
      <point x="298" y="1132"/>
      <point x="125" y="1009"/>
      <point x="125" y="803" type="curve" smooth="yes"/>
      <point x="125" y="684"/>
      <point x="183" y="535"/>
    </contour>
  </outline>
</glyph>
<glyph name="Gsmallhook" format="2">
  <advance height="2479" width="1247"/>
  <unicode hex="029B"/>
  <outline>
    <contour>
      <point x="1057" y="765" type="line"/>
      <point x="1057" y="855" type="line" smooth="yes"/>
      <point x="1057" y="972"/>
      <point x="1116" y="1012"/>
      <point x="1209" y="1012" type="curve" smooth="yes"/>
      <point x="1223" y="1012"/>
      <point x="1247" y="1009"/>
      <point x="1264" y="1007" type="curve"/>
      <point x="1264" y="1140" type="line"/>
      <point x="1235" y="1149"/>
      <point x="1194" y="1155"/>
      <point x="1165" y="1155" type="curve" smooth="yes"/>
      <point x="999" y="1155"/>
      <point x="921" y="1047"/>
      <point x="921" y="855" type="curve" smooth="yes"/>
      <point x="921" y="765" type="line"/>
    </contour>
    <component base="Gsmall"/>
  </outline>
</glyph>
<glyph name="dezh" format="2">
  <advance height="2479" width="2222"/>
  <unicode hex="02A4"/>
  <anchor x="615" y="0" name="bottom"/>
  <anchor x="1005" y="1280" name="cross"/>
  <anchor x="1233" y="1489" name="raccent"/>
  <anchor x="599" y="1489" name="top"/>
  <outline>
    <contour>
      <point x="1549" y="-442" type="curve" smooth="yes"/>
      <point x="1855" y="-442"/>
      <point x="2080" y="-241"/>
      <point x="2080" y="39" type="curve" smooth="yes"/>
      <point x="2080" y="301"/>
      <point x="1886" y="479"/>
      <point x="1591" y="492" type="curve"/>
      <point x="1591" y="503" type="line"/>
      <point x="1990" y="986" type="line"/>
      <point x="1990" y="1117" type="line"/>
      <point x="1080.1875" y="1117.0" type="line"/>
      <point x="1080.1875" y="957.0" type="line"/>
      <point x="1743" y="957" type="line"/>
      <point x="1743" y="945" type="line"/>
      <point x="1370" y="497" type="line"/>
      <point x="1370" y="352" type="line"/>
      <point x="1493" y="352" type="line" smooth="yes"/>
      <point x="1743" y="352"/>
      <point x="1909" y="224"/>
      <point x="1909" y="32" type="curve" smooth="yes"/>
      <point x="1909" y="-153"/>
      <point x="1756" y="-282"/>
      <point x="1545" y="-282" type="curve" smooth="yes"/>
      <point x="1414" y="-282"/>
      <point x="1333" y="-237"/>
      <point x="1241" y="-113" type="curve"/>
      <point x="1093" y="-218" type="line"/>
      <point x="1162" y="-335"/>
      <point x="1300" y="-442"/>
    </contour>
    <component base="d"/>
  </outline>
</glyph>
<glyph name="dzcurl" format="2">
  <advance height="2479" width="2319"/>
  <unicode hex="02A5"/>
  <anchor x="615" y="0" name="bottom"/>
  <anchor x="1005" y="1280" name="cross"/>
  <anchor x="1233" y="1489" name="raccent"/>
  <anchor x="599" y="1489" name="top"/>
  <outline>
    <contour>
      <point x="1737" y="0" type="line"/>
      <point x="1841" y="0" type="line" smooth="yes"/>
      <point x="2164" y="0"/>
      <point x="2275" y="204"/>
      <point x="2275" y="337" type="curve" smooth="yes"/>
      <point x="2275" y="474"/>
      <point x="2159" y="573"/>
      <point x="2019" y="573" type="curve" smooth="yes"/>
      <point x="1818" y="573"/>
      <point x="1690" y="367"/>
      <point x="1443" y="20" type="curve" smooth="yes"/>
      <point x="1356" y="-102" type="line"/>
      <point x="1489" y="-192" type="line"/>
      <point x="1641" y="20" type="line" smooth="yes"/>
      <point x="1816" y="267"/>
      <point x="1891" y="407"/>
      <point x="2007" y="407" type="curve" smooth="yes"/>
      <point x="2057" y="407"/>
      <point x="2106" y="381"/>
      <point x="2106" y="323" type="curve" smooth="yes"/>
      <point x="2106" y="244"/>
      <point x="2019" y="160"/>
      <point x="1844" y="160" type="curve" smooth="yes"/>
      <point x="1737" y="160" type="line"/>
    </contour>
    <contour>
      <point x="1827" y="160" type="line"/>
      <point x="1420" y="160" type="line"/>
      <point x="2045" y="980" type="line"/>
      <point x="2045" y="1117" type="line"/>
      <point x="1024" y="1117" type="line"/>
      <point x="1024" y="957" type="line"/>
      <point x="1824" y="957" type="line"/>
      <point x="1196" y="145" type="line"/>
      <point x="1196" y="0" type="line"/>
      <point x="1827" y="0" type="line"/>
    </contour>
    <component base="d"/>
  </outline>
</glyph>
<glyph name="ts" format="2">
  <advance height="2479" width="1658"/>
  <unicode hex="02A6"/>
  <outline>
    <contour>
      <point x="535" y="-15" type="curve" smooth="yes"/>
      <point x="714" y="-15"/>
      <point x="834" y="88"/>
      <point x="864" y="268" type="curve"/>
      <point x="695" y="268" type="line"/>
      <point x="685" y="193"/>
      <point x="633" y="151"/>
      <point x="553" y="151" type="curve" smooth="yes"/>
      <point x="477" y="151"/>
      <point x="404" y="175"/>
      <point x="404" y="320" type="curve" smooth="yes"/>
      <point x="404" y="1385" type="line"/>
      <point x="233" y="1385" type="line"/>
      <point x="233" y="273" type="line" smooth="yes"/>
      <point x="233" y="79"/>
      <point x="390" y="-15"/>
    </contour>
    <contour>
      <point x="64" y="972" type="line"/>
      <point x="643" y="972" type="line"/>
      <point x="643" y="1117" type="line"/>
      <point x="64" y="1117" type="line"/>
    </contour>
    <contour>
      <point x="1120" y="-23" type="curve" smooth="yes"/>
      <point x="1380" y="-23"/>
      <point x="1556" y="119"/>
      <point x="1556" y="311" type="curve" smooth="yes"/>
      <point x="1556" y="467"/>
      <point x="1459" y="565"/>
      <point x="1260" y="614" type="curve" smooth="yes"/>
      <point x="1094" y="655" type="line" smooth="yes"/>
      <point x="961" y="687"/>
      <point x="902" y="732"/>
      <point x="902" y="817" type="curve" smooth="yes"/>
      <point x="902" y="913"/>
      <point x="1004" y="983"/>
      <point x="1140" y="983" type="curve" smooth="yes"/>
      <point x="1290" y="983"/>
      <point x="1352" y="900"/>
      <point x="1382" y="823" type="curve"/>
      <point x="1536" y="867" type="line"/>
      <point x="1482" y="1025"/>
      <point x="1361" y="1132"/>
      <point x="1140" y="1132" type="curve" smooth="yes"/>
      <point x="905" y="1132"/>
      <point x="730" y="998"/>
      <point x="730" y="809" type="curve" smooth="yes"/>
      <point x="730" y="655"/>
      <point x="822" y="551"/>
      <point x="1027" y="503" type="curve" smooth="yes"/>
      <point x="1213" y="460" type="line" smooth="yes"/>
      <point x="1326" y="433"/>
      <point x="1379" y="380"/>
      <point x="1379" y="303" type="curve" smooth="yes"/>
      <point x="1379" y="207"/>
      <point x="1277" y="128"/>
      <point x="1117" y="128" type="curve" smooth="yes"/>
      <point x="978" y="128"/>
      <point x="886" y="179"/>
      <point x="863" y="268" type="curve"/>
      <point x="695" y="268" type="line"/>
      <point x="735" y="78"/>
      <point x="892" y="-23"/>
    </contour>
  </outline>
</glyph>
<glyph name="tccurl" format="2">
  <advance height="2479" width="1670"/>
  <unicode hex="02A8"/>
  <outline>
    <contour>
      <point x="643" y="1117" type="line"/>
      <point x="64" y="1117" type="line"/>
      <point x="64" y="972" type="line"/>
      <point x="643" y="972" type="line"/>
    </contour>
    <contour>
      <point x="233" y="1385" type="line"/>
      <point x="233" y="300" type="line" smooth="yes"/>
      <point x="233" y="87"/>
      <point x="365" y="-16"/>
      <point x="529" y="-15" type="curve" smooth="yes"/>
      <point x="689" y="-13"/>
      <point x="833" y="86"/>
      <point x="940" y="209" type="curve" smooth="yes"/>
      <point x="1050" y="337"/>
      <point x="1140" y="401"/>
      <point x="1260" y="401" type="curve" smooth="yes"/>
      <point x="1345" y="401"/>
      <point x="1379" y="369"/>
      <point x="1379" y="308" type="curve" smooth="yes"/>
      <point x="1379" y="194"/>
      <point x="1257" y="131"/>
      <point x="1126" y="131" type="curve" smooth="yes"/>
      <point x="922" y="131"/>
      <point x="791" y="300"/>
      <point x="791" y="559" type="curve" smooth="yes"/>
      <point x="791" y="812"/>
      <point x="925" y="977"/>
      <point x="1126" y="977" type="curve" smooth="yes"/>
      <point x="1277" y="977"/>
      <point x="1367" y="884"/>
      <point x="1393" y="783" type="curve"/>
      <point x="1565" y="783" type="line"/>
      <point x="1536" y="992"/>
      <point x="1359" y="1132"/>
      <point x="1123" y="1132" type="curve" smooth="yes"/>
      <point x="820" y="1132"/>
      <point x="620" y="893"/>
      <point x="620" y="553" type="curve" smooth="yes"/>
      <point x="620" y="218"/>
      <point x="812" y="-23"/>
      <point x="1126" y="-23" type="curve" smooth="yes"/>
      <point x="1356" y="-23"/>
      <point x="1539" y="109"/>
      <point x="1539" y="305" type="curve" smooth="yes"/>
      <point x="1539" y="447"/>
      <point x="1447" y="556"/>
      <point x="1265" y="556" type="curve" smooth="yes"/>
      <point x="1083" y="556"/>
      <point x="945" y="453"/>
      <point x="809" y="308" type="curve" smooth="yes"/>
      <point x="717" y="211"/>
      <point x="614" y="143"/>
      <point x="529" y="143" type="curve" smooth="yes"/>
      <point x="467" y="143"/>
      <point x="404" y="180"/>
      <point x="404" y="300" type="curve" smooth="yes"/>
      <point x="404" y="1385" type="line"/>
    </contour>
  </outline>
</glyph>
<glyph name="lsdigraph" format="2">
  <advance height="2479" width="1437"/>
  <unicode hex="02AA"/>
  <anchor x="212" y="0" name="bottom"/>
  <anchor x="151" y="768" name="cross"/>
  <anchor x="378" y="1489" name="raccent"/>
  <anchor x="148" y="1676" name="top"/>
  <outline>
    <contour>
      <point x="314" y="-9" type="line"/>
      <point x="493" y="-9"/>
      <point x="613" y="88"/>
      <point x="643" y="268" type="curve"/>
      <point x="474" y="268" type="line"/>
      <point x="464" y="193"/>
      <point x="412" y="145"/>
      <point x="332" y="145" type="curve"/>
    </contour>
    <contour>
      <point x="899" y="-23" type="curve" smooth="yes"/>
      <point x="1159" y="-23"/>
      <point x="1335" y="119"/>
      <point x="1335" y="311" type="curve" smooth="yes"/>
      <point x="1335" y="467"/>
      <point x="1238" y="565"/>
      <point x="1039" y="614" type="curve" smooth="yes"/>
      <point x="873" y="655" type="line" smooth="yes"/>
      <point x="740" y="688"/>
      <point x="681" y="732"/>
      <point x="681" y="817" type="curve" smooth="yes"/>
      <point x="681" y="913"/>
      <point x="783" y="983"/>
      <point x="919" y="983" type="curve" smooth="yes"/>
      <point x="1069" y="983"/>
      <point x="1131" y="900"/>
      <point x="1161" y="823" type="curve"/>
      <point x="1315" y="867" type="line"/>
      <point x="1261" y="1025"/>
      <point x="1140" y="1132"/>
      <point x="919" y="1132" type="curve" smooth="yes"/>
      <point x="684" y="1132"/>
      <point x="509" y="998"/>
      <point x="509" y="809" type="curve" smooth="yes"/>
      <point x="509" y="655"/>
      <point x="601" y="550"/>
      <point x="806" y="503" type="curve" smooth="yes"/>
      <point x="992" y="460" type="line" smooth="yes"/>
      <point x="1105" y="434"/>
      <point x="1158" y="380"/>
      <point x="1158" y="303" type="curve" smooth="yes"/>
      <point x="1158" y="207"/>
      <point x="1056" y="128"/>
      <point x="896" y="128" type="curve" smooth="yes"/>
      <point x="757" y="128"/>
      <point x="665" y="179"/>
      <point x="642" y="268" type="curve"/>
      <point x="474" y="268" type="line"/>
      <point x="514" y="78"/>
      <point x="671" y="-23"/>
    </contour>
    <component base="l.ss02" xOffset="-93"/>
  </outline>
</glyph>
<glyph name="lzdigraph" format="2">
  <advance height="2479" width="1481"/>
  <unicode hex="02AB"/>
  <outline>
    <contour>
      <point x="1364" y="160" type="line"/>
      <point x="576" y="160" type="line"/>
      <point x="576" y="0" type="line"/>
      <point x="1364" y="0" type="line"/>
    </contour>
    <contour>
      <point x="1350" y="980" type="line"/>
      <point x="1350" y="1117" type="line"/>
      <point x="1251" y="1117" type="line"/>
      <point x="500" y="145" type="line"/>
      <point x="500" y="0" type="line"/>
      <point x="602" y="0" type="line"/>
    </contour>
    <contour>
      <point x="1263" y="1117" type="line"/>
      <point x="256" y="1117" type="line"/>
      <point x="256" y="957" type="line"/>
      <point x="1263" y="957" type="line"/>
    </contour>
    <contour>
      <point x="329" y="1489" type="line"/>
      <point x="157" y="1489" type="line"/>
      <point x="157" y="0" type="line"/>
      <point x="329" y="0" type="line"/>
    </contour>
  </outline>
</glyph>
<glyph name="bidentalpercussive" format="2">
  <advance height="2479" width="1105"/>
  <unicode hex="02AD"/>
  <outline>
    <contour>
      <point x="823" y="582" type="line"/>
      <point x="279" y="582" type="line"/>
      <point x="279" y="460" type="line"/>
      <point x="823" y="460" type="line"/>
    </contour>
    <contour>
      <point x="300" y="582" type="line"/>
      <point x="148" y="582" type="line"/>
      <point x="148" y="0" type="line"/>
      <point x="300" y="0" type="line"/>
    </contour>
    <contour>
      <point x="960" y="582" type="line"/>
      <point x="809" y="582" type="line"/>
      <point x="809" y="0" type="line"/>
      <point x="960" y="0" type="line"/>
    </contour>
    <contour>
      <point x="823" y="1455" type="line"/>
      <point x="279" y="1455" type="line"/>
      <point x="279" y="1332" type="line"/>
      <point x="823" y="1332" type="line"/>
    </contour>
    <contour>
      <point x="300" y="1455" type="line"/>
      <point x="148" y="1455" type="line"/>
      <point x="148" y="876" type="line"/>
      <point x="300" y="876" type="line"/>
    </contour>
    <contour>
      <point x="960" y="1455" type="line"/>
      <point x="809" y="1455" type="line"/>
      <point x="809" y="876" type="line"/>
      <point x="960" y="876" type="line"/>
    </contour>
  </outline>
</glyph>
<glyph name="hturnedfishhook" format="2">
  <advance height="2479" width="1358"/>
  <unicode hex="02AE"/>
  <outline>
    <contour>
      <point x="87" y="977" type="line"/>
      <point x="102" y="980"/>
      <point x="122" y="983"/>
      <point x="143" y="983" type="curve" smooth="yes"/>
      <point x="236" y="983"/>
      <point x="305" y="948"/>
      <point x="305" y="832" type="curve" smooth="yes"/>
      <point x="305" y="407" type="line" smooth="yes"/>
      <point x="305" y="119"/>
      <point x="457" y="-15"/>
      <point x="687" y="-15" type="curve" smooth="yes"/>
      <point x="861" y="-15"/>
      <point x="963" y="58"/>
      <point x="1015" y="175" type="curve"/>
      <point x="1030" y="175" type="line"/>
      <point x="1030" y="-419" type="line"/>
      <point x="1201" y="-419" type="line"/>
      <point x="1201" y="1117" type="line"/>
      <point x="1030" y="1117" type="line"/>
      <point x="1030" y="445" type="line" smooth="yes"/>
      <point x="1030" y="250"/>
      <point x="905" y="140"/>
      <point x="736" y="140" type="curve" smooth="yes"/>
      <point x="573" y="140"/>
      <point x="477" y="241"/>
      <point x="477" y="419" type="curve" smooth="yes"/>
      <point x="477" y="832" type="line" smooth="yes"/>
      <point x="477" y="1024"/>
      <point x="349" y="1132"/>
      <point x="186" y="1132" type="curve" smooth="yes"/>
      <point x="151" y="1132"/>
      <point x="113" y="1132"/>
      <point x="87" y="1123" type="curve"/>
    </contour>
  </outline>
</glyph>
<glyph name="hturnedfishhookandtail" format="2">
  <advance height="2479" width="1393"/>
  <unicode hex="02AF"/>
  <outline>
    <contour>
      <point x="87" y="977" type="line"/>
      <point x="102" y="980"/>
      <point x="122" y="983"/>
      <point x="143" y="983" type="curve" smooth="yes"/>
      <point x="236" y="983"/>
      <point x="305" y="948"/>
      <point x="305" y="832" type="curve" smooth="yes"/>
      <point x="305" y="407" type="line" smooth="yes"/>
      <point x="305" y="119"/>
      <point x="457" y="-15"/>
      <point x="687" y="-15" type="curve" smooth="yes"/>
      <point x="861" y="-15"/>
      <point x="963" y="58"/>
      <point x="1015" y="175" type="curve"/>
      <point x="1030" y="175" type="line"/>
      <point x="1030" y="-119" type="line" smooth="yes"/>
      <point x="1030" y="-311"/>
      <point x="1158" y="-419"/>
      <point x="1321" y="-419" type="curve" smooth="yes"/>
      <point x="1356" y="-419"/>
      <point x="1393" y="-419"/>
      <point x="1420" y="-410" type="curve"/>
      <point x="1420" y="-265" type="line"/>
      <point x="1405" y="-268"/>
      <point x="1385" y="-271"/>
      <point x="1364" y="-271" type="curve" smooth="yes"/>
      <point x="1271" y="-271"/>
      <point x="1201" y="-236"/>
      <point x="1201" y="-119" type="curve" smooth="yes"/>
      <point x="1201" y="1117" type="line"/>
      <point x="1030" y="1117" type="line"/>
      <point x="1030" y="445" type="line" smooth="yes"/>
      <point x="1030" y="250"/>
      <point x="905" y="140"/>
      <point x="736" y="140" type="curve" smooth="yes"/>
      <point x="573" y="140"/>
      <point x="477" y="241"/>
      <point x="477" y="419" type="curve" smooth="yes"/>
      <point x="477" y="832" type="line" smooth="yes"/>
      <point x="477" y="1024"/>
      <point x="349" y="1132"/>
      <point x="186" y="1132" type="curve" smooth="yes"/>
      <point x="151" y="1132"/>
      <point x="113" y="1132"/>
      <point x="87" y="1123" type="curve"/>
    </contour>
  </outline>
</glyph>
<glyph name="jmod" format="2">
  <advance height="2479" width="352"/>
  <unicode hex="02B2"/>
  <outline>
    <contour>
      <point x="99" y="1489" type="line"/>
      <point x="99" y="692" type="line"/>
      <point x="99" y="628"/>
      <point x="64" y="591"/>
      <point x="-6" y="591" type="curve" smooth="yes"/>
      <point x="-12" y="591"/>
      <point x="-20" y="591"/>
      <point x="-29" y="593" type="curve"/>
      <point x="-29" y="468" type="line"/>
      <point x="-15" y="468"/>
      <point x="-6" y="468"/>
      <point x="3" y="468" type="curve" smooth="yes"/>
      <point x="154" y="468"/>
      <point x="253" y="538"/>
      <point x="253" y="689" type="curve"/>
      <point x="253" y="1489" type="line"/>
    </contour>
    <contour>
      <point x="175" y="1591" type="curve" smooth="yes"/>
      <point x="224" y="1591"/>
      <point x="265" y="1632"/>
      <point x="265" y="1679" type="curve" smooth="yes"/>
      <point x="265" y="1725"/>
      <point x="224" y="1766"/>
      <point x="175" y="1766" type="curve" smooth="yes"/>
      <point x="128" y="1766"/>
      <point x="87" y="1725"/>
      <point x="87" y="1679" type="curve" smooth="yes"/>
      <point x="87" y="1629"/>
      <point x="128" y="1591"/>
    </contour>
  </outline>
</glyph>
<glyph name="wmod" format="2">
  <advance height="2479" width="1132"/>
  <unicode hex="02B7"/>
  <outline>
    <contour>
      <point x="247" y="745" type="line"/>
      <point x="413" y="745" type="line"/>
      <point x="561" y="1277" type="line"/>
      <point x="570" y="1277" type="line"/>
      <point x="719" y="745" type="line"/>
      <point x="884" y="745" type="line"/>
      <point x="1094" y="1489" type="line"/>
      <point x="937" y="1489" type="line"/>
      <point x="797" y="934" type="line"/>
      <point x="791" y="934" type="line"/>
      <point x="643" y="1489" type="line"/>
      <point x="489" y="1489" type="line"/>
      <point x="343" y="934" type="line"/>
      <point x="337" y="934" type="line"/>
      <point x="195" y="1489" type="line"/>
      <point x="38" y="1489" type="line"/>
    </contour>
  </outline>
</glyph>
<glyph name="ymod" format="2">
  <advance height="2479" width="777"/>
  <unicode hex="02B8"/>
  <outline>
    <contour>
      <point x="192" y="454" type="curve" smooth="yes"/>
      <point x="326" y="454"/>
      <point x="401" y="535"/>
      <point x="439" y="640" type="curve" smooth="yes"/>
      <point x="739" y="1489" type="line"/>
      <point x="573" y="1489" type="line"/>
      <point x="390" y="899" type="line"/>
      <point x="384" y="899" type="line"/>
      <point x="201" y="1489" type="line"/>
      <point x="38" y="1489" type="line"/>
      <point x="305" y="727" type="line"/>
      <point x="282" y="666" type="line" smooth="yes"/>
      <point x="250" y="585"/>
      <point x="198" y="570"/>
      <point x="116" y="596" type="curve"/>
      <point x="81" y="474" type="line"/>
      <point x="105" y="465"/>
      <point x="137" y="454"/>
    </contour>
  </outline>
</glyph>
<glyph name="commaturnedmod" format="2">
  <advance height="2479" width="547"/>
  <unicode hex="02BB"/>
  <outline>
    <contour>
      <point x="125" y="986" type="line"/>
      <point x="323" y="986" type="line"/>
      <point x="323" y="1172" type="line" smooth="yes"/>
      <point x="323" y="1289"/>
      <point x="358" y="1388"/>
      <point x="422" y="1484" type="curve"/>
      <point x="308" y="1559" type="line"/>
      <point x="192" y="1460"/>
      <point x="125" y="1297"/>
      <point x="125" y="1169" type="curve" smooth="yes"/>
    </contour>
  </outline>
</glyph>
<glyph name="ringhalfright" format="2">
  <advance height="2479" width="361"/>
  <unicode hex="02BE"/>
  <anchor x="160" y="1152" name="_rhalfring"/>
  <outline>
    <contour>
      <point x="79" y="1111" type="line"/>
      <point x="192" y="1111"/>
      <point x="285" y="1190"/>
      <point x="285" y="1306" type="curve" smooth="yes"/>
      <point x="285" y="1425"/>
      <point x="192" y="1510"/>
      <point x="79" y="1510" type="curve"/>
      <point x="79" y="1417" type="line"/>
      <point x="134" y="1417"/>
      <point x="180" y="1370"/>
      <point x="180" y="1306" type="curve" smooth="yes"/>
      <point x="180" y="1248"/>
      <point x="134" y="1201"/>
      <point x="79" y="1201" type="curve"/>
    </contour>
  </outline>
</glyph>
<glyph name="ringhalfleft" format="2">
  <advance height="2479" width="361"/>
  <unicode hex="02BF"/>
  <outline>
    <contour>
      <point x="285" y="1111" type="curve"/>
      <point x="285" y="1201" type="line"/>
      <point x="227" y="1201"/>
      <point x="183" y="1248"/>
      <point x="183" y="1306" type="curve" smooth="yes"/>
      <point x="183" y="1370"/>
      <point x="227" y="1417"/>
      <point x="285" y="1417" type="curve"/>
      <point x="285" y="1510" type="line"/>
      <point x="172" y="1510"/>
      <point x="79" y="1425"/>
      <point x="79" y="1306" type="curve" smooth="yes"/>
      <point x="79" y="1190"/>
      <point x="172" y="1111"/>
    </contour>
  </outline>
</glyph>
<glyph name="glottalstopmod" format="2">
  <advance height="2479" width="919"/>
  <unicode hex="02C0"/>
  <outline>
    <contour>
      <point x="116" y="1516" type="curve"/>
      <point x="276" y="1516" type="line"/>
      <point x="291" y="1594"/>
      <point x="329" y="1652"/>
      <point x="436" y="1652" type="curve" smooth="yes"/>
      <point x="582" y="1652"/>
      <point x="620" y="1542"/>
      <point x="620" y="1405" type="curve" smooth="yes"/>
      <point x="620" y="1312" type="line" smooth="yes"/>
      <point x="620" y="1178"/>
      <point x="605" y="1033"/>
      <point x="436" y="1033" type="curve" smooth="yes"/>
      <point x="404" y="1033" type="line"/>
      <point x="404" y="881" type="line"/>
      <point x="436" y="881" type="line" smooth="yes"/>
      <point x="681" y="881"/>
      <point x="803" y="1050"/>
      <point x="803" y="1312" type="curve" smooth="yes"/>
      <point x="803" y="1405" type="line" smooth="yes"/>
      <point x="803" y="1620"/>
      <point x="681" y="1807"/>
      <point x="436" y="1807" type="curve" smooth="yes"/>
      <point x="244" y="1807"/>
      <point x="122" y="1679"/>
    </contour>
    <contour>
      <point x="369" y="1033" type="line"/>
      <point x="369" y="652" type="line"/>
      <point x="553" y="652" type="line"/>
      <point x="553" y="1033" type="line"/>
    </contour>
  </outline>
</glyph>
<glyph name="arrowheadleftmod" format="2">
  <advance height="2479" width="919"/>
  <unicode hex="02C2"/>
  <outline>
    <contour>
      <point x="96" y="911" type="line"/>
      <point x="372" y="980" type="line"/>
      <point x="823" y="1155" type="line"/>
      <point x="823" y="1329" type="line"/>
      <point x="96" y="1033" type="line"/>
    </contour>
    <contour>
      <point x="823" y="596" type="line"/>
      <point x="823" y="771" type="line"/>
      <point x="372" y="943" type="line"/>
      <point x="96" y="1015" type="line"/>
      <point x="96" y="896" type="line"/>
    </contour>
  </outline>
</glyph>
<glyph name="arrowheadrightmod" format="2">
  <advance height="2479" width="919"/>
  <unicode hex="02C3"/>
  <outline>
    <contour>
      <point x="823" y="911" type="line"/>
      <point x="823" y="1033" type="line"/>
      <point x="96" y="1329" type="line"/>
      <point x="96" y="1155" type="line"/>
      <point x="550" y="980" type="line"/>
    </contour>
    <contour>
      <point x="96" y="596" type="line"/>
      <point x="823" y="896" type="line"/>
      <point x="823" y="1015" type="line"/>
      <point x="550" y="943" type="line"/>
      <point x="96" y="771" type="line"/>
    </contour>
  </outline>
</glyph>
<glyph name="arrowheadupmod" format="2">
  <advance height="2479" width="919"/>
  <unicode hex="02C4"/>
  <outline>
    <contour>
      <point x="652" y="585" type="line"/>
      <point x="826" y="585" type="line"/>
      <point x="529" y="1309" type="line"/>
      <point x="407" y="1309" type="line"/>
      <point x="477" y="1036" type="line"/>
    </contour>
    <contour>
      <point x="93" y="585" type="line"/>
      <point x="268" y="585" type="line"/>
      <point x="439" y="1036" type="line"/>
      <point x="512" y="1309" type="line"/>
      <point x="393" y="1309" type="line"/>
    </contour>
  </outline>
</glyph>
<glyph name="downtackmod" format="2">
  <advance height="2479" width="733"/>
  <unicode hex="02D5"/>
  <outline>
    <contour>
      <point x="163" y="399" type="line"/>
      <point x="570" y="399" type="line"/>
      <point x="570" y="538" type="line"/>
      <point x="163" y="538" type="line"/>
    </contour>
    <contour>
      <point x="291" y="172" type="line"/>
      <point x="442" y="172" type="line"/>
      <point x="442" y="538" type="line"/>
      <point x="291" y="538" type="line"/>
    </contour>
  </outline>
</glyph>
<glyph name="rhotichookmod" format="2">
  <advance height="2479" width="570"/>
  <unicode hex="02DE"/>
  <anchor x="-6" y="640" name="_rhotichook"/>
  <outline>
    <contour>
      <point x="-9" y="553" type="line"/>
      <point x="227" y="596" type="line"/>
      <point x="259" y="480"/>
      <point x="308" y="361"/>
      <point x="454" y="361" type="curve" smooth="yes"/>
      <point x="497" y="361"/>
      <point x="541" y="367"/>
      <point x="579" y="384" type="curve"/>
      <point x="547" y="538" type="line"/>
      <point x="532" y="535"/>
      <point x="506" y="527"/>
      <point x="492" y="527" type="curve" smooth="yes"/>
      <point x="381" y="527"/>
      <point x="378" y="608"/>
      <point x="352" y="771" type="curve"/>
      <point x="-12" y="701" type="line"/>
    </contour>
  </outline>
</glyph>
<glyph name="lmod" format="2">
  <advance height="2479" width="346"/>
  <unicode hex="02E1"/>
  <outline>
    <contour>
      <point x="250" y="1737" type="line"/>
      <point x="96" y="1737" type="line"/>
      <point x="96" y="745" type="line"/>
      <point x="250" y="745" type="line"/>
    </contour>
  </outline>
</glyph>
<glyph name="smod" format="2">
  <advance height="2479" width="739"/>
  <unicode hex="02E2"/>
  <outline>
    <contour>
      <point x="663" y="1295" type="line"/>
      <point x="640" y="1423"/>
      <point x="538" y="1498"/>
      <point x="372" y="1498" type="curve" smooth="yes"/>
      <point x="201" y="1498"/>
      <point x="84" y="1414"/>
      <point x="84" y="1277" type="curve" smooth="yes"/>
      <point x="84" y="1172"/>
      <point x="148" y="1100"/>
      <point x="285" y="1071" type="curve" smooth="yes"/>
      <point x="410" y="1044" type="line" smooth="yes"/>
      <point x="492" y="1027"/>
      <point x="521" y="992"/>
      <point x="521" y="948" type="curve" smooth="yes"/>
      <point x="521" y="887"/>
      <point x="457" y="847"/>
      <point x="369" y="847" type="curve" smooth="yes"/>
      <point x="282" y="847"/>
      <point x="230" y="884"/>
      <point x="212" y="957" type="curve"/>
      <point x="61" y="945" type="line"/>
      <point x="81" y="812"/>
      <point x="195" y="730"/>
      <point x="369" y="730" type="curve" smooth="yes"/>
      <point x="547" y="730"/>
      <point x="678" y="823"/>
      <point x="678" y="963" type="curve" smooth="yes"/>
      <point x="678" y="1062"/>
      <point x="611" y="1132"/>
      <point x="477" y="1161" type="curve" smooth="yes"/>
      <point x="349" y="1190" type="line" smooth="yes"/>
      <point x="271" y="1207"/>
      <point x="236" y="1239"/>
      <point x="236" y="1286" type="curve" smooth="yes"/>
      <point x="236" y="1347"/>
      <point x="300" y="1385"/>
      <point x="375" y="1385" type="curve" smooth="yes"/>
      <point x="463" y="1385"/>
      <point x="506" y="1338"/>
      <point x="521" y="1283" type="curve"/>
    </contour>
  </outline>
</glyph>
<glyph name="glottalstopreversedsuperior" format="2">
  <advance height="2479" width="919"/>
  <unicode hex="02E4"/>
  <outline>
    <contour>
      <point x="631" y="1169" type="curve"/>
      <point x="817" y="1169" type="line"/>
      <point x="817" y="1353"/>
      <point x="657" y="1466"/>
      <point x="463" y="1466" type="curve" smooth="yes"/>
      <point x="259" y="1466"/>
      <point x="102" y="1335"/>
      <point x="102" y="1103" type="curve" smooth="yes"/>
      <point x="102" y="867"/>
      <point x="256" y="751"/>
      <point x="460" y="751" type="curve"/>
      <point x="495" y="751" type="line"/>
      <point x="495" y="902" type="line"/>
      <point x="463" y="902" type="line" smooth="yes"/>
      <point x="326" y="902"/>
      <point x="285" y="980"/>
      <point x="285" y="1105" type="curve" smooth="yes"/>
      <point x="285" y="1231"/>
      <point x="335" y="1312"/>
      <point x="460" y="1312" type="curve" smooth="yes"/>
      <point x="561" y="1312"/>
      <point x="623" y="1251"/>
    </contour>
    <contour>
      <point x="547" y="652" type="line"/>
      <point x="547" y="902" type="line"/>
      <point x="364" y="902" type="line"/>
      <point x="364" y="652" type="line"/>
    </contour>
  </outline>
</glyph>
<glyph name="tonebarlowmod" format="2">
  <advance height="2479" width="733"/>
  <unicode hex="02E8"/>
  <outline>
    <contour>
      <point x="596" y="1457" type="line"/>
      <point x="396" y="1457" type="line"/>
      <point x="396" y="0" type="line"/>
      <point x="596" y="0" type="line"/>
    </contour>
    <contour>
      <point x="547" y="445" type="line"/>
      <point x="137" y="445" type="line"/>
      <point x="137" y="285" type="line"/>
      <point x="547" y="285" type="line"/>
    </contour>
  </outline>
</glyph>
<glyph name="unaspiratedmod" format="2">
  <advance height="2479" width="919"/>
  <unicode hex="02ED"/>
  <outline>
    <contour>
      <point x="791" y="1536" type="line"/>
      <point x="131" y="1536" type="line"/>
      <point x="131" y="1402" type="line"/>
      <point x="791" y="1402" type="line"/>
    </contour>
    <contour>
      <point x="791" y="1306" type="line"/>
      <point x="131" y="1306" type="line"/>
      <point x="131" y="1169" type="line"/>
      <point x="791" y="1169" type="line"/>
    </contour>
  </outline>
</glyph>
<glyph name="lowuparrowheadmod" format="2">
  <advance height="2479" width="733"/>
  <unicode hex="02F0"/>
  <outline>
    <contour>
      <point x="355" y="-250" type="line"/>
      <point x="404" y="-73" type="line"/>
      <point x="320" y="-73" type="line"/>
      <point x="111" y="-544" type="line"/>
      <point x="233" y="-544" type="line"/>
    </contour>
    <contour>
      <point x="500" y="-544" type="line"/>
      <point x="623" y="-544" type="line"/>
      <point x="416" y="-73" type="line"/>
      <point x="332" y="-73" type="line"/>
      <point x="381" y="-250" type="line"/>
    </contour>
  </outline>
</glyph>
<glyph name="lowleftarrowheadmod" format="2">
  <advance height="2479" width="733"/>
  <unicode hex="02F1"/>
  <outline>
    <contour>
      <point x="113" y="-343" type="line"/>
      <point x="305" y="-300" type="line"/>
      <point x="623" y="-183" type="line"/>
      <point x="623" y="-73" type="line"/>
      <point x="113" y="-265" type="line"/>
    </contour>
    <contour>
      <point x="623" y="-547" type="line"/>
      <point x="623" y="-433" type="line"/>
      <point x="305" y="-323" type="line"/>
      <point x="113" y="-276" type="line"/>
      <point x="113" y="-352" type="line"/>
    </contour>
  </outline>
</glyph>
<glyph name="lowrightarrowheadmod" format="2">
  <advance height="2479" width="733"/>
  <unicode hex="02F2"/>
  <outline>
    <contour>
      <point x="623" y="-343" type="line"/>
      <point x="623" y="-265" type="line"/>
      <point x="113" y="-73" type="line"/>
      <point x="113" y="-183" type="line"/>
      <point x="431" y="-300" type="line"/>
    </contour>
    <contour>
      <point x="113" y="-547" type="line"/>
      <point x="623" y="-352" type="line"/>
      <point x="623" y="-276" type="line"/>
      <point x="431" y="-323" type="line"/>
      <point x="113" y="-433" type="line"/>
    </contour>
  </outline>
</glyph>
<glyph name="lowringmod" format="2">
  <advance height="2479" width="547"/>
  <unicode hex="02F3"/>
  <anchor x="273" y="0" name="_bottom"/>
  <outline>
    <contour>
      <point x="96" y="-244" type="curve" smooth="yes"/>
      <point x="96" y="-346"/>
      <point x="175" y="-413"/>
      <point x="273" y="-413" type="curve" smooth="yes"/>
      <point x="367" y="-413"/>
      <point x="451" y="-346"/>
      <point x="451" y="-244" type="curve" smooth="yes"/>
      <point x="451" y="-145"/>
      <point x="367" y="-76"/>
      <point x="273" y="-76" type="curve" smooth="yes"/>
      <point x="175" y="-76"/>
      <point x="96" y="-145"/>
    </contour>
    <contour>
      <point x="186" y="-244" type="curve" smooth="yes"/>
      <point x="186" y="-195"/>
      <point x="224" y="-157"/>
      <point x="273" y="-157" type="curve" smooth="yes"/>
      <point x="317" y="-157"/>
      <point x="361" y="-195"/>
      <point x="361" y="-244" type="curve" smooth="yes"/>
      <point x="361" y="-294"/>
      <point x="317" y="-332"/>
      <point x="273" y="-332" type="curve" smooth="yes"/>
      <point x="224" y="-332"/>
      <point x="186" y="-294"/>
    </contour>
  </outline>
</glyph>
<glyph name="endhightonemod" format="2">
  <advance height="2479" width="547"/>
  <unicode hex="02FA"/>
  <outline>
    <contour>
      <point x="323" y="1149" type="line"/>
      <point x="474" y="1149" type="line"/>
      <point x="474" y="1536" type="line"/>
      <point x="76" y="1536" type="line"/>
      <point x="76" y="1396" type="line"/>
      <point x="323" y="1396" type="line"/>
    </contour>
  </outline>
</glyph>
<glyph name="openshelfmod" format="2">
  <advance height="2479" width="919"/>
  <unicode hex="02FE"/>
  <outline>
    <contour>
      <point x="800" y="-355" type="line"/>
      <point x="253" y="-355" type="line"/>
      <point x="253" y="-477" type="line"/>
      <point x="800" y="-477" type="line"/>
    </contour>
    <contour>
      <point x="271" y="-90" type="line"/>
      <point x="119" y="-90" type="line"/>
      <point x="119" y="-477" type="line"/>
      <point x="271" y="-477" type="line"/>
    </contour>
  </outline>
</glyph>
<glyph name="gravecomb" format="2">
  <advance height="2479"/>
  <unicode hex="0300"/>
  <outline>
    <contour>
      <point x="-628" y="1536" type="line"/>
      <point x="-870" y="1536" type="line"/>
      <point x="-605" y="1239" type="line"/>
      <point x="-436" y="1239" type="line"/>
    </contour>
  </outline>
</glyph>
<glyph name="hookabovecomb" format="2">
  <advance height="2479"/>
  <unicode hex="0309"/>
  <anchor x="-593" y="1277" name="_top"/>
  <outline>
    <contour>
      <point x="-518" y="1242" type="line"/>
      <point x="-518" y="1315" type="line"/>
      <point x="-442" y="1327"/>
      <point x="-367" y="1367"/>
      <point x="-367" y="1466" type="curve" smooth="yes"/>
      <point x="-367" y="1583"/>
      <point x="-471" y="1658"/>
      <point x="-672" y="1658" type="curve"/>
      <point x="-678" y="1548" type="line"/>
      <point x="-591" y="1548"/>
      <point x="-521" y="1524"/>
      <point x="-521" y="1472" type="curve" smooth="yes"/>
      <point x="-521" y="1425"/>
      <point x="-559" y="1405"/>
      <point x="-660" y="1399" type="curve"/>
      <point x="-660" y="1242" type="line"/>
    </contour>
  </outline>
</glyph>
<glyph name="breveinvertedcomb" format="2">
  <advance height="2479"/>
  <unicode hex="0311"/>
  <anchor x="-618" y="1187" name="_top"/>
  <outline>
    <contour>
      <point x="-921" y="1187" type="curve"/>
      <point x="-761" y="1187" type="line"/>
      <point x="-761" y="1263"/>
      <point x="-723" y="1332"/>
      <point x="-618" y="1332" type="curve" smooth="yes"/>
      <point x="-519" y="1332"/>
      <point x="-479" y="1265"/>
      <point x="-479" y="1187" type="curve"/>
      <point x="-319" y="1187" type="line"/>
      <point x="-319" y="1344"/>
      <point x="-432" y="1457"/>
      <point x="-618" y="1457" type="curve" smooth="yes"/>
      <point x="-804" y="1457"/>
      <point x="-921" y="1344"/>
    </contour>
  </outline>
</glyph>
<glyph name="commaturnedabovecomb" format="2">
  <advance height="2479"/>
  <unicode hex="0312"/>
  <anchor x="-591" y="1065" name="_marktop"/>
  <anchor x="-591" y="1684" name="mkmktop"/>
  <anchor x="-541" y="1271" name="parent_top"/>
  <outline>
    <contour>
      <point x="-689" y="986" type="line"/>
      <point x="-492" y="986" type="line"/>
      <point x="-492" y="1172" type="line" smooth="yes"/>
      <point x="-492" y="1289"/>
      <point x="-457" y="1388"/>
      <point x="-396" y="1484" type="curve"/>
      <point x="-509" y="1559" type="line"/>
      <point x="-623" y="1460"/>
      <point x="-689" y="1300"/>
      <point x="-689" y="1169" type="curve" smooth="yes"/>
    </contour>
  </outline>
</glyph>
<glyph name="lefttackbelowcomb" format="2">
  <advance height="2479"/>
  <unicode hex="0318"/>
  <outline>
    <contour>
      <point x="-550" y="-445" type="line"/>
      <point x="-399" y="-445" type="line"/>
      <point x="-399" y="-61" type="line"/>
      <point x="-550" y="-61" type="line"/>
    </contour>
    <contour>
      <point x="-797" y="-323" type="line"/>
      <point x="-410" y="-323" type="line"/>
      <point x="-410" y="-183" type="line"/>
      <point x="-797" y="-183" type="line"/>
    </contour>
  </outline>
</glyph>
<glyph name="leftangleabovecomb" format="2">
  <advance height="2479"/>
  <unicode hex="031A"/>
  <outline>
    <contour>
      <point x="-742" y="1536" type="line"/>
      <point x="-192" y="1536" type="line"/>
      <point x="-192" y="1658" type="line"/>
      <point x="-742" y="1658" type="line"/>
    </contour>
    <contour>
      <point x="-212" y="1283" type="line"/>
      <point x="-61" y="1283" type="line"/>
      <point x="-61" y="1658" type="line"/>
      <point x="-212" y="1658" type="line"/>
    </contour>
  </outline>
</glyph>
<glyph name="horncomb" format="2">
  <advance height="2479"/>
  <unicode hex="031B"/>
  <outline>
    <contour>
      <point x="-96" y="1402" type="curve" smooth="yes"/>
      <point x="-294" y="1402" type="line"/>
      <point x="-294" y="1260"/>
      <point x="-326" y="1158"/>
      <point x="-390" y="1062" type="curve"/>
      <point x="-276" y="986" type="line"/>
      <point x="-160" y="1085"/>
      <point x="-96" y="1402"/>
    </contour>
  </outline>
</glyph>
<glyph name="palatalhookcomb" format="2">
  <advance height="2479"/>
  <unicode hex="0321"/>
  <outline>
    <contour>
      <point x="-401" y="151" type="line"/>
      <point x="-401" y="-90" type="line" smooth="yes"/>
      <point x="-401" y="-212"/>
      <point x="-439" y="-271"/>
      <point x="-535" y="-271" type="curve" smooth="yes"/>
      <point x="-553" y="-271"/>
      <point x="-579" y="-271"/>
      <point x="-599" y="-265" type="curve"/>
      <point x="-599" y="-422" type="line"/>
      <point x="-567" y="-431"/>
      <point x="-512" y="-436"/>
      <point x="-483" y="-436" type="curve" smooth="yes"/>
      <point x="-294" y="-436"/>
      <point x="-201" y="-314"/>
      <point x="-201" y="-90" type="curve" smooth="yes"/>
      <point x="-201" y="151" type="line"/>
    </contour>
  </outline>
</glyph>
<glyph name="retroflexhookcomb" format="2">
  <advance height="2479"/>
  <unicode hex="0322"/>
  <outline>
    <contour>
      <point x="-26" y="-436" type="curve" smooth="yes"/>
      <point x="3" y="-436"/>
      <point x="55" y="-431"/>
      <point x="90" y="-422" type="curve"/>
      <point x="90" y="-265" type="line"/>
      <point x="70" y="-271"/>
      <point x="44" y="-271"/>
      <point x="26" y="-271" type="curve" smooth="yes"/>
      <point x="-73" y="-271"/>
      <point x="-108" y="-207"/>
      <point x="-108" y="-90" type="curve" smooth="yes"/>
      <point x="-108" y="151" type="line"/>
      <point x="-308" y="151" type="line"/>
      <point x="-308" y="-90" type="line" smooth="yes"/>
      <point x="-308" y="-314"/>
      <point x="-215" y="-436"/>
    </contour>
  </outline>
</glyph>
<glyph name="dblarchinvertedbelowcomb" format="2">
  <advance height="2479"/>
  <unicode hex="032B"/>
  <outline>
    <contour>
      <point x="-986" y="-113" type="line"/>
      <point x="-986" y="-253"/>
      <point x="-893" y="-352"/>
      <point x="-768" y="-352" type="curve" smooth="yes"/>
      <point x="-620" y="-352"/>
      <point x="-541" y="-253"/>
      <point x="-541" y="-113" type="curve"/>
      <point x="-637" y="-113" type="line"/>
      <point x="-637" y="-189"/>
      <point x="-678" y="-239"/>
      <point x="-768" y="-239" type="curve" smooth="yes"/>
      <point x="-835" y="-239"/>
      <point x="-890" y="-189"/>
      <point x="-890" y="-113" type="curve"/>
    </contour>
    <contour>
      <point x="-637" y="-113" type="line"/>
      <point x="-637" y="-253"/>
      <point x="-559" y="-352"/>
      <point x="-410" y="-352" type="curve" smooth="yes"/>
      <point x="-282" y="-352"/>
      <point x="-192" y="-253"/>
      <point x="-192" y="-113" type="curve"/>
      <point x="-288" y="-113" type="line"/>
      <point x="-288" y="-189"/>
      <point x="-343" y="-239"/>
      <point x="-410" y="-239" type="curve" smooth="yes"/>
      <point x="-500" y="-239"/>
      <point x="-541" y="-189"/>
      <point x="-541" y="-113" type="curve"/>
    </contour>
  </outline>
</glyph>
<glyph name="breveinvertedbelowcomb" format="2">
  <advance height="2479"/>
  <unicode hex="032F"/>
  <outline>
    <contour>
      <point x="-288" y="-372" type="line"/>
      <point x="-288" y="-215"/>
      <point x="-401" y="-105"/>
      <point x="-588" y="-105" type="curve" smooth="yes"/>
      <point x="-774" y="-105"/>
      <point x="-890" y="-215"/>
      <point x="-890" y="-372" type="curve"/>
      <point x="-730" y="-372" type="line"/>
      <point x="-730" y="-297"/>
      <point x="-692" y="-227"/>
      <point x="-588" y="-227" type="curve" smooth="yes"/>
      <point x="-489" y="-227"/>
      <point x="-448" y="-294"/>
      <point x="-448" y="-372" type="curve"/>
    </contour>
  </outline>
</glyph>
<glyph name="squarebelowcomb" format="2">
  <advance height="2479"/>
  <unicode hex="033B"/>
  <outline>
    <contour>
      <point x="-788" y="-486" type="line"/>
      <point x="-384" y="-486" type="line"/>
      <point x="-384" y="-81" type="line"/>
      <point x="-788" y="-81" type="line"/>
    </contour>
    <contour>
      <point x="-681" y="-189" type="line"/>
      <point x="-495" y="-189" type="line"/>
      <point x="-495" y="-375" type="line"/>
      <point x="-681" y="-375" type="line"/>
    </contour>
  </outline>
</glyph>
<glyph name="xabovecomb" format="2">
  <advance height="2479"/>
  <unicode hex="033D"/>
  <outline>
    <contour>
      <point x="-643" y="1242" type="line"/>
      <point x="-253" y="1635" type="line"/>
      <point x="-352" y="1737" type="line"/>
      <point x="-742" y="1341" type="line"/>
    </contour>
    <contour>
      <point x="-352" y="1239" type="line"/>
      <point x="-253" y="1341" type="line"/>
      <point x="-640" y="1737" type="line"/>
      <point x="-742" y="1635" type="line"/>
    </contour>
  </outline>
</glyph>
<glyph name="tildeverticalcomb" format="2">
  <advance height="2479"/>
  <unicode hex="033E"/>
  <outline>
    <contour>
      <point x="-692" y="1129" type="line"/>
      <point x="-559" y="1129"/>
      <point x="-483" y="1187"/>
      <point x="-483" y="1279" type="curve" smooth="yes"/>
      <point x="-483" y="1359"/>
      <point x="-544" y="1434"/>
      <point x="-544" y="1484" type="curve" smooth="yes"/>
      <point x="-544" y="1516"/>
      <point x="-515" y="1530"/>
      <point x="-483" y="1530" type="curve"/>
      <point x="-483" y="1649" type="line"/>
      <point x="-611" y="1649"/>
      <point x="-692" y="1597"/>
      <point x="-692" y="1507" type="curve" smooth="yes"/>
      <point x="-692" y="1428"/>
      <point x="-623" y="1359"/>
      <point x="-623" y="1306" type="curve" smooth="yes"/>
      <point x="-623" y="1277"/>
      <point x="-649" y="1248"/>
      <point x="-692" y="1248" type="curve"/>
    </contour>
  </outline>
</glyph>
<glyph name="ypogegrammenicomb" format="2">
  <advance height="2479"/>
  <unicode hex="0345"/>
  <outline>
    <contour>
      <point x="-666" y="-70" type="line"/>
      <point x="-666" y="-340" type="line" smooth="yes"/>
      <point x="-666" y="-471"/>
      <point x="-596" y="-527"/>
      <point x="-497" y="-527" type="curve" smooth="yes"/>
      <point x="-457" y="-527"/>
      <point x="-431" y="-518"/>
      <point x="-422" y="-515" type="curve"/>
      <point x="-422" y="-413" type="line"/>
      <point x="-431" y="-413"/>
      <point x="-451" y="-416"/>
      <point x="-465" y="-416" type="curve" smooth="yes"/>
      <point x="-500" y="-416"/>
      <point x="-515" y="-387"/>
      <point x="-515" y="-336" type="curve" smooth="yes"/>
      <point x="-515" y="-70" type="line"/>
    </contour>
  </outline>
</glyph>
<glyph name="gbridgeabovecomb" format="2">
  <advance height="2479"/>
  <unicode hex="0346"/>
  <outline>
    <contour>
      <point x="-928" y="1231" type="line"/>
      <point x="-777" y="1231" type="line"/>
      <point x="-777" y="1615" type="line"/>
      <point x="-928" y="1615" type="line"/>
    </contour>
    <contour>
      <point x="-797" y="1492" type="line"/>
      <point x="-384" y="1492" type="line"/>
      <point x="-384" y="1615" type="line"/>
      <point x="-797" y="1615" type="line"/>
    </contour>
    <contour>
      <point x="-399" y="1231" type="line"/>
      <point x="-247" y="1231" type="line"/>
      <point x="-247" y="1615" type="line"/>
      <point x="-399" y="1615" type="line"/>
    </contour>
  </outline>
</glyph>
<glyph name="leftanglebelowcomb" format="2">
  <advance height="2479"/>
  <unicode hex="0349"/>
  <outline>
    <contour>
      <point x="-521" y="-506" type="line"/>
      <point x="-369" y="-506" type="line"/>
      <point x="-369" y="-122" type="line"/>
      <point x="-521" y="-122" type="line"/>
    </contour>
    <contour>
      <point x="-768" y="-262" type="line"/>
      <point x="-369" y="-262" type="line"/>
      <point x="-369" y="-122" type="line"/>
      <point x="-768" y="-122" type="line"/>
    </contour>
  </outline>
</glyph>
<glyph name="almostequaltoabovecomb" format="2">
  <advance height="2479"/>
  <unicode hex="034C"/>
  <outline>
    <contour>
      <point x="-346" y="1455" type="line"/>
      <point x="-346" y="1408"/>
      <point x="-390" y="1373"/>
      <point x="-442" y="1373" type="curve" smooth="yes"/>
      <point x="-550" y="1373"/>
      <point x="-599" y="1440"/>
      <point x="-710" y="1440" type="curve" smooth="yes"/>
      <point x="-832" y="1440"/>
      <point x="-928" y="1361"/>
      <point x="-928" y="1254" type="curve"/>
      <point x="-797" y="1245" type="line"/>
      <point x="-797" y="1292"/>
      <point x="-753" y="1329"/>
      <point x="-698" y="1329" type="curve" smooth="yes"/>
      <point x="-591" y="1329"/>
      <point x="-567" y="1260"/>
      <point x="-433" y="1260" type="curve" smooth="yes"/>
      <point x="-311" y="1260"/>
      <point x="-212" y="1332"/>
      <point x="-212" y="1446" type="curve"/>
    </contour>
    <contour>
      <point x="-346" y="1664" type="line"/>
      <point x="-346" y="1617"/>
      <point x="-387" y="1580"/>
      <point x="-442" y="1580" type="curve" smooth="yes"/>
      <point x="-550" y="1580"/>
      <point x="-599" y="1649"/>
      <point x="-710" y="1649" type="curve" smooth="yes"/>
      <point x="-832" y="1649"/>
      <point x="-928" y="1571"/>
      <point x="-928" y="1460" type="curve"/>
      <point x="-797" y="1455" type="line"/>
      <point x="-797" y="1501"/>
      <point x="-751" y="1536"/>
      <point x="-698" y="1536" type="curve" smooth="yes"/>
      <point x="-591" y="1536"/>
      <point x="-567" y="1469"/>
      <point x="-433" y="1469" type="curve" smooth="yes"/>
      <point x="-311" y="1469"/>
      <point x="-212" y="1542"/>
      <point x="-212" y="1652" type="curve"/>
    </contour>
  </outline>
</glyph>
